<svg width="24" height="24" viewBox="0 0 24 24" xmlns="http://www.w3.org/2000/svg">
    <path d="M3 6C1.343 6 0 4.657 0 3s1.343-3 3-3 3 1.343 3 3-1.343 3-3 3zm0-2c.552 0 1-.448 1-1s-.448-1-1-1-1 .448-1 1 .448 1 1 1zM3 10c-.552 0-1 .448-1 1v9c0 .552.448 1 1 1s1-.448 1-1v-9c0-.552-.448-1-1-1zm0-2c1.657 0 3 1.343 3 3v9c0 1.657-1.343 3-3 3s-3-1.343-3-3v-9c0-1.657 1.343-3 3-3zM10 14.243v6.034c0 .403.448.73 1 .73s1-.327 1-.73V15.1c.022-4.098 8-4.133 8-.037v5.214c0 .403.448.73 1 .73s1-.327 1-.73v-6.034c0-4.415-3.082-4.25-6-4.25s-6-.19-6 4.25zm6-6.252c8.467 0 8 4.24 8 6.253v6.568c0 1.21-1.343 2.19-3 2.19s-3-.98-3-2.19v-5.204c0-2.13-3.988-2.137-4 .043v5.16c0 1.21-1.343 2.19-3 2.19s-3-.98-3-2.19v-6.567c0-1.692-.467-6.252 8-6.252z"/>
</svg>
