<?xml version="1.0" encoding="UTF-8"?>
<svg width="24px" height="24px" viewBox="0 0 24 24" version="1.1" xmlns="http://www.w3.org/2000/svg" xmlns:xlink="http://www.w3.org/1999/xlink">
    <!-- Generator: Sketch 51 (57462) - http://www.bohemiancoding.com/sketch -->
    <title>Icons / Feather / 4x4</title>
    <desc>Created with Sketch.</desc>
    <defs>
        <path d="M12.6843124,6.70221832 L12.6843124,18.2373471 C12.9879404,18.4129864 13.2411087,18.6661547 13.416748,18.9697827 L15.6843124,18.9697827 C16.2365972,18.9697827 16.6843124,19.417498 16.6843124,19.9697827 C16.6843124,20.5220675 16.2365972,20.9697827 15.6843124,20.9697827 L13.416748,20.9697827 C13.0709386,21.5675841 12.4245948,21.9697827 11.6843124,21.9697827 C10.9440301,21.9697827 10.2976862,21.5675841 9.95187683,20.9697827 L7.68431244,20.9697827 C7.13202769,20.9697827 6.68431244,20.5220675 6.68431244,19.9697827 C6.68431244,19.417498 7.13202769,18.9697827 7.68431244,18.9697827 L9.95187683,18.9697827 C10.1275161,18.6661547 10.3806844,18.4129864 10.6843124,18.2373471 L10.6843124,6.70221832 C10.3806844,6.526579 10.1275161,6.27341071 9.95187683,5.96978271 L7.68431244,5.96978271 C7.13202769,5.96978271 6.68431244,5.52206746 6.68431244,4.96978271 C6.68431244,4.41749796 7.13202769,3.96978271 7.68431244,3.96978271 L9.95187683,3.96978271 C10.2976862,3.37198134 10.9440301,2.96978271 11.6843124,2.96978271 C12.4245948,2.96978271 13.0709386,3.37198134 13.416748,3.96978271 L15.6843124,3.96978271 C16.2365972,3.96978271 16.6843124,4.41749796 16.6843124,4.96978271 C16.6843124,5.52206746 16.2365972,5.96978271 15.6843124,5.96978271 L13.416748,5.96978271 C13.2411087,6.27341071 12.9879404,6.526579 12.6843124,6.70221832 Z M18.1633679,2.01535945 C18.7072622,1.91945621 19.2259206,2.28262472 19.3218238,2.82651902 L20.0164165,6.76575003 C20.1123198,7.30964434 19.7491513,7.82830272 19.205257,7.92420597 C18.6613627,8.02010921 18.1427043,7.65694069 18.046801,7.11304639 L17.3522083,3.17381538 C17.2563051,2.62992107 17.6194736,2.11126269 18.1633679,2.01535945 Z M3.65825201,2.15070484 C4.17722991,1.96181233 4.75107226,2.22939942 4.93996477,2.74837732 L6.30804535,6.5071478 C6.49693786,7.02612571 6.22935077,7.59996806 5.71037287,7.78886057 C5.19139496,7.97775308 4.61755261,7.71016599 4.4286601,7.19118809 L3.06057953,3.43241761 C2.87168702,2.9134397 3.1392741,2.33959735 3.65825201,2.15070484 Z M18.6843124,16.9697827 C19.2365972,16.9697827 19.6843124,17.417498 19.6843124,17.9697827 L19.6843124,21.9697827 C19.6843124,22.5220675 19.2365972,22.9697827 18.6843124,22.9697827 C18.1320277,22.9697827 17.6843124,22.5220675 17.6843124,21.9697827 L17.6843124,17.9697827 C17.6843124,17.417498 18.1320277,16.9697827 18.6843124,16.9697827 Z M4.68431244,16.9697827 C5.23659719,16.9697827 5.68431244,17.417498 5.68431244,17.9697827 L5.68431244,21.9697827 C5.68431244,22.5220675 5.23659719,22.9697827 4.68431244,22.9697827 C4.13202769,22.9697827 3.68431244,22.5220675 3.68431244,21.9697827 L3.68431244,17.9697827 C3.68431244,17.417498 4.13202769,16.9697827 4.68431244,16.9697827 Z" id="path-1"></path>
    </defs>
    <g id="Icons-/-Feather-/-4x4" stroke="none" stroke-width="1" fill="none" fill-rule="evenodd">
        <mask id="mask-2" fill="white">
            <use xlink:href="#path-1"></use>
        </mask>
        <g id="Mask"></g>
        <g id="Colors-/-UI-Grays-/-01.-Payne's-grey" mask="url(#mask-2)" fill="#3A3D42">
            <rect id="Color" x="-2.84e-14" y="-5.68e-14" width="24" height="24"></rect>
        </g>
    </g>
</svg>