<?xml version="1.0" encoding="UTF-8"?>
<svg width="24px" height="24px" viewBox="0 0 24 24" version="1.1" xmlns="http://www.w3.org/2000/svg" xmlns:xlink="http://www.w3.org/1999/xlink">
    <!-- Generator: Sketch 51 (57462) - http://www.bohemiancoding.com/sketch -->
    <title>Icons / Feather / abs</title>
    <desc>Created with Sketch.</desc>
    <defs>
        <path d="M12,16.9559737 C14.7793805,16.9559737 17.0325136,14.7371087 17.0325136,12 C17.0325136,9.26289129 14.7793805,7.04402628 12,7.04402628 C9.22061948,7.04402628 6.96748639,9.26289129 6.96748639,12 C6.96748639,14.7371087 9.22061948,16.9559737 12,16.9559737 Z M12,18.9383632 C8.10886727,18.9383632 4.95448094,15.8319522 4.95448094,12 C4.95448094,8.16804781 8.10886727,5.06163679 12,5.06163679 C15.8911327,5.06163679 19.0455191,8.16804781 19.0455191,12 C19.0455191,15.8319522 15.8911327,18.9383632 12,18.9383632 Z M4.24277604,4.29031422 C4.63583981,3.90322859 5.27312208,3.90322859 5.66618584,4.29031422 C6.05924961,4.67739984 6.05924961,5.30498964 5.66618584,5.69207527 C2.12861198,9.1758459 2.12861198,14.8241541 5.66618584,18.3079247 C6.05924961,18.6950104 6.05924961,19.3226002 5.66618584,19.7096858 C5.27312208,20.0967714 4.63583981,20.0967714 4.24277604,19.7096858 C-0.0809253477,15.4517439 -0.0809253477,8.5482561 4.24277604,4.29031422 Z M19.757224,19.7096858 C19.3641602,20.0967714 18.7268779,20.0967714 18.3338142,19.7096858 C17.9407504,19.3226002 17.9407504,18.6950104 18.3338142,18.3079247 C21.871388,14.8241541 21.871388,9.1758459 18.3338142,5.69207527 C17.9407504,5.30498964 17.9407504,4.67739984 18.3338142,4.29031422 C18.7268779,3.90322859 19.3641602,3.90322859 19.757224,4.29031422 C24.0809253,8.5482561 24.0809253,15.4517439 19.757224,19.7096858 Z M11.1092843,12.6625173 C11.1266925,12.6975567 11.1353965,12.7316734 11.1353965,12.7648686 C11.1353965,12.8257264 11.1097681,12.8773626 11.0585106,12.9197787 C11.0072531,12.9621948 10.9487431,12.9834025 10.8829787,12.9834025 C10.8384911,12.9834025 10.7978725,12.9723376 10.7611219,12.9502075 C10.7243712,12.9280773 10.6953579,12.8948827 10.6740812,12.8506224 L10.5435203,12.571231 L9.60348162,12.571231 L9.47001934,12.8506224 C9.44874264,12.8948827 9.41924584,12.9280773 9.38152805,12.9502075 C9.34381026,12.9723376 9.30270815,12.9834025 9.2582205,12.9834025 C9.19245615,12.9834025 9.13297899,12.9621948 9.07978723,12.9197787 C9.02659548,12.8773626 9,12.8257264 9,12.7648686 C9,12.7316734 9.00870397,12.6975567 9.02611219,12.6625173 L9.79206963,11.1632089 C9.81721483,11.1134161 9.8544485,11.07515 9.90377176,11.0484094 C9.95309502,11.0216688 10.0077366,11.0082988 10.0676983,11.0082988 C10.1257256,11.0082988 10.1798837,11.0216688 10.2301741,11.0484094 C10.2804645,11.07515 10.3181817,11.1134161 10.3433269,11.1632089 L11.1092843,12.6625173 Z M9.78336557,12.1894882 L10.3636364,12.1894882 L10.073501,11.5726141 L9.78336557,12.1894882 Z M12.7311412,11.9626556 C12.8510644,11.997695 12.9429397,12.0562467 13.0067698,12.1383126 C13.0705999,12.2203785 13.1025145,12.3213456 13.1025145,12.4412172 C13.1025145,12.5481794 13.0730177,12.64177 13.0140232,12.7219917 C12.9550287,12.8022134 12.8708903,12.8644534 12.7616054,12.9087137 C12.6523205,12.9529739 12.5241787,12.9751037 12.377176,12.9751037 L11.6054159,12.9751037 C11.5261118,12.9751037 11.465184,12.9548181 11.4226306,12.9142462 C11.3800772,12.8736743 11.3588008,12.8155836 11.3588008,12.7399723 L11.3588008,11.2600277 C11.3588008,11.1844164 11.3800772,11.1263257 11.4226306,11.0857538 C11.465184,11.0451819 11.5261118,11.0248963 11.6054159,11.0248963 L12.3481625,11.0248963 C12.5628637,11.0248963 12.7335584,11.070539 12.8602515,11.1618257 C12.9869445,11.2531125 13.0502901,11.3762095 13.0502901,11.5311203 C13.0502901,11.6307059 13.022244,11.718764 12.9661509,11.7952974 C12.9100577,11.8718307 12.831722,11.9276162 12.7311412,11.9626556 Z M11.8781431,11.791148 L12.2582205,11.791148 C12.3588013,11.791148 12.4323015,11.7763948 12.4787234,11.746888 C12.5251453,11.7173811 12.5483559,11.6703553 12.5483559,11.6058091 C12.5483559,11.5375746 12.5251453,11.4877825 12.4787234,11.4564315 C12.4323015,11.4250805 12.3588013,11.4094053 12.2582205,11.4094053 L11.8781431,11.4094053 L11.8781431,11.791148 Z M12.3104449,12.5905947 C12.4168284,12.5905947 12.4927464,12.5744584 12.5382012,12.5421853 C12.5836559,12.5099122 12.606383,12.4568929 12.606383,12.3831259 C12.606383,12.3093588 12.5836559,12.2563395 12.5382012,12.2240664 C12.4927464,12.1917933 12.4168284,12.175657 12.3104449,12.175657 L11.8781431,12.175657 L11.8781431,12.5905947 L12.3104449,12.5905947 Z M14.1441006,13 C13.9893609,13 13.8457453,12.9838637 13.7132495,12.9515906 C13.5807537,12.9193175 13.471954,12.8745969 13.3868472,12.8174274 C13.353965,12.7934531 13.3302709,12.7685571 13.315764,12.7427386 C13.3012572,12.7169201 13.2940039,12.6837254 13.2940039,12.6431535 C13.2940039,12.5878282 13.3114118,12.5398803 13.3462282,12.4993084 C13.3810447,12.4587365 13.4216632,12.4384509 13.4680851,12.4384509 C13.4932303,12.4384509 13.517408,12.4421392 13.540619,12.4495159 C13.5638299,12.4568926 13.5928432,12.4707237 13.6276596,12.4910097 C13.7069636,12.5334258 13.785783,12.5638542 13.8641199,12.582296 C13.9424569,12.6007378 14.0309473,12.6099585 14.1295938,12.6099585 C14.2437143,12.6099585 14.3302705,12.5938222 14.389265,12.5615491 C14.4482595,12.529276 14.4777563,12.4817892 14.4777563,12.4190871 C14.4777563,12.3766711 14.4501937,12.3402491 14.3950677,12.3098202 C14.3399417,12.2793913 14.2350104,12.2494238 14.0802708,12.219917 C13.8887805,12.1811893 13.7388787,12.1350856 13.6305609,12.0816044 C13.5222432,12.0281233 13.4463252,11.9649612 13.4028046,11.8921162 C13.3592841,11.8192712 13.3375242,11.7312131 13.3375242,11.6279391 C13.3375242,11.5099118 13.3742743,11.4029511 13.4477756,11.3070539 C13.521277,11.2111567 13.6223398,11.1360076 13.7509671,11.0816044 C13.8795945,11.0272012 14.0241771,11 14.1847195,11 C14.3259195,11 14.4516435,11.0147532 14.5618956,11.04426 C14.6721476,11.0737669 14.7727268,11.1198706 14.8636364,11.1825726 C14.8984528,11.2065469 14.923114,11.231904 14.9376209,11.2586445 C14.9521277,11.2853851 14.959381,11.3181188 14.959381,11.3568465 C14.959381,11.4121718 14.9424566,11.4601197 14.9086074,11.5006916 C14.8747581,11.5412635 14.8346231,11.5615491 14.7882012,11.5615491 C14.763056,11.5615491 14.7398454,11.5583218 14.7185687,11.5518672 C14.697292,11.5454126 14.6673116,11.5311204 14.6286267,11.5089903 C14.6189555,11.5034578 14.5913929,11.4891656 14.5459381,11.4661134 C14.5004833,11.4430612 14.4472924,11.4246197 14.3863636,11.4107884 C14.3254349,11.3969571 14.259188,11.3900415 14.1876209,11.3900415 C14.0889744,11.3900415 14.0096715,11.408022 13.9497099,11.4439834 C13.8897482,11.4799449 13.8597679,11.5274317 13.8597679,11.5864454 C13.8597679,11.6214847 13.8704061,11.650069 13.8916828,11.6721992 C13.9129595,11.6943293 13.9526109,11.715998 14.0106383,11.7372061 C14.0686657,11.7584141 14.1547383,11.7800829 14.2688588,11.802213 C14.4545464,11.8409407 14.6005797,11.8875055 14.7069632,11.9419087 C14.8133468,11.9963119 14.8887812,12.0594741 14.9332689,12.131397 C14.9777565,12.2033199 15,12.2881507 15,12.3858921 C15,12.5076078 14.964217,12.6150295 14.8926499,12.7081604 C14.8210828,12.8012914 14.7209871,12.8732132 14.5923598,12.9239281 C14.4637324,12.9746429 14.3143142,13 14.1441006,13 Z" id="path-1"></path>
    </defs>
    <g id="Icons-/-Feather-/-abs" stroke="none" stroke-width="1" fill="none" fill-rule="evenodd">
        <mask id="mask-2" fill="white">
            <use xlink:href="#path-1"></use>
        </mask>
        <g id="Mask" fill-rule="nonzero"></g>
        <g id="Colors-/-UI-Grays-/-01.-Payne's-grey" mask="url(#mask-2)" fill="#3A3D42">
            <rect id="Color" x="-2.84e-14" y="-5.68e-14" width="24" height="24"></rect>
        </g>
    </g>
</svg>