<?xml version="1.0" encoding="UTF-8"?>
<svg width="24px" height="24px" viewBox="0 0 24 24" version="1.1" xmlns="http://www.w3.org/2000/svg" xmlns:xlink="http://www.w3.org/1999/xlink">
    <!-- Generator: Sketch 51 (57462) - http://www.bohemiancoding.com/sketch -->
    <title>Icons / Feather / air conditioner</title>
    <desc>Created with Sketch.</desc>
    <defs>
        <path d="M21.9,10.9 L18.413,10.9 L21.1987451,8.11425486 C21.6290076,7.68399244 21.6302394,6.98678008 21.2015,6.555 L21.2015,6.555 C20.7747139,6.12518707 20.0803032,6.12273332 19.6504903,6.5495194 C19.6495736,6.5504296 19.6486586,6.55134142 19.6477451,6.55225486 L15.3,10.9 L13.1,10.9 L13.1,8.7 L17.4477451,4.35225486 C17.8760473,3.92395268 17.8760473,3.22953764 17.4477451,2.80123546 C17.4468317,2.80032202 17.4459167,2.7994102 17.445,2.7985 L17.445,2.7985 C17.0132199,2.36976062 16.3160076,2.37099244 15.8857451,2.80125486 L13.1,5.587 L13.1,2.1 C13.1,1.49248678 12.6075132,1 12,1 L12,1 C11.3924868,1 10.9,1.49248678 10.9,2.1 L10.9,5.587 L8.11425486,2.80125486 C7.68399244,2.37099244 6.98678008,2.36976062 6.555,2.7985 L6.555,2.7985 C6.12518707,3.22528608 6.12273332,3.91969678 6.5495194,4.34950972 C6.5504296,4.35042637 6.55134142,4.35134142 6.55225486,4.35225486 L10.9,8.7 L10.9,10.9 L8.7,10.9 L4.35225486,6.55225486 C3.92395268,6.12395268 3.22953764,6.12395268 2.80123546,6.55225486 C2.80032202,6.55316829 2.7994102,6.55408334 2.7985,6.555 L2.7985,6.555 C2.36976062,6.98678008 2.37099244,7.68399244 2.80125486,8.11425486 L5.587,10.9 L2.1,10.9 C1.49248678,10.9 1,11.3924868 1,12 L1,12 C1,12.6075132 1.49248678,13.1 2.1,13.1 L5.587,13.1 L2.80125486,15.8857451 C2.37099244,16.3160076 2.36976062,17.0132199 2.7985,17.445 L2.7985,17.445 C3.22528608,17.8748129 3.91969678,17.8772667 4.34950972,17.4504806 C4.35042637,17.4495704 4.35134142,17.4486586 4.35225486,17.4477451 L8.7,13.1 L10.9,13.1 L10.9,15.3 L6.55225486,19.6477451 C6.12395268,20.0760473 6.12395268,20.7704624 6.55225486,21.1987645 C6.55316829,21.199678 6.55408334,21.2005898 6.555,21.2015 L6.555,21.2015 C6.98678008,21.6302394 7.68399244,21.6290076 8.11425486,21.1987451 L10.9,18.413 L10.9,21.9 C10.9,22.5075132 11.3924868,23 12,23 L12,23 C12.6075132,23 13.1,22.5075132 13.1,21.9 L13.1,18.413 L15.8857451,21.1987451 C16.3160076,21.6290076 17.0132199,21.6302394 17.445,21.2015 L17.445,21.2015 C17.8748129,20.7747139 17.8772667,20.0803032 17.4504806,19.6504903 C17.4495704,19.6495736 17.4486586,19.6486586 17.4477451,19.6477451 L13.1,15.3 L13.1,13.1 L15.3,13.1 L19.6477451,17.4477451 C20.0760473,17.8760473 20.7704624,17.8760473 21.1987645,17.4477451 C21.199678,17.4468317 21.2005898,17.4459167 21.2015,17.445 L21.2015,17.445 C21.6302394,17.0132199 21.6290076,16.3160076 21.1987451,15.8857451 L18.413,13.1 L21.9,13.1 C22.5075132,13.1 23,12.6075132 23,12 L23,12 C23,11.3924868 22.5075132,10.9 21.9,10.9 Z" id="path-1"></path>
    </defs>
    <g id="Icons-/-Feather-/-air-conditioner" stroke="none" stroke-width="1" fill="none" fill-rule="evenodd">
        <mask id="mask-2" fill="white">
            <use xlink:href="#path-1"></use>
        </mask>
        <g id="Mask"></g>
        <g id="Colors-/-UI-Grays-/-01.-Payne's-grey" mask="url(#mask-2)" fill="#3A3D42">
            <rect id="Color" x="-2.84e-14" y="-5.68e-14" width="24" height="24"></rect>
        </g>
    </g>
</svg>