<?xml version="1.0" encoding="UTF-8"?>
<svg width="24px" height="24px" viewBox="0 0 24 24" version="1.1" xmlns="http://www.w3.org/2000/svg" xmlns:xlink="http://www.w3.org/1999/xlink">
    <!-- Generator: Sketch 51 (57462) - http://www.bohemiancoding.com/sketch -->
    <title>Icons / Feather / airbag</title>
    <desc>Created with Sketch.</desc>
    <defs>
        <path d="M14.0262794,20.2942286 L14.0262794,22.2942286 C14.0262794,22.8465134 13.5785642,23.2942286 13.0262794,23.2942286 L11.0262794,23.2942286 C10.4739947,23.2942286 10.0262794,22.8465134 10.0262794,22.2942286 L10.0262794,20.2942286 L6.02627944,20.2942286 C5.47399469,20.2942286 5.02627944,19.8465134 5.02627944,19.2942286 C5.02627944,18.7419439 5.47399469,18.2942286 6.02627944,18.2942286 L18.0262794,18.2942286 C18.5785642,18.2942286 19.0262794,18.7419439 19.0262794,19.2942286 C19.0262794,19.8465134 18.5785642,20.2942286 18.0262794,20.2942286 L14.0262794,20.2942286 Z M9.02627944,12.8063373 L9.02627944,17.2942286 L7.02627944,17.2942286 L7.02627944,14.1154683 C4.61430796,12.8597284 3.02627944,10.7212189 3.02627944,8.29422863 C3.02627944,4.42823539 7.05571669,1.29422863 12.0262794,1.29422863 C16.9968422,1.29422863 21.0262794,4.42823539 21.0262794,8.29422863 C21.0262794,10.7212189 19.4382509,12.8597284 17.0262794,14.1154683 L17.0262794,17.2942286 L15.0262794,17.2942286 L15.0262794,12.8063373 C17.422173,11.980473 19.0262794,10.2090398 19.0262794,8.29422863 C19.0262794,5.65838479 15.9866501,3.29422863 12.0262794,3.29422863 C8.06590879,3.29422863 5.02627944,5.65838479 5.02627944,8.29422863 C5.02627944,10.2090398 6.63038593,11.980473 9.02627944,12.8063373 Z" id="path-1"></path>
    </defs>
    <g id="Icons-/-Feather-/-airbag" stroke="none" stroke-width="1" fill="none" fill-rule="evenodd">
        <mask id="mask-2" fill="white">
            <use xlink:href="#path-1"></use>
        </mask>
        <g id="Combined-Shape-Copy-2" fill-rule="nonzero" transform="translate(12.026279, 12.294229) rotate(60.000000) translate(-12.026279, -12.294229) "></g>
        <g id="Colors-/-UI-Grays-/-01.-Payne's-grey" mask="url(#mask-2)" fill="#3A3D42">
            <rect id="Color" x="-2.84e-14" y="-5.68e-14" width="24" height="24"></rect>
        </g>
    </g>
</svg>