<svg
  width="24"
  height="24"
  viewBox="0 0 24 24"
  xmlns="http://www.w3.org/2000/svg"
  fill="none"
  stroke="currentColor"
  stroke-width="2"
  stroke-linecap="round"
  stroke-linejoin="round"
>
  <path d="M13.459 8.937c.6-.287 1.447-.437 2.541-.437 1.037 0 1.963.464 2.797 1.424C17.61 10.945 17 12.144 17 13.5c0 1.384.635 2.603 1.87 3.638-1.488 2.904-2.68 4.362-3.37 4.362-.39 0-.79-.131-1.206-.405a3.6 3.6 0 0 0-3.828-.081c-.548.328-1.037.486-1.466.486-1.166 0-4-5.29-4-8 0-2.914 1.434-5 3.5-5 1.154 0 2.129.166 2.925.495a2.5 2.5 0 0 0 2.034-.058z" />
  <path d="M15.5 2.5A3.5 3.5 0 0 0 12 6a.5.5 0 0 0 .5.5A3.5 3.5 0 0 0 16 3a.5.5 0 0 0-.5-.5z" />
</svg>
