<?xml version="1.0" encoding="UTF-8"?>
<svg width="24px" height="24px" viewBox="0 0 24 24" version="1.1" xmlns="http://www.w3.org/2000/svg" xmlns:xlink="http://www.w3.org/1999/xlink">
    <!-- Generator: Sketch 51 (57462) - http://www.bohemiancoding.com/sketch -->
    <title>Icons / Feather / automatic shift 2</title>
    <desc>Created with Sketch.</desc>
    <defs>
        <path d="M12,21 C16.9705627,21 21,16.9705627 21,12 C21,7.02943725 16.9705627,3 12,3 C7.02943725,3 3,7.02943725 3,12 C3,16.9705627 7.02943725,21 12,21 Z M12,23 C5.92486775,23 1,18.0751322 1,12 C1,5.92486775 5.92486775,1 12,1 C18.0751322,1 23,5.92486775 23,12 C23,18.0751322 18.0751322,23 12,23 Z M17.8662953,15.3384615 C17.9554322,15.5398611 18,15.7188803 18,15.8755245 C18,16.1888128 17.8746531,16.4545444 17.6239554,16.6727273 C17.3732578,16.8909102 17.0863526,17 16.7632312,17 C16.551531,17 16.3509759,16.9412593 16.1615599,16.8237762 C15.9721439,16.7062931 15.8272986,16.5300711 15.7270195,16.2951049 L14.8412256,14.3146853 L9.17548747,14.3146853 L8.28969359,16.2951049 C8.18941454,16.5300711 8.04735468,16.7062931 7.86350975,16.8237762 C7.67966482,16.9412593 7.47632423,17 7.25348189,17 C6.9303605,17 6.64066981,16.8909102 6.38440111,16.6727273 C6.12813242,16.4545444 6,16.1888128 6,15.8755245 C6,15.7188803 6.0445678,15.5398611 6.13370474,15.3384615 L10.6462396,5.82237762 C10.7688028,5.55384481 10.952645,5.34965105 11.1977716,5.20979021 C11.4428982,5.06992937 11.704734,5 11.9832869,5 C12.2729819,5 12.5403887,5.07272655 12.7855153,5.21818182 C13.0306419,5.36363709 13.220055,5.56503368 13.3537604,5.82237762 L17.8662953,15.3384615 Z M10.0612813,12.3342657 L13.9554318,12.3342657 L12.0167131,7.97062937 L10.0612813,12.3342657 Z" id="path-1"></path>
    </defs>
    <g id="Icons-/-Feather-/-automatic-shift-2" stroke="none" stroke-width="1" fill="none" fill-rule="evenodd">
        <mask id="mask-2" fill="white">
            <use xlink:href="#path-1"></use>
        </mask>
        <g id="Mask" fill-rule="nonzero"></g>
        <g id="Colors-/-UI-Grays-/-01.-Payne's-grey" mask="url(#mask-2)" fill="#3A3D42">
            <rect id="Color" x="-2.84e-14" y="-5.68e-14" width="24" height="24"></rect>
        </g>
    </g>
</svg>