<?xml version="1.0" encoding="UTF-8"?>
<svg width="24px" height="24px" viewBox="0 0 24 24" version="1.1" xmlns="http://www.w3.org/2000/svg" xmlns:xlink="http://www.w3.org/1999/xlink">
    <!-- Generator: Sketch 51 (57462) - http://www.bohemiancoding.com/sketch -->
    <title>Icons / Feather / seat 2</title>
    <desc>Created with Sketch.</desc>
    <defs>
        <path d="M11.8452716,15.0464185 L18.1379563,13.1586131 C19.7249349,12.6825195 21.3973853,13.5830697 21.8734789,15.1700483 C21.9573769,15.4497084 22,15.7401183 22,16.032092 L22,20 C22,21.6568542 20.6568542,23 19,23 L4.5,23 C3.11928813,23 2,21.8807119 2,20.5 L2,20.232092 C2,20.1933739 2.00074222,20.1547897 2.00221495,20.1163553 C2.00074278,20.0777526 2,20.0389631 2,20 L2,4 C2,2.34314575 3.34314575,1 5,1 L5.26035609,1 C6.8119657,1 8.10755957,2.18315529 8.24803571,3.72839276 L9.09103225,13.0013548 C9.61781986,13.0170546 10.110495,13.1685589 10.5352491,13.4220592 C10.5800807,13.3396066 10.6373666,13.2621283 10.7071068,13.1923882 L19.1923882,4.70710678 C19.5829124,4.31658249 20.2160774,4.31658249 20.6066017,4.70710678 C20.997126,5.09763107 20.997126,5.73079605 20.6066017,6.12132034 L12.1213203,14.6066017 C12.0170323,14.7108898 11.8954406,14.7873281 11.765787,14.8359167 C11.7948187,14.9048105 11.8213514,14.9750157 11.8452716,15.0464185 Z M11.7685539,17.1574951 C11.3155721,18.2396873 10.2465763,19 9,19 C7.34314575,19 6,17.6568542 6,16 C6,15.0451221 6.4461185,14.1944407 7.14129911,13.6450123 L6.25624929,3.90946425 C6.20942391,3.3943851 5.77755929,3 5.26035609,3 L5,3 C4.44771525,3 4,3.44771525 4,4 L4,20 C4.00008604,20.0134879 4.00033547,20.0777996 4.00074829,20.1929353 C4.00033349,20.2059179 4.00008406,20.3082728 4,20.5 C4,20.7761424 4.22385763,21 4.5,21 L19,21 C19.5522847,21 20,20.5522847 20,20 L20,16.032092 C20,15.9347674 19.9857923,15.8379641 19.9578263,15.7447441 C19.7991284,15.2157512 19.241645,14.9155678 18.7126521,15.0742657 L11.7685539,17.1574951 Z M9,17 C9.55228475,17 10,16.5522847 10,16 C10,15.4477153 9.55228475,15 9,15 C8.44771525,15 8,15.4477153 8,16 C8,16.5522847 8.44771525,17 9,17 Z M18,19 C17.4477153,19 17,18.5522847 17,18 C17,17.4477153 17.4477153,17 18,17 C18.5522847,17 19,17.4477153 19,18 C19,18.5522847 18.5522847,19 18,19 Z" id="path-1"></path>
    </defs>
    <g id="Icons-/-Feather-/-seat-2" stroke="none" stroke-width="1" fill="none" fill-rule="evenodd">
        <mask id="mask-2" fill="white">
            <use xlink:href="#path-1"></use>
        </mask>
        <g id="Mask" fill-rule="nonzero"></g>
        <g id="Colors-/-UI-Grays-/-01.-Payne's-grey" mask="url(#mask-2)" fill="#3A3D42">
            <rect id="Color" x="-2.84e-14" y="-5.68e-14" width="24" height="24"></rect>
        </g>
    </g>
</svg>