<svg width="19" height="18" viewBox="0 0 19 18" fill="none" xmlns="http://www.w3.org/2000/svg">
<path fill-rule="evenodd" clip-rule="evenodd" d="M0.862984 6.11043H18.1273H18.1366C18.6144 6.11043 19 5.72484 19 5.24699C19 4.86771 18.7557 4.54623 18.4168 4.42968L9.85036 0.575758C9.62503 0.474747 9.36862 0.474747 9.14232 0.575758L0.509396 4.46126C0.13692 4.62734 -0.066071 5.03187 0.0193992 5.42912C0.104869 5.82733 0.455977 6.11094 0.862939 6.11094L0.862984 6.11043ZM1.94253 15.519C1.46565 15.519 1.07909 15.9055 1.07909 16.3834C1.07909 16.8603 1.46468 17.2468 1.94253 17.2468H17.0499C17.5268 17.2468 17.9134 16.8603 17.9134 16.3834C17.9134 15.9065 17.5268 15.519 17.0499 15.519H16.8338V8.60516H17.3049C17.7308 8.60516 18.0761 8.22104 18.0761 7.74609C18.0751 7.27066 17.7308 6.88604 17.3049 6.88604H1.88918C1.46231 6.88604 1.118 7.27066 1.118 7.74609C1.118 8.22054 1.46231 8.60516 1.88918 8.60516H2.15967V15.519H1.94253ZM3.88454 8.60516H6.47388V15.519H3.88454V8.60516ZM8.19982 8.60516H10.7892V15.519H8.19982V8.60516ZM12.5171 8.60516H15.1064V15.519H12.5171V8.60516Z" fill="#388CEB"/>
</svg>
