<?xml version="1.0" encoding="UTF-8"?>
<svg width="24px" height="24px" viewBox="0 0 24 24" version="1.1" xmlns="http://www.w3.org/2000/svg" xmlns:xlink="http://www.w3.org/1999/xlink">
    <!-- Generator: Sketch 51 (57462) - http://www.bohemiancoding.com/sketch -->
    <title>Icons / Feather / bill fine</title>
    <desc>Created with Sketch.</desc>
    <defs>
        <path d="M20.0252705,1 C20.5635986,1 20.9999997,1.50671699 20.9999997,2.13178408 L20.9999997,21.8172818 C21.0002702,22.2296662 20.8073446,22.6095822 20.4964346,22.8089202 C20.1855245,23.0082583 19.8058456,22.9954642 19.5054149,22.7755257 L17.4259926,21.2664802 L15.0801442,22.8207971 C14.7720274,23.0347958 14.387539,23.0347958 14.0794222,22.8207971 L11.9935017,21.3117516 L9.80361,22.8207971 C9.49549323,23.0347958 9.11100476,23.0347958 8.802888,22.8207971 L6.54801438,21.3117516 L4.50108301,22.8207971 C4.20135364,23.0440848 3.82060864,23.0598061 3.50797671,22.8618032 C3.19534478,22.6638004 3.00059262,22.2835927 3,21.8700984 L3,2.13178408 C3,1.50671699 3.43640114,1 3.97472923,1 L20.0252705,1 Z M19,20.2300306 L18.9806719,3 L5,3 L5,20.1671759 L6.04371836,19.3814928 C6.35396748,19.1491318 6.74497408,19.1491318 7.05522319,19.3814928 L9.31017027,21 L11.4942476,19.4286338 C11.8044967,19.1962728 12.1955033,19.1962728 12.5057524,19.4286338 L14.5867464,21 L16.9318914,19.4050633 C17.2389742,19.1790798 17.623428,19.1790798 17.9305108,19.4050633 L19,20.2300306 Z M13,11 C13,11.6 12.6,12 12,12 C11.4,12 11,11.6 11,11 L11,7 C11,6.4 11.4,6 12,6 C12.6,6 13,6.4 13,7 L13,11 Z M12.8,15.7040518 C12.6,15.9040518 12.4,16.0040518 12,16.0040518 C11.7,16.0040518 11.5,15.9040518 11.3,15.7040518 C11.1,15.5040518 11,15.3040518 11,15.0040518 C11,14.8040518 11.1,14.7040518 11.1,14.6040518 C11.1,14.5040518 11.2,14.4040518 11.3,14.3040518 C11.6,14.0040518 12,13.9040518 12.4,14.1040518 C12.5,14.1040518 12.5,14.2040518 12.6,14.2040518 C12.7,14.2040518 12.8,14.3040518 12.8,14.3040518 C12.9,14.4040518 12.9,14.5040518 13,14.6040518 C13.1,14.7040518 13.1,14.9040518 13.1,15.0040518 C13.1,15.1040518 13,15.3040518 13,15.4040518 C13,15.5040518 12.9,15.6040518 12.8,15.7040518 Z" id="path-1"></path>
    </defs>
    <g id="Icons-/-Feather-/-bill-fine" stroke="none" stroke-width="1" fill="none" fill-rule="evenodd">
        <mask id="mask-2" fill="white">
            <use xlink:href="#path-1"></use>
        </mask>
        <g id="Mask"></g>
        <g id="Colors-/-UI-Grays-/-01.-Payne's-grey" mask="url(#mask-2)" fill="#3A3D42">
            <rect id="Color" x="-2.84e-14" y="-5.68e-14" width="24" height="24"></rect>
        </g>
    </g>
</svg>