<?xml version="1.0" encoding="UTF-8" standalone="no"?>
<svg
   xmlns:dc="http://purl.org/dc/elements/1.1/"
   xmlns:cc="http://creativecommons.org/ns#"
   xmlns:rdf="http://www.w3.org/1999/02/22-rdf-syntax-ns#"
   xmlns:svg="http://www.w3.org/2000/svg"
   xmlns="http://www.w3.org/2000/svg"
   xmlns:sodipodi="http://sodipodi.sourceforge.net/DTD/sodipodi-0.dtd"
   xmlns:inkscape="http://www.inkscape.org/namespaces/inkscape"
   width="24"
   height="24"
   viewBox="0 0 24 24"
   version="1.1"
   id="svg8"
   sodipodi:docname="box.svg"
   inkscape:version="0.92.1 r">
  <metadata
     id="metadata14">
    <rdf:RDF>
      <cc:Work
         rdf:about="">
        <dc:format>image/svg+xml</dc:format>
        <dc:type
           rdf:resource="http://purl.org/dc/dcmitype/StillImage" />
      </cc:Work>
    </rdf:RDF>
  </metadata>
  <defs
     id="defs12" />
  <sodipodi:namedview
     pagecolor="#ffffff"
     bordercolor="#666666"
     borderopacity="1"
     objecttolerance="10"
     gridtolerance="10"
     guidetolerance="10"
     inkscape:pageopacity="0"
     inkscape:pageshadow="2"
     inkscape:window-width="640"
     inkscape:window-height="480"
     id="namedview10"
     showgrid="false"
     inkscape:zoom="9.8333333"
     inkscape:cx="12"
     inkscape:cy="12"
     inkscape:window-x="0"
     inkscape:window-y="22"
     inkscape:window-maximized="0"
     inkscape:current-layer="svg8" />
  <path
     style="color:#000000;font-style:normal;font-variant:normal;font-weight:normal;font-stretch:normal;font-size:medium;line-height:normal;font-family:sans-serif;font-variant-ligatures:normal;font-variant-position:normal;font-variant-caps:normal;font-variant-numeric:normal;font-variant-alternates:normal;font-feature-settings:normal;text-indent:0;text-align:start;text-decoration:none;text-decoration-line:none;text-decoration-style:solid;text-decoration-color:#000000;letter-spacing:normal;word-spacing:normal;text-transform:none;writing-mode:lr-tb;direction:ltr;text-orientation:mixed;dominant-baseline:auto;baseline-shift:baseline;text-anchor:start;white-space:normal;shape-padding:0;clip-rule:nonzero;display:inline;overflow:visible;visibility:visible;opacity:1;isolation:auto;mix-blend-mode:normal;color-interpolation:sRGB;color-interpolation-filters:linearRGB;solid-color:#000000;solid-opacity:1;vector-effect:none;fill:#0f0f0f;fill-opacity:1;fill-rule:nonzero;stroke:none;stroke-width:2;stroke-linecap:round;stroke-linejoin:round;stroke-miterlimit:4;stroke-dasharray:none;stroke-dashoffset:0;stroke-opacity:1;color-rendering:auto;image-rendering:auto;shape-rendering:auto;text-rendering:auto;enable-background:accumulate"
     d="m 12,0.2421875 c -0.457454,0 -0.915845,0.10375117 -1.335938,0.3125 a 1.0001,1.0001 0 0 0 -0.002,0 l -7.9999996,4 C 1.6453044,5.0605845 1.0006027,6.1044487 1,7.2402344 v 9.5136716 c -0.007922,1.138322 0.6337983,2.186989 1.6503906,2.699219 a 1.0001,1.0001 0 0 0 0.00195,0.002 l 8.0000002,4 c 0.844265,0.422471 1.841282,0.422471 2.685547,0 l 7.998047,-4 C 22.353516,18.949431 22.999397,17.90777 23,16.771484 a 1.0001,1.0001 0 0 0 0,-0.002 V 7.2402344 C 22.999397,6.1044487 22.354696,5.0605845 21.337891,4.5546875 h -0.002 l -7.998047,-4 a 1.0001,1.0001 0 0 0 -0.002,0 C 12.915845,0.34593867 12.457454,0.2421875 12,0.2421875 Z m -0.445312,2.1035156 c 0.281081,-0.1396726 0.609543,-0.1396726 0.890624,0 L 20.443359,6.34375 a 1.0001,1.0001 0 0 0 0.002,0.00195 C 20.787049,6.5155162 20.999798,6.8586318 21,7.2402344 v 9.5292966 c -2.02e-4,0.381603 -0.212951,0.724718 -0.554688,0.894531 a 1.0001,1.0001 0 0 0 -0.002,0.002 l -8,4 c -0.282471,0.141348 -0.614013,0.141348 -0.896484,0 l -8,-4 h 0.00391 C 3.2093584,17.493983 2.9973394,17.149884 3,16.767578 a 1.0001,1.0001 0 0 0 0,-0.0078 V 7.2402344 C 3.0002025,6.8586318 3.2129507,6.5155162 3.5546875,6.3457031 a 1.0001,1.0001 0 0 0 0.00195,-0.00195 z"
     id="path2"
     inkscape:connector-curvature="0" />
  <path
     style="color:#000000;font-style:normal;font-variant:normal;font-weight:normal;font-stretch:normal;font-size:medium;line-height:normal;font-family:sans-serif;font-variant-ligatures:normal;font-variant-position:normal;font-variant-caps:normal;font-variant-numeric:normal;font-variant-alternates:normal;font-feature-settings:normal;text-indent:0;text-align:start;text-decoration:none;text-decoration-line:none;text-decoration-style:solid;text-decoration-color:#000000;letter-spacing:normal;word-spacing:normal;text-transform:none;writing-mode:lr-tb;direction:ltr;text-orientation:mixed;dominant-baseline:auto;baseline-shift:baseline;text-anchor:start;white-space:normal;shape-padding:0;clip-rule:nonzero;display:inline;overflow:visible;visibility:visible;opacity:1;isolation:auto;mix-blend-mode:normal;color-interpolation:sRGB;color-interpolation-filters:linearRGB;solid-color:#000000;solid-opacity:1;vector-effect:none;fill:#0f0f0f;fill-opacity:1;fill-rule:nonzero;stroke:none;stroke-width:2;stroke-linecap:round;stroke-linejoin:round;stroke-miterlimit:4;stroke-dasharray:none;stroke-dashoffset:0;stroke-opacity:1;color-rendering:auto;image-rendering:auto;shape-rendering:auto;text-rendering:auto;enable-background:accumulate"
     d="M 2.2851562,5.1542969 A 1.0001,1.0001 0 0 0 1.8730469,7.0546875 l 9.6796871,4.8398435 a 1.0001,1.0001 0 0 0 0.894532,0 L 22.126953,7.0546875 A 1.0001163,1.0001163 0 1 0 21.232422,5.265625 L 12,9.8828125 2.7675781,5.265625 A 1.0001,1.0001 0 0 0 2.2851562,5.1542969 Z"
     id="polyline4"
     inkscape:connector-curvature="0" />
  <path
     style="color:#000000;font-style:normal;font-variant:normal;font-weight:normal;font-stretch:normal;font-size:medium;line-height:normal;font-family:sans-serif;font-variant-ligatures:normal;font-variant-position:normal;font-variant-caps:normal;font-variant-numeric:normal;font-variant-alternates:normal;font-feature-settings:normal;text-indent:0;text-align:start;text-decoration:none;text-decoration-line:none;text-decoration-style:solid;text-decoration-color:#000000;letter-spacing:normal;word-spacing:normal;text-transform:none;writing-mode:lr-tb;direction:ltr;text-orientation:mixed;dominant-baseline:auto;baseline-shift:baseline;text-anchor:start;white-space:normal;shape-padding:0;clip-rule:nonzero;display:inline;overflow:visible;visibility:visible;opacity:1;isolation:auto;mix-blend-mode:normal;color-interpolation:sRGB;color-interpolation-filters:linearRGB;solid-color:#000000;solid-opacity:1;vector-effect:none;fill:#0f0f0f;fill-opacity:1;fill-rule:nonzero;stroke:none;stroke-width:2;stroke-linecap:round;stroke-linejoin:round;stroke-miterlimit:4;stroke-dasharray:none;stroke-dashoffset:0;stroke-opacity:1;color-rendering:auto;image-rendering:auto;shape-rendering:auto;text-rendering:auto;enable-background:accumulate"
     d="M 11.984375,9.9863281 A 1.0001,1.0001 0 0 0 11,11 v 11.759766 a 1.0001,1.0001 0 1 0 2,0 V 11 A 1.0001,1.0001 0 0 0 11.984375,9.9863281 Z"
     id="line6"
     inkscape:connector-curvature="0" />
</svg>
