<svg xmlns="http://www.w3.org/2000/svg" width="40" height="40" viewBox="0 0 24 24" fill="none" stroke="currentColor" stroke-width="2" stroke-linecap="round" stroke-linejoin="round" class="feather"><rect x="7" y="7.5" width="10" height="14" rx="5"/><polyline points="2 12.5 4 14.5 7 14.5"/><polyline points="22 12.5 20 14.5 17 14.5"/><polyline points="3 21.5 5 18.5 7 17.5"/><polyline points="21 21.5 19 18.5 17 17.5"/><polyline points="3 8.5 5 10.5 7 11.5"/><polyline points="21 8.5 19 10.5 17 11.5"/><line x1="12" y1="7.5" x2="12" y2="21.5"/><path d="M15.38,8.82A3,3,0,0,0,16,7h0a3,3,0,0,0-3-3H11A3,3,0,0,0,8,7H8a3,3,0,0,0,.61,1.82"/><line x1="9" y1="4.5" x2="8" y2="2.5"/><line x1="15" y1="4.5" x2="16" y2="2.5"/></svg>