<svg
  width="24"
  height="24"
  xmlns="http://www.w3.org/2000/svg"
  viewBox="0 0 24 24"
  fill="none"
  stroke="currentColor"
  stroke-width="2"
  stroke-linecap="round"
  stroke-linejoin="round"
>
  <path
    fill-rule="evenodd"
    clip-rule="evenodd"
    d="M3 4a3 3 0 0 1 3-3h12a3 3 0 0 1 3 3v16a3 3 0 0 1-3 3H6a3 3 0 0 1-3-3V4zm3-1a1 1 0 0 0-1 1v16a1 1 0 0 0 1 1h12a1 1 0 0 0 1-1V4a1 1 0 0 0-1-1H6z"
  />
  <path d="M7 14a1 1 0 1 1 2 0 1 1 0 0 1-2 0zm0 4a1 1 0 1 1 2 0 1 1 0 0 1-2 0zm4-4a1 1 0 1 1 2 0 1 1 0 0 1-2 0zm0 4a1 1 0 1 1 2 0 1 1 0 0 1-2 0zm4 0a1 1 0 1 1 2 0 1 1 0 0 1-2 0z" />
  <path d="M15 14a1 1 0 1 1 2 0v4a1 1 0 1 1-2 0v-4zm-8-4a1 1 0 1 1 2 0 1 1 0 0 1-2 0zm0-7a1 1 0 0 1 2 0v3a1 1 0 0 1-2 0V3zm8 0a1 1 0 1 1 2 0v3a1 1 0 1 1-2 0V3zm-4 7a1 1 0 1 1 2 0 1 1 0 0 1-2 0zm4 0a1 1 0 1 1 2 0 1 1 0 0 1-2 0z" />
  <path d="M15 18a1 1 0 1 1 2 0 1 1 0 0 1-2 0zM7 6a1 1 0 0 1 1-1h8a1 1 0 1 1 0 2H8a1 1 0 0 1-1-1z" />
</svg>
