<?xml version="1.0" encoding="UTF-8"?>
<svg width="24px" height="24px" viewBox="0 0 24 24" version="1.1" xmlns="http://www.w3.org/2000/svg" xmlns:xlink="http://www.w3.org/1999/xlink">
    <!-- Generator: Sketch 51 (57462) - http://www.bohemiancoding.com/sketch -->
    <title>Icons / Feather / car new</title>
    <desc>Created with Sketch.</desc>
    <defs>
        <path d="M16.9,4.1 L16,4.1 C15.6686292,4.1 15.4,3.83137085 15.4,3.5 C15.4,3.16862915 15.6686292,2.9 16,2.9 L16.9,2.9 L16.9,2 C16.9,1.66862915 17.1686292,1.4 17.5,1.4 C17.8313708,1.4 18.1,1.66862915 18.1,2 L18.1,2.9 L19,2.9 C19.3313708,2.9 19.6,3.16862915 19.6,3.5 C19.6,3.83137085 19.3313708,4.1 19,4.1 L18.1,4.1 L18.1,5 C18.1,5.33137085 17.8313708,5.6 17.5,5.6 C17.1686292,5.6 16.9,5.33137085 16.9,5 L16.9,4.1 Z M20.5,7.5 L20,7.5 C19.7238576,7.5 19.5,7.27614237 19.5,7 C19.5,6.72385763 19.7238576,6.5 20,6.5 L20.5,6.5 L20.5,6 C20.5,5.72385763 20.7238576,5.5 21,5.5 C21.2761424,5.5 21.5,5.72385763 21.5,6 L21.5,6.5 L22,6.5 C22.2761424,6.5 22.5,6.72385763 22.5,7 C22.5,7.27614237 22.2761424,7.5 22,7.5 L21.5,7.5 L21.5,8 C21.5,8.27614237 21.2761424,8.5 21,8.5 C20.7238576,8.5 20.5,8.27614237 20.5,8 L20.5,7.5 Z M15.1707057,17 L9.82929429,17 C9.41745788,18.1651924 8.30621883,19 7,19 C5.69378117,19 4.58254212,18.1651924 4.17070571,17 L2,17 C1.44771525,17 1,16.5522847 1,16 L1,10.3333333 C1,10.1169631 1.07017787,9.9064295 1.2,9.73333333 L3.7,6.4 C3.88885438,6.14819416 4.1852427,6 4.5,6 L13.5,6 C13.8147573,6 14.1111456,6.14819416 14.3,6.4 L16.4545455,9.27272727 L21.2208631,9.80231812 C22.2337284,9.91485871 23,10.7709872 23,11.7900856 L23,16 C23,16.5522847 22.5522847,17 22,17 L20.8292943,17 C20.4174579,18.1651924 19.3062188,19 18,19 C16.6937812,19 15.5825421,18.1651924 15.1707057,17 Z M15.1707057,15 C15.5825421,13.8348076 16.6937812,13 18,13 C19.3062188,13 20.4174579,13.8348076 20.8292943,15 L21,15 L21,11.7900856 L16.2336824,11.2604947 C15.6849416,11.1995235 15.1858161,10.9144214 14.8545455,10.4727273 L13,8 L5,8 L3,10.6666667 L3,15 L4.17070571,15 C4.58254212,13.8348076 5.69378117,13 7,13 C8.30621883,13 9.41745788,13.8348076 9.82929429,15 L15.1707057,15 Z M7,17 C7.55228475,17 8,16.5522847 8,16 C8,15.4477153 7.55228475,15 7,15 C6.44771525,15 6,15.4477153 6,16 C6,16.5522847 6.44771525,17 7,17 Z M18,17 C18.5522847,17 19,16.5522847 19,16 C19,15.4477153 18.5522847,15 18,15 C17.4477153,15 17,15.4477153 17,16 C17,16.5522847 17.4477153,17 18,17 Z" id="path-1"></path>
    </defs>
    <g id="Icons-/-Feather-/-car-new" stroke="none" stroke-width="1" fill="none" fill-rule="evenodd">
        <mask id="mask-2" fill="white">
            <use xlink:href="#path-1"></use>
        </mask>
        <g id="Mask" fill-rule="nonzero"></g>
        <g id="Colors-/-UI-Grays-/-01.-Payne's-grey" mask="url(#mask-2)" fill="#3A3D42">
            <rect id="Color" x="-2.84e-14" y="-5.68e-14" width="24" height="24"></rect>
        </g>
    </g>
</svg>