<?xml version="1.0" encoding="UTF-8"?>
<svg width="24px" height="24px" viewBox="0 0 24 24" version="1.1" xmlns="http://www.w3.org/2000/svg" xmlns:xlink="http://www.w3.org/1999/xlink">
    <!-- Generator: Sketch 51 (57462) - http://www.bohemiancoding.com/sketch -->
    <title>Icons / Feather / care</title>
    <desc>Created with Sketch.</desc>
    <defs>
        <path d="M21.6029376,3.84270478 L11.5567909,2.01613266 C11.3510651,1.97872797 11.1387894,2.00675249 10.9498191,2.09626473 L3.24771824,5.7446283 C3.04134248,5.84238524 2.94660426,6.08380359 3.03141429,6.29582866 C3.10956088,6.49119514 3.32868245,6.58924849 3.52643015,6.51734024 L7.36271585,5.12232725 C7.81278443,4.68588309 8.42648612,4.41721934 9.10293759,4.41721934 L13.6029376,4.41721934 L13.6029376,6.41721934 L9.10293759,6.41721934 C8.82679522,6.41721934 8.60293759,6.64107696 8.60293759,6.91721934 C8.60293759,7.19336171 8.82679522,7.41721934 9.10293759,7.41721934 L11.7824725,7.41721934 C12.1993185,7.41721934 12.6057474,7.54746561 12.9449489,7.7897524 L15.8581472,9.87060828 L21.6029376,9.04992394 L21.6029376,3.84270478 Z M21.5750215,1.80484006 C21.5843238,1.8047102 21.5936294,1.80464523 21.6029376,1.80464523 C22.7075071,1.80464523 23.6029376,2.70007573 23.6029376,3.80464523 L23.6029376,9.04992394 C23.6029376,10.0452247 22.8710778,10.8890661 21.8857803,11.0298229 L16.1409899,11.8505073 C15.6318222,11.9232455 15.114204,11.7970275 14.6956708,11.4980752 L11.7824725,9.41721934 L9.10293759,9.41721934 C7.92351237,9.41721934 6.93484382,8.60049293 6.67164488,7.50175304 L4.20991627,8.39692708 C2.99732014,8.83787113 1.65365866,8.2366044 1.1744609,7.03861001 C0.697257494,5.84560149 1.23032421,4.48720483 2.39154555,3.93715262 L10.0936464,0.288789049 C10.6605572,0.0202523422 11.2973844,-0.0638212238 11.9145618,0.0483928357 L21.5750215,1.80484006 Z M2,20.0279104 L12.0461467,21.8544825 C12.2518725,21.8918872 12.4641482,21.8638627 12.6531185,21.7743505 L20.3552194,18.1259869 C20.5615951,18.02823 20.6563333,17.7868116 20.5715233,17.5747865 C20.4933767,17.3794201 20.2742551,17.2813667 20.0765074,17.353275 L16.2402217,18.7482879 C15.7901532,19.1847321 15.1764515,19.4533959 14.5,19.4533959 L10,19.4533959 L10,17.4533959 L14.5,17.4533959 C14.7761424,17.4533959 15,17.2295382 15,16.9533959 C15,16.6772535 14.7761424,16.4533959 14.5,16.4533959 L11.8204651,16.4533959 C11.4036191,16.4533959 10.9971902,16.3231496 10.6579887,16.0808628 L7.74479042,14.0000069 L2,14.8206913 L2,20.0279104 Z M2.02791611,22.0657751 C2.01861382,22.065905 2.00930823,22.06597 2,22.06597 C0.8954305,22.06597 0,21.1705395 0,20.06597 L0,14.8206913 C0,13.8253905 0.731859811,12.9815491 1.71715729,12.8407923 L7.46194771,12.0201079 C7.97111537,11.9473697 8.48873357,12.0735877 8.90726681,12.37254 L11.8204651,14.4533959 L14.5,14.4533959 C15.6794252,14.4533959 16.6680938,15.2701223 16.9312927,16.3688621 L19.3930213,15.4736881 C20.6056175,15.0327441 21.9492789,15.6340108 22.4284767,16.8320052 C22.9056801,18.0250137 22.3726134,19.3834104 21.211392,19.9334626 L13.5092912,23.5818261 C12.9423803,23.8503629 12.3055531,23.9344364 11.6883758,23.8222224 L2.02791611,22.0657751 Z" id="path-1"></path>
    </defs>
    <g id="Icons-/-Feather-/-care" stroke="none" stroke-width="1" fill="none" fill-rule="evenodd">
        <mask id="mask-2" fill="white">
            <use xlink:href="#path-1"></use>
        </mask>
        <g id="Mask"></g>
        <g id="Colors-/-UI-Grays-/-01.-Payne's-grey" mask="url(#mask-2)" fill="#3A3D42">
            <rect id="Color" x="-2.84e-14" y="-5.68e-14" width="24" height="24"></rect>
        </g>
    </g>
</svg>