<svg
  viewBox="0 0 24 24"
  xmlns="http://www.w3.org/2000/svg"
  fill-rule="evenodd"
  clip-rule="evenodd"
  width="24"
  height="24"
  fill="none"
  stroke="currentColor"
  stroke-width="2"
  stroke-linecap="round"
  stroke-linejoin="round"
>
  <path d="M12.89 1.45l8 4A2 2 0 0 1 22 7.24v9.53a2 2 0 0 1-1.11 1.79l-8 4a2 2 0 0 1-1.79 0l-8-4a2.004 2.004 0 0 1-1.1-1.8V7.24a2 2 0 0 1 1.11-1.79l8-4a2.004 2.004 0 0 1 1.78 0z" />
  <path d="M2.32 6.16L12 11l9.68-4.84" />
  <path d="M12 22.76V11" />
  <path
    d="M12 22.76V11L8.11 4.74"
    transform="matrix(1 0 0 .41157 -5.79 10.748)"
  />
  <path
    d="M12 22.76V11L7.79 4.74"
    transform="matrix(-1 0 0 .41157 29.79 10.748)"
  />
  <path d="M16.741 3.376L12 6 7.099 3.455" />
</svg>
