<svg xmlns="http://www.w3.org/2000/svg" width="24" height="24" viewBox="0 0 24 24" fill="none" stroke="#000" stroke-width="2" stroke-linecap="round" stroke-linejoin="round">
  <path d="M19.4,15v0a1.65,1.65,0,0,0,.33,1.82l.06.06a2,2,0,0,1,0,2.83h0a2,2,0,0,1-2.83,0l-.06-.06a1.65,1.65,0,0,0-1.82-.33h0a1.65,1.65,0,0,0-1,1.51V21a2,2,0,0,1-2,2h0a2,2,0,0,1-2-2v-.09A1.65,1.65,0,0,0,9,19.4h0a1.65,1.65,0,0,0-1.82.33l-.06.06a2,2,0,0,1-2.83,0h0a2,2,0,0,1,0-2.83l.06-.06a1.65,1.65,0,0,0,.33-1.82v0a1.65,1.65,0,0,0-1.51-1H3a2,2,0,0,1-2-2H1a2,2,0,0,1,2-2h.09A1.65,1.65,0,0,0,4.6,9v0a1.65,1.65,0,0,0-.33-1.82l-.06-.06a2,2,0,0,1,0-2.83h0a2,2,0,0,1,2.83,0l.06.06a1.65,1.65,0,0,0,1.82.33H9a1.65,1.65,0,0,0,1-1.51V3a2,2,0,0,1,2-2h0a2,2,0,0,1,2,2v.09A1.65,1.65,0,0,0,15,4.6h0a1.65,1.65,0,0,0,1.82-.33l.06-.06a2,2,0,0,1,2.83,0h0a2,2,0,0,1,0,2.83l-.06.06a1.65,1.65,0,0,0-.33,1.82V9a1.65,1.65,0,0,0,1.51,1H21a2,2,0,0,1,2,2h0a2,2,0,0,1-2,2h-.09A1.65,1.65,0,0,0,19.4,15Z"/>
  <circle cx="12" cy="12" r="3"/>
</svg>