<?xml version="1.0" encoding="UTF-8"?>
<svg width="24px" height="24px" viewBox="0 0 24 24" version="1.1" xmlns="http://www.w3.org/2000/svg" xmlns:xlink="http://www.w3.org/1999/xlink">
    <!-- Generator: Sketch 51 (57462) - http://www.bohemiancoding.com/sketch -->
    <title>Icons / Feather / crash</title>
    <desc>Created with Sketch.</desc>
    <defs>
        <path d="M1,6 L3.5,6 C3.8147573,6 4.11114562,6.14819416 4.3,6.4 L6.45454545,9.27272727 L11.2208631,9.80231812 C12.2337284,9.91485871 13,10.7709872 13,11.7900856 L13,16 C13,16.5522847 12.5522847,17 12,17 L10.8292943,17 C10.4174579,18.1651924 9.30621883,19 8,19 C6.69378117,19 5.58254212,18.1651924 5.17070571,17 L1,17 C0.44771525,17 6.76353751e-17,16.5522847 0,16 C-6.76353751e-17,15.4477153 0.44771525,15 1,15 L5.17070571,15 C5.58254212,13.8348076 6.69378117,13 8,13 C9.30621883,13 10.4174579,13.8348076 10.8292943,15 L11,15 L11,11.7900856 L6.2336824,11.2604947 C5.68494161,11.1995235 5.18581607,10.9144214 4.85454545,10.4727273 L3,8 L1,8 C0.44771525,8 2.48017415e-12,7.55228475 0,7 C-6.76353751e-17,6.44771525 0.44771525,6 1,6 Z M8,17 C8.55228475,17 9,16.5522847 9,16 C9,15.4477153 8.55228475,15 8,15 C7.44771525,15 7,15.4477153 7,16 C7,16.5522847 7.44771525,17 8,17 Z M12,4 C12.5522847,4 13,4.44771525 13,5 L13,7 C13,7.55228475 12.5522847,8 12,8 C11.4477153,8 11,7.55228475 11,7 L11,5 C11,4.44771525 11.4477153,4 12,4 Z M17.5355339,5.70710678 C17.9260582,6.09763107 17.9260582,6.73079605 17.5355339,7.12132034 L16.1213203,8.53553391 C15.7307961,8.9260582 15.0976311,8.9260582 14.7071068,8.53553391 C14.3165825,8.14500961 14.3165825,7.51184464 14.7071068,7.12132034 L16.1213203,5.70710678 C16.5118446,5.31658249 17.1450096,5.31658249 17.5355339,5.70710678 Z M20,11 C20,11.5522847 19.5522847,12 19,12 L17,12 C16.4477153,12 16,11.5522847 16,11 C16,10.4477153 16.4477153,10 17,10 L19,10 C19.5522847,10 20,10.4477153 20,11 Z M17.5355339,16.5355339 C17.1450096,16.9260582 16.5118446,16.9260582 16.1213203,16.5355339 L14.7071068,15.1213203 C14.3165825,14.7307961 14.3165825,14.0976311 14.7071068,13.7071068 C15.0976311,13.3165825 15.7307961,13.3165825 16.1213203,13.7071068 L17.5355339,15.1213203 C17.9260582,15.5118446 17.9260582,16.1450096 17.5355339,16.5355339 Z" id="path-1"></path>
    </defs>
    <g id="Icons-/-Feather-/-crash" stroke="none" stroke-width="1" fill="none" fill-rule="evenodd">
        <mask id="mask-2" fill="white">
            <use xlink:href="#path-1"></use>
        </mask>
        <g id="Mask" fill-rule="nonzero"></g>
        <g id="Colors-/-UI-Grays-/-01.-Payne's-grey" mask="url(#mask-2)" fill="#3A3D42">
            <rect id="Color" x="-2.84e-14" y="-5.68e-14" width="24" height="24"></rect>
        </g>
    </g>
</svg>