<?xml version="1.0" encoding="UTF-8"?>
<svg width="24px" height="24px" viewBox="0 0 24 24" version="1.1" xmlns="http://www.w3.org/2000/svg" xmlns:xlink="http://www.w3.org/1999/xlink">
    <!-- Generator: Sketch 51 (57462) - http://www.bohemiancoding.com/sketch -->
    <title>Icons / Feather / damage</title>
    <desc>Created with Sketch.</desc>
    <defs>
        <path d="M15,12.4142136 L12.106709,15.3075046 C11.7161847,15.6980289 11.0830197,15.6980289 10.6924954,15.3075046 L7.29289322,11.9079024 C6.90236893,11.5173781 6.90236893,10.8842132 7.29289322,10.4936889 C7.68341751,10.1031646 8.31658249,10.1031646 8.70710678,10.4936889 L11.3996022,13.1861843 L13.5857864,11 L12.2928932,9.70710678 C11.9023689,9.31658249 11.9023689,8.68341751 12.2928932,8.29289322 L14.05129,6.53449648 C14.4418143,6.14397219 15.0749792,6.14397219 15.4655035,6.53449648 C15.8560278,6.92502077 15.8560278,7.55818575 15.4655035,7.94871004 L14.4142136,9 L17.0911387,11.6769251 L18.9882772,9.77978658 L18.9806719,3 L5,3 L5,20.1671759 L6.04371836,19.3814928 C6.35396748,19.1491318 6.74497408,19.1491318 7.05522319,19.3814928 L9.31017027,21 L11.4942476,19.4286338 C11.8044967,19.1962728 12.1955033,19.1962728 12.5057524,19.4286338 L14.5867464,21 L16.9318914,19.4050633 C17.2389742,19.1790798 17.623428,19.1790798 17.9305108,19.4050633 L19,20.2300306 L18.9914465,12.6050444 L17.7982455,13.7982455 C17.4077212,14.1887698 16.7745562,14.1887698 16.3840319,13.7982455 L15,12.4142136 Z M20.9999997,10.1815212 C21.0000001,10.1820253 21.0000001,10.1825294 20.9999997,10.1830336 L20.9999997,21.8172818 C21.0002702,22.2296662 20.8073446,22.6095822 20.4964346,22.8089202 C20.1855245,23.0082583 19.8058456,22.9954642 19.5054149,22.7755257 L17.4259926,21.2664802 L15.0801442,22.8207971 C14.7720274,23.0347958 14.387539,23.0347958 14.0794222,22.8207971 L11.9935017,21.3117516 L9.80361,22.8207971 C9.49549323,23.0347958 9.11100476,23.0347958 8.802888,22.8207971 L6.54801438,21.3117516 L4.50108301,22.8207971 C4.20135364,23.0440848 3.82060864,23.0598061 3.50797671,22.8618032 C3.19534478,22.6638004 3.00059262,22.2835927 3,21.8700984 L3,2.13178408 C3,1.50671699 3.43640114,1 3.97472923,1 L20.0252705,1 C20.5635986,1 20.9999997,1.50671699 20.9999997,2.13178408 L20.9999997,10.1815212 Z" id="path-1"></path>
    </defs>
    <g id="Icons-/-Feather-/-damage" stroke="none" stroke-width="1" fill="none" fill-rule="evenodd">
        <mask id="mask-2" fill="white">
            <use xlink:href="#path-1"></use>
        </mask>
        <g id="Mask"></g>
        <g id="Colors-/-UI-Grays-/-01.-Payne's-grey" mask="url(#mask-2)" fill="#3A3D42">
            <rect id="Color" x="-2.84e-14" y="-5.68e-14" width="24" height="24"></rect>
        </g>
    </g>
</svg>