<svg
  width="24"
  height="24"
  viewBox="0 0 24 24"
  xmlns="http://www.w3.org/2000/svg"
  fill="none"
  stroke="currentColor"
  stroke-width="2"
  stroke-linecap="round"
  stroke-linejoin="round"
>
  <path
    fill-rule="evenodd"
    clip-rule="evenodd"
    d="M1 3.538A2.538 2.538 0 0 1 3.538 1h16.924A2.538 2.538 0 0 1 23 3.538v16.924A2.538 2.538 0 0 1 20.462 23H3.538A2.538 2.538 0 0 1 1 20.462V3.538zm2.538-.846a.846.846 0 0 0-.846.846v16.924c0 .467.38.846.846.846h16.924a.846.846 0 0 0 .846-.846V3.538a.846.846 0 0 0-.846-.846H3.538z"
  />
  <path d="M9.25 7.417a1.833 1.833 0 1 1-3.667 0 1.833 1.833 0 0 1 3.667 0z" />
  <path d="M13.833 12a1.833 1.833 0 1 1-3.666 0 1.833 1.833 0 0 1 3.666 0z" />
  <path d="M9.25 16.583a1.833 1.833 0 1 1-3.667 0 1.833 1.833 0 0 1 3.667 0z" />
  <path d="M18.417 7.417a1.833 1.833 0 1 1-3.667 0 1.833 1.833 0 0 1 3.667 0z" />
  <path d="M18.417 16.583a1.833 1.833 0 1 1-3.667 0 1.833 1.833 0 0 1 3.667 0z" />
</svg>
