<svg width="24" height="24" viewBox="0 0 24 24" fill="none" xmlns="http://www.w3.org/2000/svg">
<path d="M8.75 6V5V6ZM7 7.6H6H7ZM7 20.4H6H7ZM8.75 5C8.04814 5 7.35898 5.25409 6.83779 5.7306L8.18733 7.20666C8.32253 7.08305 8.52361 7 8.75 7V5ZM6.83779 5.7306C6.31362 6.20985 6 6.88005 6 7.6L8 7.6C8 7.47126 8.05513 7.32753 8.18733 7.20666L6.83779 5.7306ZM6 7.6V20.4H8V7.6H6ZM6 20.4C6 21.12 6.31362 21.7902 6.83779 22.2694L8.18733 20.7933C8.05513 20.6725 8 20.5287 8 20.4H6ZM6.83779 22.2694C7.35898 22.7459 8.04814 23 8.75 23V21C8.52361 21 8.32253 20.9169 8.18733 20.7933L6.83779 22.2694ZM8.75 23H19.25V21H8.75V23ZM19.25 23C19.9519 23 20.641 22.7459 21.1622 22.2694L19.8127 20.7933C19.6775 20.9169 19.4764 21 19.25 21V23ZM21.1622 22.2694C21.6864 21.7902 22 21.12 22 20.4H20C20 20.5287 19.9449 20.6725 19.8127 20.7933L21.1622 22.2694ZM22 20.4V8H20V20.4H22ZM19 5H8.75V7H19V5ZM22 8C22 6.34315 20.6569 5 19 5V7C19.5523 7 20 7.44772 20 8H22Z" fill="black"/>
<path d="M17 14H11" stroke="black" stroke-width="2" stroke-linecap="round" stroke-linejoin="round"/>
<path d="M17 18H11" stroke="black" stroke-width="2" stroke-linecap="round" stroke-linejoin="round"/>
<path d="M13 10H12H11" stroke="black" stroke-width="2" stroke-linecap="round" stroke-linejoin="round"/>
<path d="M6.66667 19C7.21895 19 7.66667 18.5523 7.66667 18C7.66667 17.4477 7.21895 17 6.66667 17V19ZM16 6C16 6.55228 16.4477 7 17 7C17.5523 7 18 6.55228 18 6H16ZM4 16V4H2V16H4ZM5 3H15V1H5V3ZM5 19H6.66667V17H5V19ZM16 4V6H18V4H16ZM15 3C15.5523 3 16 3.44772 16 4H18C18 2.34315 16.6569 1 15 1V3ZM4 4C4 3.44772 4.44772 3 5 3V1C3.34315 1 2 2.34315 2 4H4ZM2 16C2 17.6569 3.34315 19 5 19V17C4.44772 17 4 16.5523 4 16H2Z" fill="black"/>
</svg>
