<svg
  width="24"
  height="24"
  viewBox="0 0 24 24"
  xmlns="http://www.w3.org/2000/svg"
  fill="none"
  stroke="currentColor"
  stroke-width="2"
  stroke-linecap="round"
  stroke-linejoin="round"
>
  <path d="M8.75 6c-.464 0-.91.169-1.237.469C7.184 6.769 7 7.176 7 7.6v12.8c0 .424.184.831.513 1.131.328.3.773.469 1.237.469h10.5c.464 0 .91-.169 1.237-.469.329-.3.513-.707.513-1.131V8a2 2 0 0 0-2-2H8.75z" />
  <path d="M7 18H4.75c-.464 0-.91-.169-1.237-.469A1.534 1.534 0 0 1 3 16.4V3.6c0-.424.184-.831.513-1.131C3.84 2.169 4.286 2 4.75 2H15a2 2 0 0 1 2 2v2" />
  <path d="M17 14h-6" />
  <path d="M17 18h-6" />
  <path d="M13 10h-2" />
</svg>
