<?xml version="1.0" encoding="UTF-8"?>
<svg width="24px" height="24px" viewBox="0 0 24 24" version="1.1" xmlns="http://www.w3.org/2000/svg" xmlns:xlink="http://www.w3.org/1999/xlink">
    <!-- Generator: Sketch 51 (57462) - http://www.bohemiancoding.com/sketch -->
    <title>Icons / Feather / door</title>
    <desc>Created with Sketch.</desc>
    <defs>
        <path d="M4,8.75560563 L4,14.2869383 C7.49396744,15.0260383 10.273056,17.6651081 11.0512967,21.031314 C11.0452516,21.0116578 13.5928277,21.0012198 18.694025,21 C19.439166,21 19.999442,20.4644644 19.999442,19.8526466 L19.9998139,4.10878492 C20.0111165,3.52278622 19.4680037,3 18.7274131,3 L10.1132962,3 C10.0765038,3 10.0699439,3.00255878 10.0534369,3.01810907 L4,8.75560563 Z M18.7274131,1 C20.5637558,1 22.03283,2.41630901 21.999442,4.14735336 L21.999442,19.8526466 C21.999442,21.583691 20.5303678,23 18.694025,23 L11.0481616,23 C10.1132962,23 9.31198296,22.3705293 9.11165466,21.5207439 C8.51066976,18.8769671 6.30705845,16.7997139 3.5358503,16.2331903 C2.63437295,16.0443491 2,15.2889843 2,14.4077253 L2,8.6795422 C2,8.17596567 2.2003283,7.70386266 2.56759685,7.35765379 L8.67761001,1.56652361 C9.07826661,1.1888412 9.57908736,1 10.1132962,1 L18.7274131,1 Z M16.8055556,5 C17.5,5 18,5.48 18,6.08 L18,9.56 C18,10.304 17.4444444,11 16.6111111,11 L9.11111111,11 C8.5,11 8,10.448 8,9.92 L8,8.5 C9.41666667,7.276 10.5833333,6.224 12,5 C14.7407407,5 16.3425926,5 16.8055556,5 Z M15,13 L17,13 C17.5522847,13 18,13.4477153 18,14 C18,14.5522847 17.5522847,15 17,15 L15,15 C14.4477153,15 14,14.5522847 14,14 C14,13.4477153 14.4477153,13 15,13 Z" id="path-1"></path>
    </defs>
    <g id="Icons-/-Feather-/-door" stroke="none" stroke-width="1" fill="none" fill-rule="evenodd">
        <mask id="mask-2" fill="white">
            <use xlink:href="#path-1"></use>
        </mask>
        <g id="Mask" fill-rule="nonzero"></g>
        <g id="Colors-/-UI-Grays-/-01.-Payne's-grey" mask="url(#mask-2)" fill="#3A3D42">
            <rect id="Color" x="-2.84e-14" y="-5.68e-14" width="24" height="24"></rect>
        </g>
    </g>
</svg>