<?xml version="1.0" encoding="UTF-8"?>
<svg width="24px" height="24px" viewBox="0 0 24 24" version="1.1" xmlns="http://www.w3.org/2000/svg" xmlns:xlink="http://www.w3.org/1999/xlink">
    <!-- Generator: Sketch 51 (57462) - http://www.bohemiancoding.com/sketch -->
    <title>Icons / Feather / engine</title>
    <desc>Created with Sketch.</desc>
    <defs>
        <path d="M9.92893219,9 L7.51471863,11.4142136 C7.13964587,11.7892863 6.63093804,12 6.10050506,12 L6,12 L6,16 L6.10050506,16 C6.63093804,16 7.13964587,16.2107137 7.51471863,16.5857864 L9.92893219,19 L14.0710678,19 L16.4852814,16.5857864 C16.8603541,16.2107137 17.369062,16 17.8994949,16 L18,16 L18,9 L9.92893219,9 Z M12,6 L10,6 C9.44771525,6 9,5.55228475 9,5 C9,4.44771525 9.44771525,4 10,4 L16,4 C16.5522847,4 17,4.44771525 17,5 C17,5.55228475 16.5522847,6 16,6 L14,6 L14,7 L19,7 C19.5522847,7 20,7.44771525 20,8 L20,12 L21,12 L21,10 C21,9.44771525 21.4477153,9 22,9 C22.5522847,9 23,9.44771525 23,10 L23,16 C23,16.5522847 22.5522847,17 22,17 C21.4477153,17 21,16.5522847 21,16 L21,14 L20,14 L20,17 C20,17.5522847 19.5522847,18 19,18 L17.8994949,18 L15.1923882,20.7071068 C15.0048518,20.8946432 14.7504979,21 14.4852814,21 L9.51471863,21 C9.24950214,21 8.99514822,20.8946432 8.80761184,20.7071068 L6.10050506,18 L5,18 C4.44771525,18 4,17.5522847 4,17 L4,15 L3,15 L3,17 C3,17.5522847 2.55228475,18 2,18 C1.44771525,18 1,17.5522847 1,17 L1,11 C1,10.4477153 1.44771525,10 2,10 C2.55228475,10 3,10.4477153 3,11 L3,13 L4,13 L4,11 C4,10.4477153 4.44771525,10 5,10 L6.10050506,10 L8.80761184,7.29289322 C8.99514822,7.10535684 9.24950214,7 9.51471863,7 L12,7 L12,6 Z" id="path-1"></path>
    </defs>
    <g id="Icons-/-Feather-/-engine" stroke="none" stroke-width="1" fill="none" fill-rule="evenodd">
        <mask id="mask-2" fill="white">
            <use xlink:href="#path-1"></use>
        </mask>
        <g id="Mask" fill-rule="nonzero"></g>
        <g id="Colors-/-UI-Grays-/-01.-Payne's-grey" mask="url(#mask-2)" fill="#3A3D42">
            <rect id="Color" x="-2.84e-14" y="-5.68e-14" width="24" height="24"></rect>
        </g>
    </g>
</svg>