<svg
  width="24"
  height="24"
  viewBox="0 0 24 24"
  xmlns="http://www.w3.org/2000/svg"
  fill="none"
  stroke="currentColor"
  stroke-width="2"
  stroke-linecap="round"
  stroke-linejoin="round"
>
  <path d="M12 2C6.651 2 2 6.134 2 11.215c0 2.455 1.043 4.812 2.878 6.54a.1.1 0 0 1 .032.073v4.01a.1.1 0 0 0 .145.09l3.778-1.888a.1.1 0 0 1 .072-.007 10.13 10.13 0 0 0 2.795.397c5.349 0 10.3-4.134 10.3-9.215C22 6.135 17.349 2 12 2zm.896 11.982a.1.1 0 0 1-.134.007l-2.712-2.17a.1.1 0 0 0-.103-.013l-4.593 2.042c-.1.044-.188-.08-.114-.16l5.195-5.618a.1.1 0 0 1 .138-.01l2.88 2.4a.1.1 0 0 0 .103.016l4.462-1.89c.1-.043.187.085.11.163l-5.232 5.232z" />
</svg>
