<svg id="Layer_1" data-name="Layer 1" xmlns="http://www.w3.org/2000/svg" viewBox="0 0 24 24"><title>file</title><path d="M20.92,7.62a.93.93,0,0,0-.21-.33l-6-6a1,1,0,0,0-.32-.21A1.09,1.09,0,0,0,14,1H6A3,3,0,0,0,3,4V20a3,3,0,0,0,3,3H18a3,3,0,0,0,3-3V8A1,1,0,0,0,20.92,7.62ZM15,4.41,17.59,7H15ZM18,21H6a1,1,0,0,1-1-1V4A1,1,0,0,1,6,3h7V8a1,1,0,0,0,1,1h5V20A1,1,0,0,1,18,21Z"/><path d="M11.38,12.56a1,1,0,0,0,.7.29,1,1,0,0,0,.39-.07,1.07,1.07,0,0,0,.54-.54,1,1,0,0,0,.08-.39,1,1,0,0,0-.08-.38,1,1,0,0,0-1.63-.32.87.87,0,0,0-.22.32,1,1,0,0,0-.08.38,1,1,0,0,0,.08.39A.87.87,0,0,0,11.38,12.56Z"/><path d="M14.79,12.56a1,1,0,0,0,.7.29,1,1,0,0,0,.38-.07,1.06,1.06,0,0,0,.33-.22,1,1,0,0,0,.22-.32,1,1,0,0,0,.07-.39.93.93,0,0,0-.29-.7L16.05,11a1,1,0,0,0-.18-.09,1,1,0,0,0-.18-.06,1,1,0,0,0-.9.28.87.87,0,0,0-.22.32,1,1,0,0,0-.08.38,1,1,0,0,0,.08.39A.87.87,0,0,0,14.79,12.56Z"/><path d="M13,18.2,12.92,18a.64.64,0,0,0-.13-.15.93.93,0,0,0-.15-.13l-.17-.09a1.39,1.39,0,0,0-.19-.06,1,1,0,0,0-.9.28.64.64,0,0,0-.13.15l-.09.17-.06.19a1.23,1.23,0,0,0,0,.19,1,1,0,0,0,.3.71,1,1,0,0,0,.32.22,1,1,0,0,0,1.38-.93.62.62,0,0,0,0-.19A1.05,1.05,0,0,0,13,18.2Z"/><path d="M16.42,18.2a1,1,0,0,0-.1-.17.44.44,0,0,0-.12-.15,1,1,0,0,0-.9-.28,1.06,1.06,0,0,0-.19.06l-.17.09a1.39,1.39,0,0,0-.28.28.56.56,0,0,0-.09.17.6.6,0,0,0-.06.19,1.23,1.23,0,0,0,0,.19,1,1,0,0,0,.3.71,1,1,0,0,0,.32.22,1,1,0,0,0,.38.07,1,1,0,0,0,.71-.29,1,1,0,0,0,.29-.71.62.62,0,0,0,0-.19A1.05,1.05,0,0,0,16.42,18.2Z"/><path d="M15.55,14.22H9.45V11.86a1,1,0,0,0-2,0v6.73a1,1,0,0,0,2,0V16.22h6.1a1,1,0,1,0,0-2Z"/></svg>