<svg id="Layer_1" data-name="Layer 1" xmlns="http://www.w3.org/2000/svg" viewBox="0 0 24 24"><title>file</title><path d="M12.79,11.93a1,1,0,0,0,0-1.42,1,1,0,0,0-1.41,0,1.19,1.19,0,0,0-.22.33,1,1,0,0,0,.93,1.38A1,1,0,0,0,12.79,11.93Z"/><path d="M15.88,12.15a1,1,0,0,0,.32-.22,1,1,0,0,0,.22-1.09,1.19,1.19,0,0,0-.22-.33,1,1,0,0,0-1.41,0,1,1,0,0,0,0,1.42,1,1,0,0,0,.71.29A1,1,0,0,0,15.88,12.15Z"/><path d="M12.47,17a.7.7,0,0,0-.19-.06.86.86,0,0,0-.39,0,1.08,1.08,0,0,0-.36.15l-.15.12a1,1,0,0,0-.29.71,1,1,0,0,0,.07.38,1.19,1.19,0,0,0,.22.33,1,1,0,0,0,.71.29,1,1,0,0,0,.7-.29,1,1,0,0,0,.3-.71,1,1,0,0,0-.3-.71l-.15-.12A.56.56,0,0,0,12.47,17Z"/><path d="M15.11,17a1,1,0,0,0-.32.21,1,1,0,0,0-.3.71,1,1,0,0,0,1,1,.84.84,0,0,0,.38-.08.85.85,0,0,0,.32-.21,1,1,0,0,0,.3-.71A1,1,0,0,0,15.11,17Z"/><path d="M15.55,13.59H9.45V11.23a1,1,0,0,0-2,0V18a1,1,0,0,0,2,0V15.59h6.1a1,1,0,0,0,0-2Z"/><path d="M20,9.5a1,1,0,0,0,1-1V6.63s0,0,0-.06a1.07,1.07,0,0,0-.06-.27.61.61,0,0,0-.05-.12A.8.8,0,0,0,20.75,6l-.07-.09,0,0L15.21,1.24l-.12-.09h0a.72.72,0,0,0-.2-.09h0L14.71,1H4A1,1,0,0,0,3,2V22a1,1,0,0,0,1,1H20a1,1,0,0,0,1-1V19a1,1,0,0,0-2,0v2H5V3h8.56V6.63a1,1,0,0,0,1,1H19V8.5A1,1,0,0,0,20,9.5ZM15.56,5.63V4.16l1.72,1.47Z"/></svg>