<svg id="Layer_1" data-name="Layer 1" xmlns="http://www.w3.org/2000/svg" viewBox="0 0 24 24"><title>file</title><path d="M6.31,17.13a1.27,1.27,0,0,0,.26,1.51,1.23,1.23,0,0,0,.84.34,1.28,1.28,0,0,0,.53-.12,3.82,3.82,0,0,0,1.35-1.72,22.19,22.19,0,0,1,5.88-2.3c1.37.77,2.64,1.21,3.34.9a1.28,1.28,0,0,0,.71-1.5,2,2,0,0,0-2-1.56,6.1,6.1,0,0,0-1.67.07,17.05,17.05,0,0,1-3.91-3.23,9.69,9.69,0,0,0,.19-1.69A1.35,1.35,0,0,0,11,6.45,1.33,1.33,0,0,0,9.51,7c-.42.46-.93,1.45,0,3a39.42,39.42,0,0,1-1.81,5.74A4.2,4.2,0,0,0,6.31,17.13Zm4.83-5.28A22,22,0,0,0,13,13.37c-.85.27-1.72.6-2.54,1C10.68,13.51,10.93,12.66,11.14,11.85Z"/><path d="M20,9.5a1,1,0,0,0,1-1V6.63s0,0,0-.06a1.07,1.07,0,0,0-.06-.27.61.61,0,0,0-.05-.12A.8.8,0,0,0,20.75,6l-.07-.09,0,0L15.21,1.24l-.12-.09h0a.72.72,0,0,0-.2-.09h0L14.71,1H4A1,1,0,0,0,3,2V22a1,1,0,0,0,1,1H20a1,1,0,0,0,1-1V19a1,1,0,0,0-2,0v2H5V3h8.56V6.63a1,1,0,0,0,1,1H19V8.5A1,1,0,0,0,20,9.5ZM15.56,5.63V4.16l1.72,1.47Z"/></svg>