<svg id="Layer_1" data-name="Layer 1" xmlns="http://www.w3.org/2000/svg" viewBox="0 0 24 24"><title>file</title><path d="M16,13.39a5.9,5.9,0,0,0-1.53.07,17.54,17.54,0,0,1-3.26-2.79,8.4,8.4,0,0,0,.16-1.43,1.23,1.23,0,0,0-2.26-.82,2.16,2.16,0,0,0,0,2.76,35.19,35.19,0,0,1-1.56,5,3.73,3.73,0,0,0-1.27,1.23,1.24,1.24,0,0,0,.26,1.47,1.17,1.17,0,0,0,.82.33,1.34,1.34,0,0,0,.51-.11,3.54,3.54,0,0,0,1.27-1.64,20.53,20.53,0,0,1,5-1.87c1.22.67,2.35,1,3,.76a1.24,1.24,0,0,0,.7-1.45A1.92,1.92,0,0,0,16,13.39ZM10.6,9.71v0h0l-.74-.67Zm-.45,5c.19-.58.36-1.18.51-1.76.39.36.83.73,1.29,1.09C11.35,14.28,10.74,14.51,10.15,14.76Z"/><path d="M20.92,7.62a.93.93,0,0,0-.21-.33l-6-6a1,1,0,0,0-.32-.21A1.09,1.09,0,0,0,14,1H6A3,3,0,0,0,3,4V20a3,3,0,0,0,3,3H18a3,3,0,0,0,3-3V8A1,1,0,0,0,20.92,7.62ZM15,4.41,17.59,7H15ZM18,21H6a1,1,0,0,1-1-1V4A1,1,0,0,1,6,3h7V8a1,1,0,0,0,1,1h5V20A1,1,0,0,1,18,21Z"/></svg>