<svg id="Layer_1" data-name="Layer 1" xmlns="http://www.w3.org/2000/svg" viewBox="0 0 24 24"><title>file</title><path d="M20,9.94a1,1,0,0,0,1-1V7.07S21,7,21,7a1.31,1.31,0,0,0-.06-.27.37.37,0,0,0-.05-.11.86.86,0,0,0-.13-.2l-.07-.09,0,0L15.21,1.69a.47.47,0,0,0-.12-.09h0l-.2-.1h0l-.18,0h0a1.15,1.15,0,0,1-.16,0H4a1,1,0,0,0-1,1v20a1,1,0,0,0,1,1H20a1,1,0,0,0,1-1v-3a1,1,0,0,0-2,0v2H5v-18h8.56V7.07a1,1,0,0,0,1,1H19v.87A1,1,0,0,0,20,9.94ZM15.56,6.07V4.61l1.72,1.46Z"/><path d="M11.12,12.15A1,1,0,0,0,10,10.51a5,5,0,1,0,6.9,7,1,1,0,1,0-1.61-1.18,3,3,0,1,1-4.14-4.23Z"/><path d="M17.84,14.61a5.1,5.1,0,0,0-.31-1.74,5,5,0,0,0-4.69-3.26,1,1,0,0,0-1,1v4a1,1,0,0,0,1,1h4A1,1,0,0,0,17.84,14.61Zm-4-1V11.78a3,3,0,0,1,1.81,1.78l0,0Z"/></svg>