<svg id="Layer_1" data-name="Layer 1" xmlns="http://www.w3.org/2000/svg" viewBox="0 0 24 24"><title>file</title><path d="M20.92,7.62a.93.93,0,0,0-.21-.33l-6-6a1,1,0,0,0-.32-.21A1.09,1.09,0,0,0,14,1H6A3,3,0,0,0,3,4V20a3,3,0,0,0,3,3H18a3,3,0,0,0,3-3V8A1,1,0,0,0,20.92,7.62ZM15,4.41,17.59,7H15ZM18,21H6a1,1,0,0,1-1-1V4A1,1,0,0,1,6,3h7V8a1,1,0,0,0,1,1h5V20A1,1,0,0,1,18,21Z"/><path d="M12.26,10.69A4.62,4.62,0,0,0,7.65,15.3v2.4a1,1,0,0,0,2,.21,1,1,0,0,0,.49.14,1,1,0,0,0,1-1v-.93a1,1,0,0,0-1-1,1.1,1.1,0,0,0-.44.11,2.6,2.6,0,0,1,5.2,0,1,1,0,0,0-.48-.14,1,1,0,0,0-1,1v.93a1,1,0,0,0,1,1,1.06,1.06,0,0,0,.52-.16,1,1,0,0,0,1,.81,1,1,0,0,0,1-1V15.3A4.62,4.62,0,0,0,12.26,10.69Z"/></svg>