<svg id="Layer_1" data-name="Layer 1" xmlns="http://www.w3.org/2000/svg" viewBox="0 0 24 24"><title>file</title><path d="M20,6.35a1,1,0,0,0,1-1V2a1,1,0,0,0-1-1H4A1,1,0,0,0,3,2V22a1,1,0,0,0,1,1H20a1,1,0,0,0,1-1V19.18a1,1,0,0,0-2,0V21H5V3H19V5.35A1,1,0,0,0,20,6.35Z"/><path d="M10.61,8.77a1,1,0,0,0,.24-1.39,1,1,0,0,0-1.39-.25,5.94,5.94,0,1,0,8.21,8.38,1,1,0,0,0-1.62-1.18,3.94,3.94,0,1,1-5.44-5.56Z"/><path d="M18.81,12a5.83,5.83,0,0,0-.37-2.07,6,6,0,0,0-5.57-3.87,1,1,0,0,0-1,1V12a1,1,0,0,0,1,1h4.94A1,1,0,0,0,18.81,12Zm-4.94-1V8.19a4,4,0,0,1,2.7,2.44l.12.37Z"/></svg>