<svg id="Layer_1" data-name="Layer 1" xmlns="http://www.w3.org/2000/svg" viewBox="0 0 24 24"><title>file</title><path d="M20,6.35a1,1,0,0,0,1-1V2a1,1,0,0,0-1-1H4A1,1,0,0,0,3,2V22a1,1,0,0,0,1,1H20a1,1,0,0,0,1-1V19.18a1,1,0,0,0-2,0V21H5V3H19V5.35A1,1,0,0,0,20,6.35Z"/><path d="M12.79,9.76a1,1,0,0,0,.3-.7,1,1,0,0,0-.3-.71,1,1,0,0,0-1.41,0,1,1,0,0,0-.29.71,1,1,0,0,0,1,1A1,1,0,0,0,12.79,9.76Z"/><path d="M15.88,10a1.07,1.07,0,0,0,.54-.54,1,1,0,0,0,.08-.38,1,1,0,0,0-.3-.71,1,1,0,0,0-1.41,0,1,1,0,0,0-.29.71,1,1,0,0,0,1.38.92Z"/><path d="M12.64,15l-.17-.09-.19-.06a1,1,0,0,0-.57.06,1,1,0,0,0-.33.22,1,1,0,0,0-.22.32,1,1,0,0,0-.07.39,1,1,0,0,0,.07.38,1,1,0,0,0,.22.32,1,1,0,0,0,.71.29,1,1,0,0,0,.7-.29.87.87,0,0,0,.22-.32,1,1,0,0,0,.08-.38A1,1,0,0,0,13,15.4a.87.87,0,0,0-.22-.32A.64.64,0,0,0,12.64,15Z"/><path d="M14.79,15.08a1,1,0,0,0-.22.32,1,1,0,0,0-.08.39,1,1,0,0,0,.08.38,1.07,1.07,0,0,0,.54.54,1,1,0,0,0,.39.07,1,1,0,0,0,.38-.07.87.87,0,0,0,.32-.22,1,1,0,0,0,.3-.7,1,1,0,0,0-.08-.39,1,1,0,0,0-.22-.32A1,1,0,0,0,14.79,15.08Z"/><path d="M15.55,11.42H9.45V9.06a1,1,0,1,0-2,0v6.73a1,1,0,0,0,2,0V13.42h6.1a1,1,0,0,0,0-2Z"/></svg>