<svg id="Layer_1" data-name="Layer 1" xmlns="http://www.w3.org/2000/svg" viewBox="0 0 24 24"><title>file</title><path d="M6.62,16.53a1.3,1.3,0,0,0,.26,1.54,1.23,1.23,0,0,0,.86.35,1.28,1.28,0,0,0,.53-.12,4,4,0,0,0,1.42-1.85,24.87,24.87,0,0,1,6.46-2.53c1.48.84,2.84,1.32,3.6,1a1.31,1.31,0,0,0,.72-1.53,2.1,2.1,0,0,0-2.08-1.63,7,7,0,0,0-1.84.09,19,19,0,0,1-4.31-3.58,10.37,10.37,0,0,0,.22-1.86,1.3,1.3,0,0,0-2.39-.87c-.44.49-1,1.53.08,3.23a41.16,41.16,0,0,1-2,6.3A4.41,4.41,0,0,0,6.62,16.53Zm5.1-5.93A27.45,27.45,0,0,0,14,12.47a26.8,26.8,0,0,0-3.13,1.18C11.16,12.65,11.47,11.59,11.72,10.6Z"/><path d="M21,5.35V2a1,1,0,0,0-1-1H4A1,1,0,0,0,3,2V22a1,1,0,0,0,1,1H20a1,1,0,0,0,1-1V19.18a1,1,0,0,0-2,0V21H5V3H19V5.35a1,1,0,1,0,2,0Z"/></svg>