<svg id="Layer_1" data-name="Layer 1" xmlns="http://www.w3.org/2000/svg" viewBox="0 0 24 24"><title>file</title><path d="M20,9.5a1,1,0,0,0,1-1V6.63s0,0,0-.06a1.07,1.07,0,0,0-.06-.27.61.61,0,0,0-.05-.12A.8.8,0,0,0,20.75,6l-.07-.09,0,0L15.21,1.24l-.12-.09h0a.72.72,0,0,0-.2-.09h0L14.71,1H4A1,1,0,0,0,3,2V22a1,1,0,0,0,1,1H20a1,1,0,0,0,1-1V19a1,1,0,0,0-2,0v2H5V3h8.56V6.63a1,1,0,0,0,1,1H19V8.5A1,1,0,0,0,20,9.5ZM15.56,5.63V4.16l1.72,1.47Z"/><path d="M13.66,15.14v.93a1,1,0,0,0,1,1,1,1,0,0,0,.52-.17,1,1,0,0,0,1,.81,1,1,0,0,0,1-1v-2.4a4.6,4.6,0,0,0-9.2,0v2.4a1,1,0,0,0,1,1,1,1,0,0,0,1-.79.88.88,0,0,0,.48.15,1,1,0,0,0,1-1v-.93a1,1,0,0,0-1-1,1,1,0,0,0-.44.11,2.6,2.6,0,0,1,5.2,0,1,1,0,0,0-.48-.13A1,1,0,0,0,13.66,15.14Z"/></svg>