<svg id="Layer_1" data-name="Layer 1" xmlns="http://www.w3.org/2000/svg" viewBox="0 0 24 24"><title>file</title><path d="M17,16.5a1,1,0,0,0,1-1V12.7a5.21,5.21,0,0,0-10.41,0v2.8a1,1,0,1,0,2,0v0a1,1,0,0,0,1.69-.72V13.66a1,1,0,0,0-1.69-.72V12.7a3.21,3.21,0,0,1,6.41,0V13a1,1,0,0,0-1.73.67v1.09a1,1,0,0,0,1,1,1,1,0,0,0,.73-.32v.07A1,1,0,0,0,17,16.5Z"/><path d="M20,6.35a1,1,0,0,0,1-1V2a1,1,0,0,0-1-1H4A1,1,0,0,0,3,2V22a1,1,0,0,0,1,1H20a1,1,0,0,0,1-1V19.18a1,1,0,0,0-2,0V21H5V3H19V5.35A1,1,0,0,0,20,6.35Z"/></svg>