<svg id="Layer_1" data-name="Layer 1" xmlns="http://www.w3.org/2000/svg" viewBox="0 0 24 24"><title>file</title><path d="M15.38,11.08a1,1,0,0,0-1-1h-1.7a1,1,0,0,0,.21-.59,1,1,0,0,0-1-1H9.62a1,1,0,0,0,0,2h1.7a.94.94,0,0,0-.21.59,1,1,0,0,0,.3.71H9.62a1,1,0,1,0,0,2h1.7a.94.94,0,0,0-.21.59,1,1,0,0,0,.3.71H9.62a1,1,0,0,0,0,2h1.7a1,1,0,0,0-.21.59,1,1,0,0,0,1,1h2.27a1,1,0,1,0,0-2h-1.7a.94.94,0,0,0,.21-.59,1,1,0,0,0-.31-.71h1.8a1,1,0,0,0,0-2h-1.7a.94.94,0,0,0,.21-.59,1,1,0,0,0-.3-.71h1.79A1,1,0,0,0,15.38,11.08Z"/><path d="M20,9.5a1,1,0,0,0,1-1V6.63s0,0,0-.06a1.07,1.07,0,0,0-.06-.27.37.37,0,0,0-.05-.11.69.69,0,0,0-.13-.2l-.07-.09,0,0L15.21,1.24l-.12-.08a.7.7,0,0,0-.23-.11h0l-.13,0h0a1.15,1.15,0,0,1-.18,0H4A1,1,0,0,0,3,2V22a1,1,0,0,0,1,1H20a1,1,0,0,0,1-1V19a1,1,0,0,0-2,0v2H5V3h8.56V6.63a1,1,0,0,0,1,1H19V8.5A1,1,0,0,0,20,9.5ZM15.56,5.63V4.16l1.72,1.47Z"/></svg>