<svg id="Layer_1" data-name="Layer 1" xmlns="http://www.w3.org/2000/svg" viewBox="0 0 24 24"><title>file</title><path d="M15.38,12a1,1,0,0,0-1-1h-1.7a.94.94,0,0,0,.21-.59,1,1,0,0,0-1-1H9.62a1,1,0,0,0,0,2h1.7a1,1,0,0,0-.21.59,1,1,0,0,0,.31.72H9.62a1,1,0,0,0,0,2h1.7a.92.92,0,0,0-.21.58,1,1,0,0,0,.3.72H9.62a1,1,0,1,0,0,2h1.7a.92.92,0,0,0-.21.58,1,1,0,0,0,1,1h2.27a1,1,0,1,0,0-2h-1.7a.92.92,0,0,0,.21-.58,1,1,0,0,0-.3-.72h1.79a1,1,0,1,0,0-2h-1.7a.92.92,0,0,0,.21-.58,1,1,0,0,0-.3-.72h1.79A1,1,0,0,0,15.38,12Z"/><path d="M20.92,7.61a1,1,0,0,0-.21-.32l-6-6a1,1,0,0,0-.32-.21A1.09,1.09,0,0,0,14,1H6A3,3,0,0,0,3,4V20a3,3,0,0,0,3,3H18a3,3,0,0,0,3-3V8A1.09,1.09,0,0,0,20.92,7.61ZM15,4.41,17.59,7H15ZM18,21H6a1,1,0,0,1-1-1V4A1,1,0,0,1,6,3h7V8a1,1,0,0,0,1,1h5V20A1,1,0,0,1,18,21Z"/></svg>