<svg id="Layer_1" data-name="Layer 1" xmlns="http://www.w3.org/2000/svg" viewBox="0 0 24 24"><title>file</title><path d="M20.92,7.62a.93.93,0,0,0-.21-.33l-6-6a1,1,0,0,0-.32-.21A1.09,1.09,0,0,0,14,1H6A3,3,0,0,0,3,4V20a3,3,0,0,0,3,3H18a3,3,0,0,0,3-3V8A1,1,0,0,0,20.92,7.62ZM15,4.41,17.59,7H15ZM18,21H6a1,1,0,0,1-1-1V4A1,1,0,0,1,6,3h7V8a1,1,0,0,0,1,1h5V20A1,1,0,0,1,18,21Z"/><path d="M14.42,16.78a3,3,0,1,1-4.14-4.23,1,1,0,0,0-1.15-1.64A5,5,0,1,0,16,18a1,1,0,1,0-1.61-1.18Z"/><path d="M12,10a1,1,0,0,0-1,1v4a1,1,0,0,0,1,1h4a1,1,0,0,0,1-1,4.87,4.87,0,0,0-.31-1.74A5,5,0,0,0,12,10Zm1,4V12.18A3,3,0,0,1,14.81,14l0,0Z"/></svg>