<svg
  xmlns="http://www.w3.org/2000/svg"
  width="24"
  height="24"
  viewBox="0 0 24 24"
  fill="none"
  stroke="currentColor"
  stroke-width="2"
  stroke-linecap="round"
  stroke-linejoin="round"
>
  <path d="M10.42 3A7.67 7.67 0 0 1 8.2 8C6.2 9.8 4 11.57 4 14.38c0 1.36.4 2.69 1.13 3.85A7.8 7.8 0 0 0 8.17 21c.76-2.1 3.83-3.17 3.83-5.57a7.85 7.85 0 0 1 2.63 2.33 7.36 7.36 0 0 1 1.3 3.2 7.78 7.78 0 0 0 2.97-2.77 7.3 7.3 0 0 0 1.1-3.81c.12-2.93-1.42-4.96-3.1-6.97-1.8-1.9-4-3.43-6.48-4.41z" />
</svg>
