<?xml version="1.0" encoding="UTF-8"?>
<svg width="24px" height="24px" viewBox="0 0 24 24" version="1.1" xmlns="http://www.w3.org/2000/svg" xmlns:xlink="http://www.w3.org/1999/xlink">
    <!-- Generator: Sketch 51 (57462) - http://www.bohemiancoding.com/sketch -->
    <title>Icons / Feather / gas pump</title>
    <desc>Created with Sketch.</desc>
    <defs>
        <path d="M17,10 L17,21.7180574 C17,22.1638168 16.9535872,22.3254599 16.8664336,22.4884229 C16.7792801,22.6513858 16.6513858,22.7792801 16.4884229,22.8664336 C16.3254599,22.9535872 16.1638168,23 15.7180574,23 L2.2819426,23 C1.83618323,23 1.67454011,22.9535872 1.51157715,22.8664336 C1.34861419,22.7792801 1.2207199,22.6513858 1.13356635,22.4884229 C1.04641281,22.3254599 1,22.1638168 1,21.7180574 L1,4.8458278 C1,3.50854969 1.13923842,3.02362033 1.40069906,2.53473144 C1.66215969,2.04584256 2.04584256,1.66215969 2.53473144,1.40069906 C3.02362033,1.13923842 3.50854969,1 4.8458278,1 L13.1541722,1 C14.4914503,1 14.9763797,1.13923842 15.4652686,1.40069906 C15.9541574,1.66215969 16.3378403,2.04584256 16.5993009,2.53473144 C16.8607616,3.02362033 17,3.50854969 17,4.8458278 L17,8 C18.6568542,8 20,9.34314575 20,11 L20,18.5 C20,18.7761424 20.2238576,19 20.5,19 C20.7761424,19 21,18.7761424 21,18.5 L21,7.27698396 L18.1425071,2.51449576 L19.8574929,1.48550424 L23,6.72301604 L23,18.5 C23,19.8807119 21.8807119,21 20.5,21 C19.1192881,21 18,19.8807119 18,18.5 L18,11 C18,10.4477153 17.5522847,10 17,10 Z M15,21 L15,4.8458278 C15,3.92853228 14.956676,3.70418221 14.8356745,3.47792916 C14.7606135,3.33757722 14.6624228,3.23938649 14.5220708,3.16432545 C14.2958178,3.043324 14.0714677,3 13.1541722,3 L4.8458278,3 C3.92853228,3 3.70418221,3.043324 3.47792916,3.16432545 C3.33757722,3.23938649 3.23938649,3.33757722 3.16432545,3.47792916 C3.043324,3.70418221 3,3.92853228 3,4.8458278 L3,21 L15,21 Z M6,5 L12,5 C12.5522847,5 13,5.44771525 13,6 L13,9 C13,9.55228475 12.5522847,10 12,10 L6,10 C5.44771525,10 5,9.55228475 5,9 L5,6 C5,5.44771525 5.44771525,5 6,5 Z" id="path-1"></path>
    </defs>
    <g id="Icons-/-Feather-/-gas-pump" stroke="none" stroke-width="1" fill="none" fill-rule="evenodd">
        <mask id="mask-2" fill="white">
            <use xlink:href="#path-1"></use>
        </mask>
        <g id="Mask" fill-rule="nonzero"></g>
        <g id="Colors-/-UI-Grays-/-01.-Payne's-grey" mask="url(#mask-2)" fill="#3A3D42">
            <rect id="Color" x="-2.84e-14" y="-5.68e-14" width="24" height="24"></rect>
        </g>
    </g>
</svg>