<svg xmlns="http://www.w3.org/2000/svg" width="24" height="24" viewBox="0 0 24 24" fill="none" stroke="currentColor" stroke-width="2" stroke-linecap="round" stroke-linejoin="round"><path class="st1" d="M15,11l4.61-3.69C19.86,7.11,20.17,7,20.5,7h0.09C21.37,7,22,7.63,22,8.41v0c0,0.38-0.15,0.73-0.41,1l-4.99,5.44c-0.38,0.41-0.91,0.65-1.47,0.65H9.33c-0.53,0-1.04,0.21-1.41,0.59L6,18"/><path class="st1" d="M11.5,12h2.05c0.29,0,0.58-0.1,0.8-0.29l0,0c0.6-0.5,0.6-1.42,0-1.92l0,0c-0.22-0.19-0.51-0.29-0.8-0.29H9.33c-0.53,0-1.04,0.21-1.41,0.59L3,15"/><line class="st1" x1="2" y1="14" x2="7" y2="19"/></svg>
