<?xml version="1.0" encoding="UTF-8"?>
<svg width="24px" height="24px" viewBox="0 0 24 24" version="1.1" xmlns="http://www.w3.org/2000/svg" xmlns:xlink="http://www.w3.org/1999/xlink">
    <!-- Generator: Sketch 51 (57462) - http://www.bohemiancoding.com/sketch -->
    <title>Icons / Feather / handshake</title>
    <desc>Created with Sketch.</desc>
    <defs>
        <path d="M17.627417,14.9983171 L14.3137085,18.3120256 C13.212061,19.4136731 11.6276962,19.7383989 10.2414735,19.2862029 C9.6551255,19.7101392 8.83134238,19.6580866 8.30330086,19.1300451 L4.06066017,14.8874044 C3.6455875,14.4723317 3.52462427,13.8745229 3.69777048,13.3529418 L3.34314575,12.9983171 L2,12.9983171 C1.44771525,12.9983171 1,12.5506019 1,11.9983171 L1,6.01257729 C1,5.46029254 1.44771525,5.01257729 2,5.01257729 C2.00471968,5.01257729 2.00943931,5.0126107 2.01415852,5.01267752 L10.7242037,5.1360112 C11.32104,5.14446236 11.8561695,5.41440605 12.2178239,5.83815847 L12.4882768,5.56634529 C12.5209041,5.53355389 12.5552405,5.50349789 12.5910008,5.476178 C12.7683777,5.19895123 13.0787762,5.01499977 13.4322656,5.01440537 L21.9983185,5.00000144 C22.5506025,4.99907277 22.9990699,5.44603455 22.9999986,5.99831852 L23,13.9983171 C23,14.5506019 22.5522847,14.9983171 22,14.9983171 L17.627417,14.9983171 Z M15.6664775,14.1308295 L14.0862774,11.7110351 L14.0076463,11.6275797 L13.030299,12.3068359 C11.9138399,12.8283979 10.5517207,12.6211056 9.63980064,11.7091856 L8.00389577,10.0732807 L10.7072277,7.35635227 L10.6958866,7.13581072 L3,7.02683747 L3,10.9983171 L3.75735931,10.9983171 C4.0225758,10.9983171 4.27692972,11.1036739 4.46446609,11.2912103 L5.02550168,11.8522459 C5.60548313,11.4840548 6.38307527,11.5529652 6.8890873,12.0589773 L11.131728,16.301618 C11.4550869,16.6249769 11.5999491,17.0592396 11.5663144,17.4819664 C12.0508219,17.4624412 12.5295839,17.2677231 12.8994949,16.897812 L15.6664775,14.1308295 Z M10.8287798,10.0697376 L11.0540142,10.294972 C11.425454,10.6664118 12.0209666,10.6871447 12.4173392,10.3424364 L13.4771398,9.42077329 C13.8938779,9.05835398 14.5255098,9.10238811 14.8879291,9.51912627 C14.9103507,9.54490839 14.9314362,9.57182273 14.9511026,9.59976336 L17.3432225,12.9983171 L21,12.9983171 L21,7.00168296 L13.8729541,7.01366718 L10.8287798,10.0697376 Z M5.82842712,13.1196374 L5.12132034,13.8267442 L9.36396103,18.0693849 L10.0710678,17.3622781 L5.82842712,13.1196374 Z" id="path-1"></path>
    </defs>
    <g id="Icons-/-Feather-/-handshake" stroke="none" stroke-width="1" fill="none" fill-rule="evenodd">
        <mask id="mask-2" fill="white">
            <use xlink:href="#path-1"></use>
        </mask>
        <g id="Mask" fill-rule="nonzero"></g>
        <g id="Colors-/-UI-Grays-/-01.-Payne's-grey" mask="url(#mask-2)" fill="#3A3D42">
            <rect id="Color" x="-2.84e-14" y="-5.68e-14" width="24" height="24"></rect>
        </g>
    </g>
</svg>