<?xml version="1.0" encoding="UTF-8" standalone="no"?>
<svg
   xmlns:dc="http://purl.org/dc/elements/1.1/"
   xmlns:cc="http://creativecommons.org/ns#"
   xmlns:rdf="http://www.w3.org/1999/02/22-rdf-syntax-ns#"
   xmlns:svg="http://www.w3.org/2000/svg"
   xmlns="http://www.w3.org/2000/svg"
   xmlns:sodipodi="http://sodipodi.sourceforge.net/DTD/sodipodi-0.dtd"
   xmlns:inkscape="http://www.inkscape.org/namespaces/inkscape"
   width="24"
   height="24"
   viewBox="0 0 24 24"
   version="1.1"
   id="svg6"
   sodipodi:docname="link.svg"
   inkscape:version="0.92.1 r">
  <metadata
     id="metadata12">
    <rdf:RDF>
      <cc:Work
         rdf:about="">
        <dc:format>image/svg+xml</dc:format>
        <dc:type
           rdf:resource="http://purl.org/dc/dcmitype/StillImage" />
      </cc:Work>
    </rdf:RDF>
  </metadata>
  <defs
     id="defs10" />
  <sodipodi:namedview
     pagecolor="#ffffff"
     bordercolor="#666666"
     borderopacity="1"
     objecttolerance="10"
     gridtolerance="10"
     guidetolerance="10"
     inkscape:pageopacity="0"
     inkscape:pageshadow="2"
     inkscape:window-width="640"
     inkscape:window-height="480"
     id="namedview8"
     showgrid="false"
     inkscape:zoom="9.8333333"
     inkscape:cx="12"
     inkscape:cy="12"
     inkscape:window-x="0"
     inkscape:window-y="22"
     inkscape:window-maximized="0"
     inkscape:current-layer="svg6" />
  <path
     style="color:#000000;font-style:normal;font-variant:normal;font-weight:normal;font-stretch:normal;font-size:medium;line-height:normal;font-family:sans-serif;font-variant-ligatures:normal;font-variant-position:normal;font-variant-caps:normal;font-variant-numeric:normal;font-variant-alternates:normal;font-feature-settings:normal;text-indent:0;text-align:start;text-decoration:none;text-decoration-line:none;text-decoration-style:solid;text-decoration-color:#000000;letter-spacing:normal;word-spacing:normal;text-transform:none;writing-mode:lr-tb;direction:ltr;text-orientation:mixed;dominant-baseline:auto;baseline-shift:baseline;text-anchor:start;white-space:normal;shape-padding:0;clip-rule:nonzero;display:inline;overflow:visible;visibility:visible;opacity:1;isolation:auto;mix-blend-mode:normal;color-interpolation:sRGB;color-interpolation-filters:linearRGB;solid-color:#000000;solid-opacity:1;vector-effect:none;fill:#000000;fill-opacity:1;fill-rule:nonzero;stroke:none;stroke-width:2;stroke-linecap:round;stroke-linejoin:miter;stroke-miterlimit:10;stroke-dasharray:none;stroke-dashoffset:0;stroke-opacity:1;color-rendering:auto;image-rendering:auto;shape-rendering:auto;text-rendering:auto;enable-background:accumulate"
     d="M 17.267578,0.99414062 C 15.756809,0.89505557 14.132302,1.4394511 12.775391,2.75 l -0.0059,0.00586 -1.724609,1.7148437 a 1.0001,1.0001 0 1 0 1.410156,1.4179688 l 1.708984,-1.6992188 0.0059,-0.00391 c 0.997466,-0.9607484 2.000842,-1.2586655 2.966797,-1.1953125 0.967854,0.063478 1.917285,0.5305668 2.634765,1.2480468 0.71748,0.7174801 1.18457,1.666911 1.248047,2.6347657 0.06335,0.9659547 -0.234564,1.9693306 -1.195312,2.9667969 -0.0019,0.00196 -0.002,0.0039 -0.0039,0.00586 l -2.988281,2.9863279 v 0.002 c -1.735426,1.736056 -4.560932,1.532051 -6.03125,-0.433593 a 1.0003906,1.0003906 0 1 0 -1.6015622,1.199218 c 2.1782792,2.912108 6.4777902,3.218455 9.0488282,0.646485 l 3.005859,-3.00586 0.0059,-0.0059 C 22.570315,9.8774636 23.11471,8.2529565 23.015625,6.7421875 22.91654,5.2314185 22.215439,3.8541112 21.185547,2.8242188 20.155654,1.7943263 18.778347,1.0932257 17.267578,0.99414062 Z"
     id="path2"
     inkscape:connector-curvature="0" />
  <path
     style="color:#000000;font-style:normal;font-variant:normal;font-weight:normal;font-stretch:normal;font-size:medium;line-height:normal;font-family:sans-serif;font-variant-ligatures:normal;font-variant-position:normal;font-variant-caps:normal;font-variant-numeric:normal;font-variant-alternates:normal;font-feature-settings:normal;text-indent:0;text-align:start;text-decoration:none;text-decoration-line:none;text-decoration-style:solid;text-decoration-color:#000000;letter-spacing:normal;word-spacing:normal;text-transform:none;writing-mode:lr-tb;direction:ltr;text-orientation:mixed;dominant-baseline:auto;baseline-shift:baseline;text-anchor:start;white-space:normal;shape-padding:0;clip-rule:nonzero;display:inline;overflow:visible;visibility:visible;opacity:1;isolation:auto;mix-blend-mode:normal;color-interpolation:sRGB;color-interpolation-filters:linearRGB;solid-color:#000000;solid-opacity:1;vector-effect:none;fill:#000000;fill-opacity:1;fill-rule:nonzero;stroke:none;stroke-width:2;stroke-linecap:round;stroke-linejoin:miter;stroke-miterlimit:10;stroke-dasharray:none;stroke-dashoffset:0;stroke-opacity:1;color-rendering:auto;image-rendering:auto;shape-rendering:auto;text-rendering:auto;enable-background:accumulate"
     d="M 10.423828,8.0195312 C 8.7554928,7.9000484 7.0374722,8.467921 5.7519531,9.7539062 l -3.0058593,3.0058598 -0.00586,0.0059 c -1.3105489,1.356911 -1.85494446,2.981419 -1.7558594,4.492187 0.0990851,1.510769 0.8001857,2.888077 1.8300781,3.917969 1.0298925,1.029893 2.4071998,1.730993 3.9179688,1.830078 1.5107689,0.09908 3.135276,-0.44531 4.4921871,-1.755859 l 0.0059,-0.0059 1.716797,-1.716797 A 1.0001,1.0001 0 1 0 11.533203,18.113281 L 9.8300781,19.814453 C 8.8326119,20.775202 7.8292359,21.073119 6.8632812,21.009766 5.8954266,20.946288 4.9459957,20.479199 4.2285156,19.761719 3.5110355,19.044239 3.0439463,18.094808 2.9804688,17.126953 c -0.063353,-0.965955 0.234564,-1.969331 1.1953124,-2.966797 0.00189,-0.002 0.00201,-0.0039 0.00391,-0.0059 l 2.9882813,-2.986328 v -0.002 c 1.735426,-1.7360558 4.5609322,-1.5320511 6.0312502,0.433593 a 1.0003905,1.0003905 0 1 0 1.601562,-1.199218 C 13.711642,8.9443369 12.092163,8.1390141 10.423828,8.0195312 Z"
     id="path4"
     inkscape:connector-curvature="0" />
</svg>
