<?xml version="1.0" encoding="UTF-8"?>
<svg width="24px" height="24px" viewBox="0 0 24 24" version="1.1" xmlns="http://www.w3.org/2000/svg" xmlns:xlink="http://www.w3.org/1999/xlink">
    <!-- Generator: Sketch 51 (57462) - http://www.bohemiancoding.com/sketch -->
    <title>Icons / Feather / lock eletric</title>
    <desc>Created with Sketch.</desc>
    <defs>
        <path d="M19,10 L18,10 L18,7 C18,3.7 15.3,1 12,1 C8.7,1 6,3.7 6,7 L6,10 L5,10 C3.3,10 2,11.3 2,13 L2,20 C2,21.7 3.3,23 5,23 L19,23 C20.7,23 22,21.7 22,20 L22,13 C22,11.3 20.7,10 19,10 Z M8,7 C8,4.8 9.8,3 12,3 C14.2,3 16,4.8 16,7 L16,10 L8,10 L8,7 Z M20,20 C20,20.6 19.6,21 19,21 L5,21 C4.4,21 4,20.6 4,20 L4,13 C4,12.4 4.4,12 5,12 L19,12 C19.6,12 20,12.4 20,13 L20,20 Z M14.9673244,15.7363636 C14.9073784,15.6090909 14.8174595,15.5454545 14.6975676,15.5454545 L12.3297027,15.5454545 L12.5994595,13.35 C12.6294324,13.2227273 12.5395135,13.0636364 12.4196216,13.0318182 C12.2997297,12.9681818 12.1498649,13 12.0599459,13.1272727 L9.06264861,16.9454545 C9.00270266,17.0409091 8.97272969,17.1681818 9.03267563,17.2954545 C9.09262158,17.3909091 9.1825405,17.4545455 9.3024324,17.4545455 L11.6702973,17.4545455 L11.4005405,19.65 C11.3705676,19.7772727 11.4604865,19.9363636 11.5803784,19.9681818 C11.6103513,20 11.6702973,20 11.7002703,20 C11.7901892,20 11.8801081,19.9681818 11.9400541,19.8727273 L14.9373514,16.0545455 C14.9972973,15.9590909 15.0272703,15.8318182 14.9673244,15.7363636 Z" id="path-1"></path>
    </defs>
    <g id="Icons-/-Feather-/-lock-eletric" stroke="none" stroke-width="1" fill="none" fill-rule="evenodd">
        <mask id="mask-2" fill="white">
            <use xlink:href="#path-1"></use>
        </mask>
        <g id="Mask" fill-rule="nonzero"></g>
        <g id="Colors-/-UI-Grays-/-01.-Payne's-grey" mask="url(#mask-2)" fill="#3A3D42">
            <rect id="Color" x="-2.84e-14" y="-5.68e-14" width="24" height="24"></rect>
        </g>
    </g>
</svg>