<?xml version="1.0" encoding="UTF-8"?>
<svg width="24px" height="24px" viewBox="0 0 24 24" version="1.1" xmlns="http://www.w3.org/2000/svg" xmlns:xlink="http://www.w3.org/1999/xlink">
    <!-- Generator: Sketch 51 (57462) - http://www.bohemiancoding.com/sketch -->
    <title>Icons / Feather / money sign</title>
    <desc>Created with Sketch.</desc>
    <defs>
        <path d="M18.370926,15.5756111 C18.370926,18.1406481 16.2841852,20.2273889 13.7191482,20.2273889 L13.0698122,20.2273889 L13.0698122,21.9467143 C13.0698122,22.5284279 12.5982401,23 12.0165265,23 L12.0165265,23 C11.4348128,23 10.9632407,22.5284279 10.9632407,21.9467143 L10.9632407,20.2273889 L8.68277778,20.2273889 C8.00776308,20.2273889 7.46055556,19.6801813 7.46055556,19.0051667 L7.46055556,19.0051667 C7.46055556,18.330152 8.00776308,17.7829444 8.68277778,17.7829444 L13.4076852,17.7829444 L13.7191482,17.7829444 C14.9362778,17.7829444 15.9264815,16.7927407 15.9264815,15.5756111 L15.9264815,15.2837037 C15.9264815,14.0665741 14.9362778,13.0763704 13.7191482,13.0763704 L10.6517778,13.0763704 C8.08694446,13.0763704 6,10.9894259 6,8.42438889 C6,5.85935186 8.08694446,3.77261113 10.6517778,3.77261113 L10.9632407,3.77261113 L10.9632407,2.05328573 C10.9632407,1.47157208 11.4348128,1 12.0165265,1 L12.0165265,1 C12.5982401,1 13.0698122,1.47157208 13.0698122,2.05328573 L13.0698122,3.77261113 L15.6881482,3.77261113 C16.3631629,3.77261113 16.9103704,4.31981865 16.9103704,4.99483335 L16.9103704,4.99483335 C16.9103704,5.66984804 16.3631629,6.21705557 15.6881482,6.21705557 L10.6517778,6.21705557 C9.43464817,6.21705557 8.44444448,7.20725926 8.44444448,8.42438889 C8.44444448,9.64151852 9.43464817,10.6319259 10.6517778,10.6319259 L13.7191482,10.6319259 C16.2841852,10.6319259 18.370926,12.7186667 18.370926,15.2837037 L18.370926,15.5756111 Z" id="path-1"></path>
    </defs>
    <g id="Icons-/-Feather-/-money-sign" stroke="none" stroke-width="1" fill="none" fill-rule="evenodd">
        <mask id="mask-2" fill="white">
            <use xlink:href="#path-1"></use>
        </mask>
        <g id="Mask" fill-rule="nonzero"></g>
        <g id="Colors-/-UI-Grays-/-01.-Payne's-grey" mask="url(#mask-2)" fill="#3A3D42">
            <rect id="Color" x="-2.84e-14" y="-5.68e-14" width="24" height="24"></rect>
        </g>
    </g>
</svg>