<?xml version="1.0" encoding="UTF-8" standalone="no"?>
<svg
   xmlns:dc="http://purl.org/dc/elements/1.1/"
   xmlns:cc="http://creativecommons.org/ns#"
   xmlns:rdf="http://www.w3.org/1999/02/22-rdf-syntax-ns#"
   xmlns:svg="http://www.w3.org/2000/svg"
   xmlns="http://www.w3.org/2000/svg"
   xmlns:sodipodi="http://sodipodi.sourceforge.net/DTD/sodipodi-0.dtd"
   xmlns:inkscape="http://www.inkscape.org/namespaces/inkscape"
   width="24"
   height="24"
   viewBox="0 0 24 24"
   fill="none"
   stroke="#000"
   stroke-width="2"
   stroke-linecap="round"
   stroke-linejoin="round"
   version="1.1"
   id="svg6"
   sodipodi:docname="phone-off.svg"
   inkscape:version="0.92.1 r">
  <metadata
     id="metadata12">
    <rdf:RDF>
      <cc:Work
         rdf:about="">
        <dc:format>image/svg+xml</dc:format>
        <dc:type
           rdf:resource="http://purl.org/dc/dcmitype/StillImage" />
      </cc:Work>
    </rdf:RDF>
  </metadata>
  <defs
     id="defs10" />
  <sodipodi:namedview
     pagecolor="#ffffff"
     bordercolor="#666666"
     borderopacity="1"
     objecttolerance="10"
     gridtolerance="10"
     guidetolerance="10"
     inkscape:pageopacity="0"
     inkscape:pageshadow="2"
     inkscape:window-width="640"
     inkscape:window-height="480"
     id="namedview8"
     showgrid="false"
     inkscape:zoom="9.8333333"
     inkscape:cx="12"
     inkscape:cy="12"
     inkscape:window-x="0"
     inkscape:window-y="22"
     inkscape:window-maximized="0"
     inkscape:current-layer="svg6" />
  <path
     style="color:#000000;font-style:normal;font-variant:normal;font-weight:normal;font-stretch:normal;font-size:medium;line-height:normal;font-family:sans-serif;font-variant-ligatures:normal;font-variant-position:normal;font-variant-caps:normal;font-variant-numeric:normal;font-variant-alternates:normal;font-feature-settings:normal;text-indent:0;text-align:start;text-decoration:none;text-decoration-line:none;text-decoration-style:solid;text-decoration-color:#000000;letter-spacing:normal;word-spacing:normal;text-transform:none;writing-mode:lr-tb;direction:ltr;text-orientation:mixed;dominant-baseline:auto;baseline-shift:baseline;text-anchor:start;white-space:normal;shape-padding:0;clip-rule:nonzero;display:inline;overflow:visible;visibility:visible;opacity:1;isolation:auto;mix-blend-mode:normal;color-interpolation:sRGB;color-interpolation-filters:linearRGB;solid-color:#000000;solid-opacity:1;vector-effect:none;fill:#000000;fill-opacity:1;fill-rule:nonzero;stroke:none;stroke-width:2;stroke-linecap:butt;stroke-linejoin:miter;stroke-miterlimit:4;stroke-dasharray:none;stroke-dashoffset:0;stroke-opacity:1;color-rendering:auto;image-rendering:auto;shape-rendering:auto;text-rendering:auto;enable-background:accumulate"
     d="M 4.109375,1 C 2.3625716,1.001645 0.96778685,2.5298161 1.125,4.2695312 a 1.0001,1.0001 0 0 0 0,0.017578 C 1.4762515,7.5197378 2.5823329,10.625313 4.3515625,13.353516 A 1.0001,1.0001 0 1 0 6.0292969,12.265625 C 4.4328303,9.8038278 3.436344,7.0025299 3.1171875,4.0859375 3.0657833,3.4882815 3.5090317,3.0016425 4.109375,3 h 3 a 1.0001,1.0001 0 0 0 0.00977,0 c 0.5096665,-0.00502 0.9286679,0.3547001 1,0.859375 v -0.00781 C 8.2556251,4.8863997 8.5081297,5.900974 8.8730469,6.8789062 a 1.0001,1.0001 0 0 0 0,0.00391 C 9.0112709,7.2505286 8.9246566,7.6581723 8.6484375,7.9375 l -1.265625,1.265625 a 1.0001,1.0001 0 1 0 1.4140625,1.414063 l 1.269531,-1.2695318 a 1.0001,1.0001 0 0 0 0.0039,-0.00391 c 0.821337,-0.8305798 1.08601,-2.0704922 0.675782,-3.1640625 v -0.00195 C 10.434267,5.3416683 10.218241,4.4745107 10.101562,3.5898438 a 1.0001,1.0001 0 0 0 -0.002,-0.00977 C 9.8899431,2.096688 8.597671,0.98525589 7.0996094,1 Z m 6.560547,11.300781 a 1.0001,1.0001 0 0 0 -0.6972658,1.716797 c 1.0782818,1.079232 2.2968568,2.007629 3.6230468,2.761719 a 1.0001,1.0001 0 0 0 1.201172,-0.162109 L 16.0625,15.351562 c 0.279328,-0.276219 0.686971,-0.362833 1.054688,-0.224609 a 1.0001,1.0001 0 0 0 0.0039,0 c 0.977932,0.364917 1.992506,0.617422 3.027344,0.753906 h -0.0078 c 0.504675,0.07133 0.864391,0.490334 0.859375,1 a 1.0001,1.0001 0 0 0 0,0.0098 v 3 a 1.0001,1.0001 0 0 0 0,0.0039 c 0.0024,0.603576 -0.485409,1.049704 -1.085938,0.998047 -2.916591,-0.319157 -5.71789,-1.315643 -8.179687,-2.912109 a 1.0001,1.0001 0 0 0 -0.0078,-0.0039 C 10.583867,17.251006 9.5249543,16.401018 8.5683594,15.443359 a 1.0005841,1.0005841 0 1 0 -1.4160156,1.414063 c 1.0581523,1.059329 2.2305324,1.997601 3.4941402,2.800781 4.94e-4,3.2e-4 0.0015,-3.2e-4 0.002,0 2.727845,1.76867 5.832409,2.875375 9.064453,3.226563 a 1.0001,1.0001 0 0 0 0.01758,0.002 c 1.745444,0.157744 3.276645,-1.247457 3.269531,-3 v -2.986328 c 0.01474,-1.498062 -1.096688,-2.790334 -2.580078,-3 a 1.0001,1.0001 0 0 0 -0.0098,-0.002 c -0.884667,-0.116679 -1.751824,-0.332705 -2.58789,-0.644532 h -0.002 c -1.09357,-0.410228 -2.333482,-0.145555 -3.164062,0.675782 a 1.0001,1.0001 0 0 0 -0.0039,0.0039 l -0.658203,0.658203 C 13.069114,14.003268 12.162689,13.38017 11.386719,12.603516 a 1.0001,1.0001 0 0 0 -0.716797,-0.302735 z"
     id="path2"
     inkscape:connector-curvature="0" />
  <path
     style="color:#000000;font-style:normal;font-variant:normal;font-weight:normal;font-stretch:normal;font-size:medium;line-height:normal;font-family:sans-serif;font-variant-ligatures:normal;font-variant-position:normal;font-variant-caps:normal;font-variant-numeric:normal;font-variant-alternates:normal;font-feature-settings:normal;text-indent:0;text-align:start;text-decoration:none;text-decoration-line:none;text-decoration-style:solid;text-decoration-color:#000000;letter-spacing:normal;word-spacing:normal;text-transform:none;writing-mode:lr-tb;direction:ltr;text-orientation:mixed;dominant-baseline:auto;baseline-shift:baseline;text-anchor:start;white-space:normal;shape-padding:0;clip-rule:nonzero;display:inline;overflow:visible;visibility:visible;opacity:1;isolation:auto;mix-blend-mode:normal;color-interpolation:sRGB;color-interpolation-filters:linearRGB;solid-color:#000000;solid-opacity:1;vector-effect:none;fill:#000000;fill-opacity:1;fill-rule:nonzero;stroke:none;stroke-width:2;stroke-linecap:butt;stroke-linejoin:miter;stroke-miterlimit:4;stroke-dasharray:none;stroke-dashoffset:0;stroke-opacity:1;color-rendering:auto;image-rendering:auto;shape-rendering:auto;text-rendering:auto;enable-background:accumulate"
     d="m 22.980469,-0.00976563 a 1.0001,1.0001 0 0 0 -0.6875,0.30273438 L 0.29296875,22.292969 A 1.0001,1.0001 0 1 0 1.7070312,23.707031 L 23.707031,1.7070312 a 1.0001,1.0001 0 0 0 -0.726562,-1.71679683 z"
     id="line4"
     inkscape:connector-curvature="0" />
</svg>
