<?xml version="1.0" encoding="UTF-8"?>
<svg width="24px" height="24px" viewBox="0 0 24 24" version="1.1" xmlns="http://www.w3.org/2000/svg" xmlns:xlink="http://www.w3.org/1999/xlink">
    <!-- Generator: Sketch 51 (57462) - http://www.bohemiancoding.com/sketch -->
    <title>Icons / Feather / plane</title>
    <desc>Created with Sketch.</desc>
    <defs>
        <path d="M11.4422637,9.83647766 L6.60136837,14.7075531 L6.041087,14.582395 L4.87109647,14.3210273 L3.30060876,15.891515 L6.65591445,17.3436984 L6.81729836,17.7162845 L8.10903553,20.6985166 L9.68181132,19.1257417 L9.30435357,17.4134205 L14.171949,12.5458251 L14.7169855,14.088302 L16.8979489,20.2605501 L18.4499256,18.7085748 L16.7794034,9.93837067 L17.1712622,9.54651185 L20.4097206,6.30805644 C21.1144582,5.60331584 21.0966696,4.40497504 20.3457665,3.65407189 C19.5947063,2.90301175 18.3961463,2.88575532 17.6932763,3.58862532 L14.0252768,7.25662487 L13.4834048,7.15281533 L5.2700137,5.57932502 L3.71859275,7.13074597 L11.4422637,9.83647766 Z M2.58921638,8.94014672 C2.02203028,8.74242912 1.59135533,8.2710347 1.44618783,7.68792442 C1.2975859,7.09101864 1.46882059,6.45818243 1.90546845,6.02063093 L3.93755223,3.98854743 C4.35169958,3.57539508 4.94270706,3.39842286 5.51177121,3.50898468 L13.3483736,5.01028789 L16.2316563,2.12700525 C17.7609674,0.597694087 20.2731588,0.633863718 21.8195667,2.18027163 C23.3655379,3.72624276 23.402826,6.23818814 21.8733204,7.7676908 L19.0247411,10.6162731 L20.5211773,18.4725329 C20.6293279,19.0435736 20.4505197,19.6325426 20.0382716,20.0434671 L18.0041374,22.0775829 C17.5677085,22.5096833 16.9392849,22.6792414 16.3458686,22.5330171 C15.766153,22.3901687 15.2958233,21.9651058 15.0930925,21.399105 L13.3042921,16.3367221 L11.5769821,18.064032 L11.7473241,18.8367853 C11.8751409,19.4214844 11.6992999,20.0325698 11.274521,20.4562711 L9.24303421,22.4877563 C8.82253039,22.9070575 8.22038302,23.0825151 7.64176437,22.9615466 C7.0766999,22.8434118 6.60353073,22.457502 6.37211452,21.9265907 L5.07291869,18.927145 L2.07700566,17.6305063 C1.54568938,17.4015163 1.1571917,16.9277794 1.03795816,16.3611347 C0.9158627,15.780889 1.09200424,15.1767086 1.51314487,14.7557388 L3.5465355,12.72236 C3.97523539,12.2970653 4.59047658,12.1249044 5.17172896,12.2576103 L5.94931007,12.4313098 L7.65515411,10.7148308 L2.58921638,8.94014672 Z" id="path-1"></path>
    </defs>
    <g id="Icons-/-Feather-/-plane" stroke="none" stroke-width="1" fill="none" fill-rule="evenodd">
        <mask id="mask-2" fill="white">
            <use xlink:href="#path-1"></use>
        </mask>
        <g id="Mask" fill-rule="nonzero"></g>
        <g id="Colors-/-UI-Grays-/-01.-Payne's-grey" mask="url(#mask-2)" fill="#3A3D42">
            <rect id="Color" x="-2.84e-14" y="-5.68e-14" width="24" height="24"></rect>
        </g>
    </g>
</svg>