<?xml version="1.0" encoding="UTF-8"?>
<svg width="24px" height="24px" viewBox="0 0 24 24" version="1.1" xmlns="http://www.w3.org/2000/svg" xmlns:xlink="http://www.w3.org/1999/xlink">
    <!-- Generator: Sketch 51 (57462) - http://www.bohemiancoding.com/sketch -->
    <title>Icons / Feather / police</title>
    <desc>Created with Sketch.</desc>
    <defs>
        <path d="M7.25526162,2.87987902 C7.73556706,3.08562517 8.28814868,3.20352647 8.86326504,3.20352647 C9.58155854,3.20352647 10.2923733,3.00172327 10.9912736,2.59227142 L12.0022317,2 L13.0132024,2.59225004 C13.7122264,3.00175454 14.4228844,3.20352647 15.1411457,3.20352647 C15.7146707,3.20352647 16.2657584,3.08588147 16.7468648,2.87959216 L18.0452217,2.3228813 L20.4465647,4.921672 L20.0601203,6.05047507 C19.9252084,6.44455246 19.8574316,6.94879684 19.8752558,7.55969885 C19.8905934,8.07802258 19.9495964,8.34249049 20.2465717,9.18893616 C20.3336234,9.43710445 20.3708676,9.54561236 20.4167167,9.68552145 C20.832015,10.9528091 21.0020466,12.1737073 21.0020466,13.9512158 L20.9925269,14.1461217 C20.7913948,16.2001867 19.1131072,18.1258732 16.4646121,19.769604 C15.5678239,20.3261761 14.5850437,20.8324104 13.5586301,21.2749536 C13.26864,21.3999842 12.9864255,21.5149486 12.717744,21.617926 L12.0020346,21.8922357 L11.2863101,21.6179654 C11.0176247,21.5150034 10.7353627,21.4000331 10.4453292,21.2749944 C9.4189461,20.8325022 8.4361517,20.326281 7.53936201,19.7697129 C4.88950387,18.1251506 3.24529558,16.2116331 3.01183223,14.0750311 L3,13.8553236 C3.0024041,11.9035102 3.18234532,10.8279313 3.75779258,9.18848823 C4.05480745,8.3419299 4.11381578,8.07759585 4.12911284,7.5611314 C4.14704665,6.94937304 4.07917812,6.44619881 3.94401015,6.05382394 L3.55433505,4.92264823 L5.95790201,2.32413526 L7.25526162,2.87987902 Z M6.46774328,4.7183063 L5.83495462,5.40241852 C6.04810151,6.021156 6.1534706,6.75954803 6.12825402,7.61973658 C6.1048646,8.40942216 5.98418309,8.88389529 5.64500866,9.85061772 C5.16898434,11.2068059 5.00222283,12.051913 4.99999848,13.8577871 C5.15382772,15.2655963 6.44191098,16.7347426 8.59400568,18.0703816 C9.43454368,18.5920386 10.3377547,19.0506706 11.2371172,19.438402 C11.5116654,19.5567647 11.7684344,19.6608995 12.0019757,19.750394 C12.2355274,19.6608808 12.4922658,19.5567461 12.766785,19.4383858 C13.6661893,19.0506033 14.5694061,18.5919495 15.4099617,18.0702769 C17.5839332,16.7210488 18.8762748,15.2356627 19.0020466,13.9512158 C19.0020466,12.2966938 18.8422644,11.3034362 18.5161663,10.3083441 C18.4740346,10.1797788 18.4388077,10.0775689 18.3593126,9.850943 C18.020235,8.88449664 17.8995362,8.40982246 17.8761308,7.61885457 C17.8510382,6.75884258 17.956315,6.02082428 18.1679335,5.40268718 L17.5350289,4.71774268 C16.8682105,5.00366176 16.0502919,5.20352647 15.1411457,5.20352647 C14.0492414,5.20352647 12.9919727,4.89773366 12.0022562,4.3179348 C11.0125894,4.89773266 9.95514375,5.20352647 8.86326504,5.20352647 C7.95117943,5.20352647 7.1319664,5.00283639 6.46774328,4.7183063 Z M15.98641,10.8771576 C16.0226501,10.9860721 15.98641,11.1312914 15.8776897,11.203901 L14.2106455,12.8376183 L14.6092865,15.1611273 C14.6455266,15.3063466 14.5730464,15.4515659 14.4643262,15.5241755 C14.391846,15.5604804 14.3193658,15.5967852 14.2468856,15.5967852 C14.1744054,15.5967852 14.1381653,15.5967852 14.0656852,15.5967852 L12,14.5076404 L9.93431484,15.5967852 C9.78935447,15.6693949 9.64439411,15.63309 9.53567384,15.5604804 C9.42695357,15.4878707 9.35447339,15.3426514 9.39071348,15.1974321 L9.78935447,12.8739231 L8.12231031,11.2402059 C8.01359003,11.1675962 7.97734994,11.0223769 8.01359003,10.8771576 C8.08607022,10.7319383 8.19479049,10.6230238 8.33975085,10.6230238 L10.6228766,10.2599755 L11.6738392,8.19060035 C11.7825595,7.93646655 12.2174405,7.93646655 12.3261608,8.19060035 L13.3771234,10.2962804 L15.6964892,10.6230238 C15.8414496,10.6593286 15.9501699,10.7319383 15.98641,10.8771576 Z" id="path-1"></path>
    </defs>
    <g id="Icons-/-Feather-/-police" stroke="none" stroke-width="1" fill="none" fill-rule="evenodd">
        <mask id="mask-2" fill="white">
            <use xlink:href="#path-1"></use>
        </mask>
        <g id="Mask" fill-rule="nonzero"></g>
        <g id="Colors-/-UI-Grays-/-01.-Payne's-grey" mask="url(#mask-2)" fill="#3A3D42">
            <rect id="Color" x="-2.84e-14" y="-5.68e-14" width="24" height="24"></rect>
        </g>
    </g>
</svg>