<svg id="Layer_1" data-name="Layer 1" xmlns="http://www.w3.org/2000/svg" viewBox="0 0 24 24"><title>file</title><path d="M22.71.72H1.29a1,1,0,0,0,0,2H22.71a1,1,0,0,0,0-2Z"/><path d="M6.69,12.11l2.15-1.93,2.39,2a1,1,0,0,0,1.22,0l6.11-4.37a1,1,0,0,0,.23-1.4,1,1,0,0,0-1.39-.23l-5.49,3.93-2.47-2a1,1,0,0,0-1.3,0l-2.79,2.5A1,1,0,0,0,6,12.37,1,1,0,0,0,6.69,12.11Z"/><path d="M21.07,3.68a1,1,0,0,0-1,1V14.9H3.93V4.68a1,1,0,0,0-2,0V15.9a1,1,0,0,0,1,1H11v2L7.93,21.52A1,1,0,1,0,9.23,23L12,20.66,14.77,23a1,1,0,0,0,.65.24,1,1,0,0,0,.76-.34,1,1,0,0,0-.11-1.42L13,18.88v-2h8.07a1,1,0,0,0,1-1V4.68A1,1,0,0,0,21.07,3.68Z"/></svg>