<svg id="Layer_1" data-name="Layer 1" xmlns="http://www.w3.org/2000/svg" viewBox="0 0 24 24"><title>file</title><path d="M22.66,14.64h-1V3h1a1,1,0,0,0,0-2H1.34a1,1,0,0,0,0,2h1V14.64h-1a1,1,0,0,0,0,2h8.82L7,21.12a1,1,0,0,0,.24,1.4,1,1,0,0,0,.58.18,1,1,0,0,0,.82-.42L11,18.92V21.7a1,1,0,1,0,2,0V18.92l2.36,3.35A1,1,0,1,0,17,21.12l-3.16-4.48h8.82a1,1,0,0,0,0-2ZM4.36,3H19.64V14.64H4.36Z"/><path d="M9.17,6.18a1,1,0,0,0-1,1v3.27a1,1,0,0,0,2,0V7.18A1,1,0,0,0,9.17,6.18Z"/><path d="M12,6.72a1,1,0,0,0-1,1v2.73a1,1,0,0,0,2,0V7.72A1,1,0,0,0,12,6.72Z"/><path d="M14.83,7.51a1,1,0,0,0-1,1v1.94a1,1,0,0,0,2,0V8.51A1,1,0,0,0,14.83,7.51Z"/></svg>