<svg id="Layer_1" data-name="Layer 1" xmlns="http://www.w3.org/2000/svg" viewBox="0 0 24 24"><title>file</title><path d="M23,3.35a1,1,0,0,0-.94-.69H16.22V2.37a1,1,0,0,0-1-1H8.78a1,1,0,0,0-1,1v.29H2.09a1,1,0,0,0-.93.67A.91.91,0,0,0,1,3.81V18.1a1,1,0,0,0,1,1H8L6.14,21.7a1,1,0,0,0,.25,1.4,1,1,0,0,0,1.39-.25l2.6-3.75h3.14l2.86,3.78a1,1,0,0,0,.79.4,1,1,0,0,0,.8-1.61L16,19.1h6.1a1,1,0,0,0,1-1V3.81A.91.91,0,0,0,23,3.35Zm-13.21,0h4.44v1H9.78Zm-1,3h6.44a1,1,0,0,0,1-1V4.66h4.9V17.1H3V4.66H7.78v.68A1,1,0,0,0,8.78,6.34Z"/><path d="M4.94,13.09a1,1,0,0,0-.07,1.41,1,1,0,0,0,.74.33,1,1,0,0,0,.67-.25l2.05-1.85,2.29,1.88a1,1,0,0,0,1.22,0l5.9-4.22A1,1,0,1,0,16.57,8.8L11.3,12.57,8.93,10.64a1,1,0,0,0-1.3,0Z"/></svg>