<svg
  xmlns="http://www.w3.org/2000/svg"
  width="24"
  height="24"
  viewBox="0 0 24 24"
  fill="none"
  stroke="currentColor"
  stroke-width="2"
  stroke-linecap="round"
  stroke-linejoin="round"
>
  <path d="M2 6v-2a2 2 0 0 1 2-2h2" />
  <path d="M18 2h2a2 2 0 0 1 2 2v2" />
  <path d="M22 18v2a2 2 0 0 1 -2 2h-2" />
  <path d="M6 22h-2a2 2 0 0 1 -2-2v-2" />
  <line x1="4" y1="12" x2="20" y2="12" />
  <line x1="12" y1="4" x2="12" y2="20" />
  <rect x="5" y="5" width="4" height="4" rx="1" ry="1" />
  <rect x="5" y="15" width="4" height="4" rx="1" ry="1" />
  <rect x="15" y="5" width="4" height="4" rx="1" ry="1" />
  <rect x="15" y="15" width="4" height="4" rx="2" ry="2" />
</svg>
