<?xml version="1.0" encoding="UTF-8"?>
<svg width="24px" height="24px" viewBox="0 0 24 24" version="1.1" xmlns="http://www.w3.org/2000/svg" xmlns:xlink="http://www.w3.org/1999/xlink">
    <!-- Generator: Sketch 51 (57462) - http://www.bohemiancoding.com/sketch -->
    <title>Icons / Feather / shield check</title>
    <desc>Created with Sketch.</desc>
    <defs>
        <path d="M20.2,3 L12.2,1 C12,1 11.9,1 11.7,1 L3.7,3 C3.3,3.1 3,3.5 3,4 L3,12 C3,18.5 11.2,22.7 11.6,22.9 C11.7,23 11.8,23 12,23 C12.2,23 12.3,23 12.4,22.9 C12.8,22.7 21,18.5 21,12 L21,4 C21,3.5 20.7,3.1 20.2,3 Z M19,12 C19,16.5 13.6,19.9 12,20.9 C10.4,20 5,16.6 5,12 L5,4.8 L12,3 L19,4.8 L19,12 Z M15.2317787,8.3598156 C15.5853428,7.9355387 16.2159075,7.87821464 16.6401844,8.23177872 C17.0644613,8.5853428 17.1217854,9.2159075 16.7682213,9.6401844 L11.7682213,15.6401844 C11.3917728,16.0919226 10.7086942,16.1229077 10.2928932,15.7071068 L7.29289322,12.7071068 C6.90236893,12.3165825 6.90236893,11.6834175 7.29289322,11.2928932 C7.68341751,10.9023689 8.31658249,10.9023689 8.70710678,11.2928932 L10.9328016,13.5185881 L15.2317787,8.3598156 Z" id="path-1"></path>
    </defs>
    <g id="Icons-/-Feather-/-shield-check" stroke="none" stroke-width="1" fill="none" fill-rule="evenodd">
        <mask id="mask-2" fill="white">
            <use xlink:href="#path-1"></use>
        </mask>
        <g id="Mask" fill-rule="nonzero"></g>
        <g id="Colors-/-UI-Grays-/-01.-Payne's-grey" mask="url(#mask-2)" fill="#3A3D42">
            <rect id="Color" x="-2.84e-14" y="-5.68e-14" width="24" height="24"></rect>
        </g>
    </g>
</svg>