<svg
  xmlns="http://www.w3.org/2000/svg"
  width="24"
  height="24"
  viewBox="0 0 24 24"
  fill="none"
  stroke-width="2"
  stroke-linecap="round"
  stroke-linejoin="round"
>
  <mask id="path-1-inside-1" fill="#FFF">
  <path d="M12.0488 19.2229C8.03997 19.2229 6.20839 17.192 6.20839 15.7023C6.20784 15.347 6.3545 15.0071 6.61384 14.7626C6.87318 14.5182 7.22231 14.3907 7.5791 14.4103C9.29546 14.4103 8.84651 16.9707 12.0488 16.9707C13.6857 16.9707 14.6472 15.9908 14.6472 15.0701C14.6472 14.517 14.3293 13.8848 13.2487 13.6319L9.6729 12.7349C6.80037 12.0079 6.29977 10.4195 6.29977 8.94568C6.29977 5.8874 9.1127 4.78104 11.7906 4.78104C14.2578 4.78104 17.19 6.13633 17.19 7.96971C17.19 8.75997 16.5265 9.18275 15.7557 9.18275C14.2896 9.18275 14.5359 7.136 11.5879 7.136C10.1219 7.136 9.35109 7.81957 9.35109 8.77577C9.35109 9.73198 10.4914 10.056 11.4926 10.2733L14.1307 10.866C17.0231 11.514 17.7939 13.2012 17.7939 14.8173C17.7939 17.3026 15.859 19.2229 12.0448 19.2229H12.0488ZM23.1178 13.9638C23.2323 13.3114 23.2895 12.6504 23.2886 11.9881C23.3027 8.66163 21.8329 5.50012 19.2757 3.35585C16.7184 1.21157 13.3368 0.305235 10.0424 0.881148C9.02982 0.301352 7.88138 -0.00258049 6.71297 1.65041e-05C4.31466 0.0145868 2.10399 1.2929 0.904848 3.35855C-0.294299 5.42419 -0.302056 7.96733 0.884467 10.0402C0.222396 13.6581 1.38215 17.3693 3.98963 19.9766C6.59712 22.584 10.3224 23.7576 13.9638 23.1189C14.9752 23.6982 16.1222 24.0021 17.2893 24C19.6864 23.9846 21.8957 22.7069 23.0946 20.6425C24.2935 18.5781 24.3023 16.0364 23.1178 13.9638Z"/>
  </mask>
  <path d="M12.0488 19.2229C8.03997 19.2229 6.20839 17.192 6.20839 15.7023C6.20784 15.347 6.3545 15.0071 6.61384 14.7626C6.87318 14.5182 7.22231 14.3907 7.5791 14.4103C9.29546 14.4103 8.84651 16.9707 12.0488 16.9707C13.6857 16.9707 14.6472 15.9908 14.6472 15.0701C14.6472 14.517 14.3293 13.8848 13.2487 13.6319L9.6729 12.7349C6.80037 12.0079 6.29977 10.4195 6.29977 8.94568C6.29977 5.8874 9.1127 4.78104 11.7906 4.78104C14.2578 4.78104 17.19 6.13633 17.19 7.96971C17.19 8.75997 16.5265 9.18275 15.7557 9.18275C14.2896 9.18275 14.5359 7.136 11.5879 7.136C10.1219 7.136 9.35109 7.81957 9.35109 8.77577C9.35109 9.73198 10.4914 10.056 11.4926 10.2733L14.1307 10.866C17.0231 11.514 17.7939 13.2012 17.7939 14.8173C17.7939 17.3026 15.859 19.2229 12.0448 19.2229H12.0488ZM23.1178 13.9638C23.2323 13.3114 23.2895 12.6504 23.2886 11.9881C23.3027 8.66163 21.8329 5.50012 19.2757 3.35585C16.7184 1.21157 13.3368 0.305235 10.0424 0.881148C9.02982 0.301352 7.88138 -0.00258049 6.71297 1.65041e-05C4.31466 0.0145868 2.10399 1.2929 0.904848 3.35855C-0.294299 5.42419 -0.302056 7.96733 0.884467 10.0402C0.222396 13.6581 1.38215 17.3693 3.98963 19.9766C6.59712 22.584 10.3224 23.7576 13.9638 23.1189C14.9752 23.6982 16.1222 24.0021 17.2893 24C19.6864 23.9846 21.8957 22.7069 23.0946 20.6425C24.2935 18.5781 24.3023 16.0364 23.1178 13.9638Z" stroke="currentColor" stroke-width="2" mask="url(#path-1-inside-1)"/>
</svg>