<?xml version="1.0" encoding="utf-8"?>
<svg xmlns="http://www.w3.org/2000/svg"  viewBox="0 0 24 24" width="24" height="24" stroke-linecap="round" stroke-linejoin="round" stroke="currentcolor" stroke-width="2">
<!--Vertical center line-->
  <line x1="12" y1="3" x2="12" y2="21"/>
<!--Short diagonal lines at the end of the vertical line-->
  <line x1="12" y1="3" x2="10" y2="1"/>
  <line x1="12" y1="3" x2="14" y2="1"/>
  <line x1="12" y1="21" x2="10" y2="23"/>
  <line x1="12" y1="21" x2="14" y2="23"/>
<!--Horizontal center line-->
  <line x1="3" y1="12" x2="21" y2="12"/>
<!--Short diagonal lines at the end of the horizontal line-->
  <line x1="3" y1="12" x2="1" y2="14"/>
  <line x1="3" y1="12" x2="1" y2="10"/>
  <line x1="21" y1="12" x2="23" y2="14"/>
  <line x1="21" y1="12" x2="23" y2="10"/>
<!--Top-left diagonal line-->
  <line x1="6" y1="6" x2="12" y2="12"/>
<!--Short diagonal lines at the end of the top-left diagonal line-->
  <line x1="6" y1="6" x2="4" y2="6"/>
  <line x1="6" y1="6" x2="6" y2="4"/>
<!--Top-right diagonal line-->
  <line x1="18" y1="6" x2="12" y2="12"/>
<!--Short diagonal lines at the end of the top-right diagonal line-->
  <line x1="18" y1="6" x2="18" y2="4"/>
  <line x1="18" y1="6" x2="20" y2="6"/>
<!--Bottom-left diagonal line-->
  <line x1="6" y1="18" x2="12" y2="12"/>
<!--Short diagonal lines at the end of the bottom-left diagonal line-->
  <line x1="6" y1="18" x2="6" y2="20"/>
  <line x1="6" y1="18" x2="4" y2="18"/>
<!--Bottom-right diagonal line-->
  <line x1="18" y1="18" x2="12" y2="12"/>
<!--Short diagonal lines at the end of the bottom-right diagonal line-->
  <line x1="18" y1="18" x2="20" y2="18"/>
  <line x1="18" y1="18" x2="18" y2="20"/>
</svg>