<?xml version="1.0" encoding="UTF-8"?>
<svg width="24px" height="24px" viewBox="0 0 24 24" version="1.1" xmlns="http://www.w3.org/2000/svg" xmlns:xlink="http://www.w3.org/1999/xlink">
    <!-- Generator: Sketch 51 (57462) - http://www.bohemiancoding.com/sketch -->
    <title>Icons / Feather / steering wheel</title>
    <desc>Created with Sketch.</desc>
    <defs>
        <path d="M10.9,20.7319169 L10.9,15.1122237 C9.96234521,14.7808103 9.21918969,14.0376548 8.88777628,13.1 L3.26808313,13.1 C3.76445556,17.0805891 6.91941093,20.2355444 10.9,20.7319169 Z M13.1,20.7319169 C17.0805891,20.2355444 20.2355444,17.0805891 20.7319169,13.1 L15.1122237,13.1 C14.7808103,14.0376548 14.0376548,14.7808103 13.1,15.1122237 L13.1,20.7319169 Z M3.26808313,10.9 L8.88777628,10.9 C9.34079633,9.61828839 10.5631593,8.7 12,8.7 C13.4368407,8.7 14.6592037,9.61828839 15.1122237,10.9 L20.7319169,10.9 C20.190609,6.55905727 16.4875794,3.2 12,3.2 C7.51242058,3.2 3.80939103,6.55905727 3.26808313,10.9 Z M12,23 C5.92486775,23 1,18.0751322 1,12 C1,5.92486775 5.92486775,1 12,1 C18.0751322,1 23,5.92486775 23,12 C23,18.0751322 18.0751322,23 12,23 Z M12,13.1 C12.6075132,13.1 13.1,12.6075132 13.1,12 C13.1,11.3924868 12.6075132,10.9 12,10.9 C11.3924868,10.9 10.9,11.3924868 10.9,12 C10.9,12.6075132 11.3924868,13.1 12,13.1 Z" id="path-1"></path>
    </defs>
    <g id="Icons-/-Feather-/-steering-wheel" stroke="none" stroke-width="1" fill="none" fill-rule="evenodd">
        <mask id="mask-2" fill="white">
            <use xlink:href="#path-1"></use>
        </mask>
        <g id="Mask"></g>
        <g id="Colors-/-UI-Grays-/-01.-Payne's-grey" mask="url(#mask-2)" fill="#3A3D42">
            <rect id="Color" x="-2.84e-14" y="-5.68e-14" width="24" height="24"></rect>
        </g>
    </g>
</svg>