<?xml version="1.0" encoding="UTF-8"?>
<svg width="24px" height="24px" viewBox="0 0 24 24" version="1.1" xmlns="http://www.w3.org/2000/svg" xmlns:xlink="http://www.w3.org/1999/xlink">
    <!-- Generator: Sketch 51 (57462) - http://www.bohemiancoding.com/sketch -->
    <title>Icons / Feather / tools</title>
    <desc>Created with Sketch.</desc>
    <defs>
        <path d="M6.50357143,1.00491494 C6.42588934,1.01427135 6.34972877,1.03495235 6.27857143,1.06601239 C4.55671843,1.80712457 3,3.35763632 3,5.40393195 C3,7.19697128 4.04934729,8.72531443 5.57142857,9.57383349 L5.57142857,14.4234443 C4.04935397,15.2719902 3,16.8079437 3,18.600983 C3,20.6472835 4.55671329,22.1901532 6.27857143,22.9312654 C6.51207206,23.0329418 6.79931426,23.0138721 7.01567374,22.88233 C7.23203297,22.7507879 7.37066769,22.5109329 7.37142857,22.2668305 L7.37142857,19.3341525 L8.91428571,19.3341525 L8.91428571,22.2668305 C8.91505714,22.5109329 9.05368131,22.7507879 9.27004054,22.88233 C9.48640003,23.0138721 9.77364223,23.0329418 10.0071429,22.9312654 C11.729001,22.1901532 13.2857143,20.6472835 13.2857143,18.600983 C13.2857143,16.8079437 12.2363603,15.2719902 10.7142857,14.4234443 L10.7142857,9.57383349 C12.236367,8.72531443 13.2857143,7.19697128 13.2857143,5.40393195 C13.2857143,3.35763632 11.7289959,1.80712457 10.0071429,1.06601239 C9.77242337,0.963798253 9.48341357,0.983699577 9.26664857,1.11700309 C9.04988357,1.2503066 8.91235869,1.49271032 8.91428571,1.73808444 L8.91428571,4.67076245 L7.37142857,4.67076245 L7.37142857,1.73808444 C7.37481669,1.32167024 6.93829637,0.952895998 6.50357143,1.00491494 Z M16.8053571,1.00491494 C16.5195431,1.03439813 16.2596658,1.22890169 16.1625,1.48605742 L15.1339286,4.1743456 C15.0610818,4.36113934 15.0729957,4.57627718 15.1660714,4.75477145 L15.8571429,6.06836681 L15.8571429,10.7805083 L15.6,10.7805083 C15.5732386,10.7791886 15.5464042,10.7791886 15.5196429,10.7805083 C15.1432266,10.818005 14.8265472,11.1539753 14.8285714,11.5136778 L14.8285714,22.2668305 C14.8286118,22.6507066 15.1960921,22.9999616 15.6,23 L20.2285714,23 C20.6324793,22.9999616 20.9999596,22.6507066 21,22.2668305 L21,11.5136778 C20.9999596,11.1298017 20.6324793,10.7805467 20.2285714,10.7805083 L19.9714286,10.7805083 L19.9714286,6.06836681 L20.6625,4.75477145 C20.7555757,4.57627718 20.7674896,4.36113934 20.6946429,4.1743456 L19.6660714,1.48605742 C19.5583612,1.2064657 19.2561366,1.00540069 18.9428571,1.00491494 L16.8857143,1.00491494 C16.8589529,1.0035879 16.8321185,1.0035879 16.8053571,1.00491494 Z M17.4241071,2.47125394 L18.4044643,2.47125394 L19.1357143,4.37291234 L18.5089286,5.56431278 C18.4559052,5.66590245 18.4281549,5.77931033 18.4285714,5.89271162 L18.4285714,10.7805083 L17.4,10.7805083 L17.4,5.89271162 C17.4004114,5.77931033 17.3726662,5.66590245 17.3196429,5.56431278 L16.6928571,4.37291234 L17.4241071,2.47125394 Z M5.82857143,3.07459134 L5.82857143,5.40393195 C5.8286118,5.78780801 6.19609209,6.13706308 6.6,6.13710145 L9.68571429,6.13710145 C10.0896222,6.13706308 10.4571025,5.78780801 10.4571429,5.40393195 L10.4571429,3.07459134 C11.2100667,3.67692186 11.7428571,4.48570802 11.7428571,5.40393195 C11.7428571,6.79683181 10.8699705,7.9748739 9.62142857,8.51226515 C9.35293054,8.6292377 9.16920454,8.90363103 9.17142857,9.18433719 L9.17142857,14.8205777 C9.17227714,15.098741 9.35537237,15.3690956 9.62142857,15.4850126 C10.8699801,16.0224258 11.7428571,17.2080831 11.7428571,18.600983 C11.7428571,19.5192045 11.2100651,20.3203632 10.4571429,20.9226864 L10.4571429,18.600983 C10.4571025,18.2171069 10.0896222,17.8678519 9.68571429,17.8678135 L6.6,17.8678135 C6.19609209,17.8678519 5.8286118,18.2171069 5.82857143,18.600983 L5.82857143,20.9226864 C5.07564917,20.3203632 4.54285714,19.5192045 4.54285714,18.600983 C4.54285714,17.2080831 5.41573423,16.0224258 6.66428571,15.4850126 C6.93034191,15.3690956 7.11344434,15.098741 7.11428571,14.8205777 L7.11428571,9.18433719 C7.11649714,8.90363103 6.93278374,8.6292377 6.66428571,8.51226515 C5.41574374,7.9748739 4.54285714,6.79683181 4.54285714,5.40393195 C4.54285714,4.48570802 5.07564763,3.67692186 5.82857143,3.07459134 Z M16.3714286,12.2468473 L19.4571429,12.2468473 L19.4571429,21.533661 L16.3714286,21.533661 L16.3714286,12.2468473 Z" id="path-1"></path>
    </defs>
    <g id="Icons-/-Feather-/-tools" stroke="none" stroke-width="1" fill="none" fill-rule="evenodd">
        <mask id="mask-2" fill="white">
            <use xlink:href="#path-1"></use>
        </mask>
        <use id="Shape" fill="#000000" fill-rule="nonzero" xlink:href="#path-1"></use>
        <g id="Colors-/-UI-Grays-/-01.-Payne's-grey" mask="url(#mask-2)" fill="#3A3D42">
            <rect id="Color" x="-2.84e-14" y="-5.68e-14" width="24" height="24"></rect>
        </g>
    </g>
</svg>