<svg
  viewBox="0 0 24 24"
  xmlns="http://www.w3.org/2000/svg"
  fill-rule="evenodd"
  clip-rule="evenodd"
  width="24"
  height="24"
  fill="none"
  stroke="currentColor"
  stroke-width="2"
  stroke-linecap="round"
  stroke-linejoin="round"
>
  <path d="M22 4a2 2 0 0 0-2-2H4a2 2 0 0 0-2 2v16a2 2 0 0 0 2 2h16a2 2 0 0 0 2-2V4z" />
  <path
    d="M10 5.75C10 4.784 9.328 4 8.5 4h-3C4.672 4 4 4.784 4 5.75v10.5c0 .966.672 1.75 1.5 1.75h3c.828 0 1.5-.784 1.5-1.75V5.75z"
    transform="matrix(.66667 0 0 .85714 3.333 2.571)"
  />
  <path
    d="M10 7.063C10 5.372 9.328 4 8.5 4h-3C4.672 4 4 5.372 4 7.063v7.875C4 16.628 4.672 18 5.5 18h3c.828 0 1.5-1.372 1.5-3.062V7.063z"
    transform="matrix(.66667 0 0 .5 11.333 4)"
  />
</svg>
