<svg id="Layer_1" data-name="Layer 1" xmlns="http://www.w3.org/2000/svg" viewBox="0 0 24 24"><title>file</title><path d="M13.54,8.73h4.37a3.93,3.93,0,0,1,3.92,3.93,3.88,3.88,0,0,1-1.54,3.11,1,1,0,0,0-.18,1.4,1,1,0,0,0,.79.4,1,1,0,0,0,.61-.21,5.93,5.93,0,0,0-3.6-10.63H13.54a1,1,0,0,0,0,2Z"/><path d="M23.6,22.17l-8.51-8.51h.85a1,1,0,1,0,0-2H13.09L8.51,7.08A.76.76,0,0,0,8.42,7L1.81.38A1,1,0,0,0,.4,1.79l5,5a5.92,5.92,0,0,0,.71,11.8h3a1,1,0,0,0,0-2h-3a3.93,3.93,0,0,1,0-7.85H7.33l2.93,2.93H8.06a1,1,0,0,0,0,2h4.2l9.93,9.93a1,1,0,1,0,1.41-1.42Z"/></svg>