<svg id="Layer_2" data-name="Layer 2" xmlns="http://www.w3.org/2000/svg" viewBox="0 0 24 24"><defs><style>.cls-1{fill:none;stroke:#000;stroke-linecap:round;stroke-linejoin:round;}</style></defs><title>Artboard 1 copy</title><path class="cls-1" d="M18.76,2.49c-2.72,0-7.9,6.6-2.18,11.14,0,0-.19,5.34-.25,7.22a.62.62,0,0,0,.62.64h2.43a.62.62,0,0,0,.62-.62V3.25C20,2.75,19.7,2.49,18.76,2.49Z"/><path class="cls-1" d="M12,7.18s-.42-4.38-.42-4.38a.44.44,0,0,0-.83,0l-1,4.92c0,.18-.6.19-.62,0L8.52,2.89c0-.44-.94-.48-1,0l-.6,4.83c0,.2-.59.16-.62,0l-1-4.85a.43.43,0,0,0-.83,0L4,7.18H4a5,5,0,0,0,2.66,4.76h0c0,.36-.4,6.64-.52,8.88a.61.61,0,0,0,.58.68H9.1a.61.61,0,0,0,.57-.68c-.14-2.58-.5-8.73-.51-8.88h0A4.75,4.75,0,0,0,12,7.18Z"/></svg>