<?xml version="1.0" encoding="UTF-8"?>
<svg width="24px" height="24px" viewBox="0 0 24 24" version="1.1" xmlns="http://www.w3.org/2000/svg" xmlns:xlink="http://www.w3.org/1999/xlink">
    <!-- Generator: Sketch 51 (57462) - http://www.bohemiancoding.com/sketch -->
    <title>Icons / Feather / velocimeter</title>
    <desc>Created with Sketch.</desc>
    <defs>
        <path d="M11.290627,13.3455381 C11.3052661,13.2928259 11.3244395,13.2406139 11.3483251,13.189391 L13.8840347,7.75154431 C14.1174403,7.25100434 14.7124208,7.03444916 15.2129608,7.26785479 C15.7135007,7.50126041 15.9300559,8.09624086 15.6966503,8.59678083 L13.1609407,14.0346276 C13.1370551,14.0858505 13.1093829,14.1340993 13.0784128,14.1791963 C13.9685113,15.0443722 14.2598943,16.4103171 13.7057015,17.5987874 C13.0054846,19.1004073 11.2205433,19.7500729 9.71892336,19.049856 C8.21730345,18.3496392 7.56763792,16.5646978 8.26785479,15.0630779 C8.82204761,13.8746075 10.0557195,13.2198074 11.290627,13.3455381 Z M19.7781746,20.7781746 C19.3876503,21.1686989 18.7544853,21.1686989 18.363961,20.7781746 C17.9734367,20.3876503 17.9734367,19.7544853 18.363961,19.363961 C21.8786797,15.8492424 21.8786797,10.1507576 18.363961,6.63603897 C14.8492424,3.12132034 9.15075759,3.12132034 5.63603897,6.63603897 C2.12132034,10.1507576 2.12132034,15.8492424 5.63603897,19.363961 C6.02656326,19.7544853 6.02656326,20.3876503 5.63603897,20.7781746 C5.24551468,21.1686989 4.6123497,21.1686989 4.22182541,20.7781746 C-0.0739418023,16.4824074 -0.0739418023,9.51759262 4.22182541,5.22182541 C8.51759262,0.926058198 15.4824074,0.926058198 19.7781746,5.22182541 C24.0739418,9.51759262 24.0739418,16.4824074 19.7781746,20.7781746 Z M17.8948926,18.400665 C17.5043683,18.7911893 16.8712033,18.7911893 16.480679,18.400665 C16.0901547,18.0101407 16.0901547,17.3769757 16.480679,16.9864514 C17.5507607,15.9163696 18.1603333,14.5132534 18.2311415,13.0324562 C18.2575203,12.4808018 18.7261088,12.0549818 19.2777632,12.0813606 C19.8294176,12.1077394 20.2552377,12.5763279 20.2288589,13.1279823 C20.1345193,15.1008861 19.3201475,16.97541 17.8948926,18.400665 Z M10.5641599,17.2372404 C11.0646999,17.4706461 11.6596803,17.2540909 11.8930859,16.7535509 C12.1264916,16.2530109 11.9099364,15.6580305 11.4093964,15.4246249 C10.9088564,15.1912192 10.313876,15.4077744 10.0804704,15.9083144 C9.84706474,16.4088544 10.0636199,17.0038348 10.5641599,17.2372404 Z" id="path-1"></path>
    </defs>
    <g id="Icons-/-Feather-/-velocimeter" stroke="none" stroke-width="1" fill="none" fill-rule="evenodd">
        <mask id="mask-2" fill="white">
            <use xlink:href="#path-1"></use>
        </mask>
        <g id="Mask"></g>
        <g id="Colors-/-UI-Grays-/-01.-Payne's-grey" mask="url(#mask-2)" fill="#3A3D42">
            <rect id="Color" x="-2.84e-14" y="-5.68e-14" width="24" height="24"></rect>
        </g>
    </g>
</svg>