<?xml version="1.0" encoding="UTF-8" standalone="no"?> <svg id="Layer_1" data-name="Layer 1" xmlns="http://www.w3.org/2000/svg" viewBox="0 0 24 24"><title>Artboard 11</title><path d="M22.41,10.59,20.36,8.54V5.63a2,2,0,0,0-2-2H15.46l-2.05-2a2,2,0,0,0-2.82,0L8.54,3.64H5.63a2,2,0,0,0-2,2V8.54l-2,2.05A2,2,0,0,0,1,12a2,2,0,0,0,.58,1.41l2.06,2.05v2.91a2,2,0,0,0,2,2H8.54l2.05,2.05A2,2,0,0,0,12,23a2,2,0,0,0,1.41-.58l2.05-2.06h2.91a2,2,0,0,0,2-2V15.46l2.05-2.05a2,2,0,0,0,0-2.82Zm-4.05,4.05v3.72H14.64L12,21,9.36,18.36H5.64V14.64L3,12,5.64,9.36V5.64H9.36L12,3l2.64,2.64h3.72V9.36L21,12Z"/><polygon points="11 12.73 8.71 10.44 7.29 11.85 11 15.56 16.71 9.85 15.29 8.44 11 12.73"/></svg>