<svg
  xmlns="http://www.w3.org/2000/svg"
  width="24"
  height="24"
  viewBox="0 0 24 24"
  fill="none"
  stroke="currentColor"
  stroke-width="2"
  stroke-linecap="round"
  stroke-linejoin="round"
>
  <path d="M21.53 6.83c.15-.47 0-.8-.66-.8H18.7c-.55 0-.8.29-.95.61 0 0-1.12 2.73-2.7 4.5-.5.52-.73.69-1 .69-.16 0-.35-.17-.35-.64V6.8c0-.55-.17-.81-.63-.81H9.63a.53.53 0 0 0-.56.51c0 .54.79.66.87 2.16v3.24c0 .7-.12.84-.4.84-.74 0-2.54-2.76-3.62-5.9C5.7 6.23 5.49 6 4.94 6h-2.2c-.63 0-.74.3-.74.62 0 .58.74 3.48 3.45 7.32 1.8 2.63 4.37 4.04 6.67 4.04 1.4 0 1.57-.32 1.57-.86v-1.98c0-.64.13-.75.57-.75.32 0 .9.17 2.19 1.43C17.93 17.32 18.18 18 19 18h2.18c.64 0 .93-.32.76-.94-.19-.62-.9-1.52-1.84-2.58-.5-.6-1.27-1.26-1.5-1.58-.32-.43-.24-.6 0-.99-.02 0 2.64-3.8 2.92-5.08z" />
</svg>
