<?xml version="1.0" encoding="UTF-8"?>
<svg width="24px" height="24px" viewBox="0 0 24 24" version="1.1" xmlns="http://www.w3.org/2000/svg" xmlns:xlink="http://www.w3.org/1999/xlink">
    <!-- Generator: Sketch 51 (57462) - http://www.bohemiancoding.com/sketch -->
    <title>Icons / Feather / walet</title>
    <desc>Created with Sketch.</desc>
    <defs>
        <path d="M17,5.84210526 L20,5.84210526 C21.6568542,5.84210526 23,7.11455913 23,8.68421053 L23,18.1578947 C23,19.7275461 21.6568542,21 20,21 L4,21 C2.34314575,21 1,19.7275461 1,18.1578947 L1,5.84210526 C1,4.27245387 2.34314575,3 4,3 L16,3 C16.5522847,3 17,3.42415129 17,3.94736842 L17,5.84210526 Z M21,10.5789474 L21,8.68421053 C21,8.16099339 20.5522847,7.73684211 20,7.73684211 L3,7.73684211 L3,18.1578947 C3,18.6811119 3.44771525,19.1052632 4,19.1052632 L20,19.1052632 C20.5522847,19.1052632 21,18.6811119 21,18.1578947 L21,16.2631579 L19,16.2631579 C17.3431458,16.2631579 16,14.990704 16,13.4210526 C16,11.8514012 17.3431458,10.5789474 19,10.5789474 L21,10.5789474 Z M3,5.84210526 L15,5.84210526 L15,4.89473684 L4,4.89473684 C3.44771525,4.89473684 3,5.31888813 3,5.84210526 Z M21,14.3684211 L21,12.4736842 L19,12.4736842 C18.4477153,12.4736842 18,12.8978355 18,13.4210526 C18,13.9442698 18.4477153,14.3684211 19,14.3684211 L21,14.3684211 Z" id="path-1"></path>
    </defs>
    <g id="Icons-/-Feather-/-walet" stroke="none" stroke-width="1" fill="none" fill-rule="evenodd">
        <mask id="mask-2" fill="white">
            <use xlink:href="#path-1"></use>
        </mask>
        <g id="Mask"></g>
        <g id="Colors-/-UI-Grays-/-01.-Payne's-grey" mask="url(#mask-2)" fill="#3A3D42">
            <rect id="Color" x="-2.84e-14" y="-5.68e-14" width="24" height="24"></rect>
        </g>
    </g>
</svg>