<?xml version="1.0" encoding="UTF-8"?>
<svg width="24px" height="24px" viewBox="0 0 24 24" version="1.1" xmlns="http://www.w3.org/2000/svg" xmlns:xlink="http://www.w3.org/1999/xlink">
    <!-- Generator: Sketch 51 (57462) - http://www.bohemiancoding.com/sketch -->
    <title>Icons / Feather / weight</title>
    <desc>Created with Sketch.</desc>
    <defs>
        <path d="M8.91286733,6.44444444 C8.7912607,6.09691231 8.72509105,5.72292825 8.72509105,5.33333333 C8.72509105,3.49238417 10.2025514,2 12.0250911,2 C13.8476307,2 15.3250911,3.49238417 15.3250911,5.33333333 C15.3250911,5.72292825 15.2589214,6.09691231 15.1373148,6.44444444 L17.1983224,6.44444444 C18.6682978,6.44444444 19.9601749,7.43103549 20.3640082,8.86204068 L22.8724752,17.7509296 C23.3720066,19.5210463 22.359631,21.3659989 20.611271,21.8717465 C20.3171265,21.9568336 20.0127043,22 19.7067894,22 L4.29236295,22 C2.4740411,22 1,20.5076158 1,18.6666667 C1,18.3569449 1.04263583,18.0487345 1.12667713,17.7509296 L3.63514414,8.86204068 C4.03897744,7.43103549 5.33085457,6.44444444 6.80082997,6.44444444 L8.91286733,6.44444444 Z M6.80082997,8.66666667 C6.31083817,8.66666667 5.88021246,8.99553035 5.74560136,9.47253208 L3.23713435,18.361421 C3.20912058,18.4606893 3.19490864,18.5634261 3.19490864,18.6666667 C3.19490864,19.2803164 3.68625567,19.7777778 4.29236295,19.7777778 L19.7067894,19.7777778 C19.808761,19.7777778 19.9102351,19.763389 20.0082833,19.7350266 C20.5910699,19.5664441 20.9285285,18.9514599 20.762018,18.361421 L18.253551,9.47253208 C18.1189399,8.99553035 17.6883142,8.66666667 17.1983224,8.66666667 L6.80082997,8.66666667 Z M11.5142315,15.5281578 C11.6306141,15.6401533 11.6888046,15.767419 11.6888046,15.9099586 C11.6888046,16.0524983 11.6369392,16.179764 11.5332068,16.2917595 C11.4294745,16.4037549 11.3092986,16.4597518 11.1726755,16.4597518 C11.0411126,16.4597518 10.9196717,16.4063002 10.8083491,16.2993955 L9.14611006,14.7492841 L9.14611006,15.9175947 C9.14611006,16.0957693 9.09171465,16.2306709 8.9829222,16.3223035 C8.87412975,16.4139362 8.73877374,16.4597518 8.57685009,16.4597518 C8.40986634,16.4597518 8.2719803,16.4139362 8.16318786,16.3223035 C8.05439541,16.2306709 8,16.0957693 8,15.9175947 L8,11.5421572 C8,11.3639826 8.05439541,11.229081 8.16318786,11.1374483 C8.2719803,11.0458156 8.40986634,11 8.57685009,11 C8.73877374,11 8.87412975,11.0458156 8.9829222,11.1374483 C9.09171465,11.229081 9.14611006,11.3639826 9.14611006,11.5421572 L9.14611006,14.2758511 L10.6641366,12.7715558 C10.7754591,12.6595604 10.8994301,12.6035635 11.0360531,12.6035635 C11.1777363,12.6035635 11.3017072,12.6557424 11.4079696,12.7601018 C11.514232,12.8644612 11.5673624,12.9879089 11.5673624,13.1304486 C11.5673624,13.2628069 11.509172,13.3875273 11.3927894,13.5046134 L10.3833017,14.4743875 L11.5142315,15.5281578 Z M15.43074,12.5959275 C15.6027839,12.5959275 15.7406699,12.6455611 15.8444023,12.7448298 C15.9481346,12.8440985 16,12.9751821 16,13.1380846 L16,16.0168629 C16,16.6226565 15.8254287,17.080813 15.4762808,17.3913458 C15.127133,17.7018787 14.6160691,17.8571429 13.943074,17.8571429 C13.3763413,17.8571429 12.9108178,17.7553303 12.5464896,17.5517022 C12.4554075,17.5007952 12.384567,17.438435 12.3339658,17.3646198 C12.2833647,17.2908046 12.2580645,17.2080819 12.2580645,17.1164493 C12.2580645,16.9891817 12.2884247,16.8848238 12.3491461,16.8033726 C12.4098675,16.7219213 12.4908281,16.6811963 12.5920304,16.6811963 C12.6476916,16.6811963 12.7134721,16.6926502 12.7893738,16.7155584 C12.8652755,16.7384665 12.9437061,16.7651923 13.0246679,16.7957366 C13.1865916,16.856825 13.3358627,16.9051859 13.4724858,16.9408209 C13.6091088,16.9764558 13.7558499,16.994273 13.9127135,16.994273 C14.2365608,16.994273 14.4769126,16.9204589 14.6337761,16.7728285 C14.7906396,16.6251981 14.8690702,16.4012105 14.8690702,16.1008591 L14.8690702,15.6885142 C14.7628078,15.8819609 14.6034166,16.0346797 14.3908918,16.1466752 C14.1783671,16.2586706 13.9405453,16.3146675 13.6774194,16.3146675 C13.3535721,16.3146675 13.0664149,16.2383081 12.8159393,16.085587 C12.5654636,15.9328659 12.3693872,15.7152416 12.227704,15.4327076 C12.0860208,15.1501736 12.0151803,14.8231008 12.0151803,14.4514795 C12.0151803,14.0798581 12.0860208,13.7527854 12.227704,13.4702514 C12.3693872,13.1877173 12.5654636,12.9688204 12.8159393,12.8135539 C13.0664149,12.6582875 13.3535721,12.5806554 13.6774194,12.5806554 C13.9354852,12.5806554 14.1695119,12.6353797 14.3795066,12.7448298 C14.5895014,12.8542799 14.7501576,13.005726 14.8614801,13.1991728 L14.8614801,13.1228126 C14.8614801,12.9599101 14.9133455,12.8313718 15.0170778,12.7371938 C15.1208101,12.6430158 15.2586962,12.5959275 15.43074,12.5959275 Z M14.0113852,15.4365256 C13.7431992,15.4365256 13.5332076,15.349985 13.3814042,15.176901 C13.2296008,15.0038171 13.1537002,14.7620124 13.1537002,14.4514795 C13.1537002,14.1409466 13.2296008,13.8978692 13.3814042,13.7222399 C13.5332076,13.5466106 13.7431992,13.4587973 14.0113852,13.4587973 C14.2795712,13.4587973 14.4882978,13.5466106 14.6375712,13.7222399 C14.7868445,13.8978692 14.8614801,14.1409466 14.8614801,14.4514795 C14.8614801,14.7620124 14.7868445,15.0038171 14.6375712,15.176901 C14.4882978,15.349985 14.2795712,15.4365256 14.0113852,15.4365256 Z M12.0250911,6.44444444 C11.4175778,6.44444444 10.9250911,5.94698306 10.9250911,5.33333333 C10.9250911,4.71968361 11.4175778,4.22222222 12.0250911,4.22222222 C12.6326043,4.22222222 13.1250911,4.71968361 13.1250911,5.33333333 C13.1250911,5.94698306 12.6326043,6.44444444 12.0250911,6.44444444 Z" id="path-1"></path>
    </defs>
    <g id="Icons-/-Feather-/-weight" stroke="none" stroke-width="1" fill="none" fill-rule="evenodd">
        <mask id="mask-2" fill="white">
            <use xlink:href="#path-1"></use>
        </mask>
        <g id="Mask"></g>
        <g id="Colors-/-UI-Grays-/-01.-Payne's-grey" mask="url(#mask-2)" fill="#3A3D42">
            <rect id="Color" x="-2.84e-14" y="-5.68e-14" width="24" height="24"></rect>
        </g>
    </g>
</svg>