<?xml version="1.0" encoding="UTF-8"?>
<svg width="24px" height="24px" viewBox="0 0 24 24" version="1.1" xmlns="http://www.w3.org/2000/svg" xmlns:xlink="http://www.w3.org/1999/xlink">
    <!-- Generator: Sketch 51 (57462) - http://www.bohemiancoding.com/sketch -->
    <title>Icons / Feather / eletric window</title>
    <desc>Created with Sketch.</desc>
    <defs>
        <path d="M4.00814364,18 L20,18 C20.5522847,18 21,17.5522847 21,17 L21,7 C21,6.44771525 20.5522847,6 20,6 L12.4387723,6 C7.22588228,6 3,10.2258823 2.99997306,15.4283918 L3.00815711,17.0051902 C3.01101308,17.5554417 3.45788472,18 4.00814364,18 Z M4.00814364,20 C2.35736688,20 1.01675195,18.6663252 1.00818405,17.0155707 L1,15.4387723 C1,9.12131278 6.12131278,4 12.4387723,4 L20,4 C21.6568542,4 23,5.34314575 23,7 L23,17 C23,18.6568542 21.6568542,20 20,20 L4.00814364,20 Z M14.9673244,11.1272727 C14.9073784,10.9818182 14.8174595,10.9090909 14.6975676,10.9090909 L12.3297027,10.9090909 L12.5994595,8.4 C12.6294324,8.25454545 12.5395135,8.07272727 12.4196216,8.03636364 C12.2997297,7.96363636 12.1498649,8 12.0599459,8.14545455 L9.06264861,12.5090909 C9.00270266,12.6181818 8.97272969,12.7636364 9.03267563,12.9090909 C9.09262158,13.0181818 9.1825405,13.0909091 9.3024324,13.0909091 L11.6702973,13.0909091 L11.4005405,15.6 C11.3705676,15.7454545 11.4604865,15.9272727 11.5803784,15.9636364 C11.6103513,16 11.6702973,16 11.7002703,16 C11.7901892,16 11.8801081,15.9636364 11.9400541,15.8545455 L14.9373514,11.4909091 C14.9972973,11.3818182 15.0272703,11.2363636 14.9673244,11.1272727 Z" id="path-1"></path>
    </defs>
    <g id="Icons-/-Feather-/-eletric-window" stroke="none" stroke-width="1" fill="none" fill-rule="evenodd">
        <mask id="mask-2" fill="white">
            <use xlink:href="#path-1"></use>
        </mask>
        <g id="Mask" fill-rule="nonzero"></g>
        <g id="Colors-/-UI-Grays-/-01.-Payne's-grey" mask="url(#mask-2)" fill="#3A3D42">
            <rect id="Color" x="-2.84e-14" y="-5.68e-14" width="24" height="24"></rect>
        </g>
    </g>
</svg>