<svg
  width="24"
  height="24"
  viewBox="0 0 24 24"
  xmlns="http://www.w3.org/2000/svg"
  fill="none"
  stroke="currentColor"
  stroke-width="2"
  stroke-linecap="round"
  stroke-linejoin="round"
>
  <path d="M20.333 3c0 2.25-1.666 4.5-3.889 4.5C14.222 7.5 12 8.625 12 9.75v1.125m-5.556 6.75v-1.688m0 0V14.25m0 1.688H4.778m1.666 0h1.667M7 21c-2.761 0-5-2.267-5-5.063 0-2.795 2.239-5.062 5-5.062h10c2.761 0 5 2.267 5 5.063C22 18.733 19.761 21 17 21c0 0-2.778 0-4.158-2.25h-1.684C9.778 21 7 21 7 21z" />
  <line x1="15.89" y1="15.94" x2="15.89" y2="15.94" />
  <line x1="19.22" y1="15.94" x2="19.22" y2="15.94" />
  <line x1="17.56" y1="14.25" x2="17.56" y2="14.25" />
  <line x1="17.56" y1="17.63" x2="17.56" y2="17.63" />
</svg>
