<?xml version="1.0" encoding="UTF-8" standalone="no"?>
<svg id="svg2" xmlns:rdf="http://www.w3.org/1999/02/22-rdf-syntax-ns#" xmlns="http://www.w3.org/2000/svg" viewBox="0 0 25.132699 22" width="7.093mm" version="1.1" xmlns:cc="http://creativecommons.org/ns#" height="6.2089mm" xmlns:dc="http://purl.org/dc/elements/1.1/">
 <g id="layer1" transform="translate(-1304.5 -574.54)">
  <path d="m1325.9 574.54c-0.017 2.3197-0.5612 3.6644-1.3055 4.524-0.7441 0.85963-1.75 1.2894-2.875 1.5819-1.125 0.29252-2.3315 0.41901-3.402 0.77173-0.5353 0.17638-1.0491 0.41563-1.4745 0.81128-0.3862 0.35897-0.674 0.85401-0.8016 1.4336h1.5454c0.066-0.13857 0.1526-0.24648 0.2638-0.34996 0.2013-0.18711 0.512-0.35176 0.9298-0.48948 0.8359-0.27535 2.0511-0.41735 3.3115-0.74508 1.2604-0.32769 2.6038-0.86997 3.6215-2.0454 1.0175-1.1755 1.6477-2.9289 1.6663-5.4818l-1.4797-0.0107zm-15.195 9.5334c-3.4337 0-6.2333 2.7996-6.2333 6.2334 0 3.4337 2.7996 6.2333 6.2333 6.2333 1.879 0 3.5678-0.83846 4.7122-2.1602h3.2417c1.1444 1.3218 2.8333 2.1602 4.7122 2.1602 3.4337 0 6.2333-2.7996 6.2333-6.2333 0-3.4338-2.7996-6.2334-6.2333-6.2334h-12.666zm0 1.4957h12.666c2.6253 0 4.7376 2.1122 4.7376 4.7376 0 2.6253-2.1123 4.7376-4.7376 4.7376-1.674 0-3.1392-0.85891-3.9814-2.1619h-0.05-1.6434-1.3167-1.6497-0.044c-0.8421 1.303-2.3074 2.1619-3.9813 2.1619-2.6255 0-4.7376-2.1122-4.7376-4.7376s2.1121-4.7376 4.7376-4.7376zm0.076 1.6719c-0.5346 0-0.9651 0.43469-0.9651 0.97466v0.9605h-0.9794c-0.5348 0-0.9652 0.43465-0.9652 0.97466 0 0.53997 0.4304 0.97467 0.9652 0.97467h0.9794v0.96044c0 0.54001 0.4305 0.97471 0.9651 0.97471 0.5348 0 0.9652-0.4347 0.9652-0.97471v-0.96044h0.9795c0.5348 0 0.9652-0.4347 0.9652-0.97467 0-0.54001-0.4304-0.97466-0.9652-0.97466h-0.9795v-0.9605c0-0.53997-0.4304-0.97466-0.9652-0.97466zm12.605 0.00013a0.97106 0.97106 0 0 0 -0.7009 0.28431 0.97106 0.97106 0 0 0 0 1.3733 0.97106 0.97106 0 0 0 1.3733 0 0.97106 0.97106 0 0 0 0 -1.3733 0.97106 0.97106 0 0 0 -0.6724 -0.28431zm-1.9388 1.9387a0.97106 0.97106 0 0 0 -0.7008 0.28435 0.97106 0.97106 0 0 0 0 1.3733 0.97106 0.97106 0 0 0 1.3733 0 0.97106 0.97106 0 0 0 0 -1.3733 0.97106 0.97106 0 0 0 -0.6725 -0.28435zm3.8775 0a0.97106 0.97106 0 0 0 -0.7008 0.28435 0.97106 0.97106 0 0 0 0 1.3733 0.97106 0.97106 0 0 0 1.3733 0 0.97106 0.97106 0 0 0 0 -1.3733 0.97106 0.97106 0 0 0 -0.6725 -0.28435zm-1.9387 1.9388a0.97106 0.97106 0 0 0 -0.7009 0.2843 0.97106 0.97106 0 0 0 0 1.3733 0.97106 0.97106 0 0 0 1.3733 0 0.97106 0.97106 0 0 0 0 -1.3733 0.97106 0.97106 0 0 0 -0.6724 -0.2843z"/>
</g>
</svg>
