<?xml version="1.0" encoding="UTF-8" standalone="no"?>
<svg
   xmlns:dc="http://purl.org/dc/elements/1.1/"
   xmlns:cc="http://creativecommons.org/ns#"
   xmlns:rdf="http://www.w3.org/1999/02/22-rdf-syntax-ns#"
   xmlns:svg="http://www.w3.org/2000/svg"
   xmlns="http://www.w3.org/2000/svg"
   version="1.1"
   id="svg2"
   viewBox="0 0 25.132699 22"
   height="6.2088885mm"
   width="7.0930061mm">
  <defs
     id="defs4" />
  <metadata
     id="metadata7">
    <rdf:RDF>
      <cc:Work
         rdf:about="">
        <dc:format>image/svg+xml</dc:format>
        <dc:type
           rdf:resource="http://purl.org/dc/dcmitype/StillImage" />
        <dc:title></dc:title>
      </cc:Work>
    </rdf:RDF>
  </metadata>
  <g
     transform="translate(-1304.4507,-574.53694)"
     id="layer1">
    <path
       id="path3987"
       d="m 1325.8787,574.53694 c -0.017,2.31971 -0.5612,3.6644 -1.3055,4.52399 -0.7441,0.85963 -1.75,1.28937 -2.875,1.58189 -1.125,0.29252 -2.3315,0.41901 -3.402,0.77173 -0.5353,0.17638 -1.0491,0.41563 -1.4745,0.81128 -0.3862,0.35897 -0.674,0.85401 -0.8016,1.43365 l 1.5454,0 c 0.066,-0.13857 0.1526,-0.24648 0.2638,-0.34996 0.2013,-0.18711 0.512,-0.35176 0.9298,-0.48948 0.8359,-0.27535 2.0511,-0.41735 3.3115,-0.74508 1.2604,-0.32769 2.6038,-0.86997 3.6215,-2.04543 1.0175,-1.17546 1.6477,-2.92894 1.6663,-5.4818 l -1.4797,-0.0107 z m -15.1947,9.53335 c -3.4337,0 -6.2333,2.7996 -6.2333,6.23335 0,3.43371 2.7996,6.2333 6.2333,6.2333 1.879,0 3.5678,-0.83846 4.7122,-2.16023 l 3.2417,0 c 1.1444,1.32177 2.8333,2.16023 4.7122,2.16023 3.4337,0 6.2333,-2.79959 6.2333,-6.2333 0,-3.43375 -2.7996,-6.23335 -6.2333,-6.23335 l -12.6661,0 z m 0,1.49573 12.6661,0 c 2.6253,0 4.7376,2.11224 4.7376,4.73762 0,2.62533 -2.1123,4.73756 -4.7376,4.73756 -1.674,0 -3.1392,-0.85891 -3.9814,-2.16188 l -0.05,0 -1.6434,0 -1.3167,0 -1.6497,0 -0.044,0 c -0.8421,1.30297 -2.3074,2.16188 -3.9813,2.16188 -2.6255,0 -4.7376,-2.11223 -4.7376,-4.73756 0,-2.62538 2.1121,-4.73762 4.7376,-4.73762 z m 0.076,1.67189 c -0.5346,0 -0.9651,0.43469 -0.9651,0.97466 l 0,0.9605 -0.9794,0 c -0.5348,0 -0.9652,0.43465 -0.9652,0.97466 0,0.53997 0.4304,0.97467 0.9652,0.97467 l 0.9794,0 0,0.96044 c 0,0.54001 0.4305,0.97471 0.9651,0.97471 0.5348,0 0.9652,-0.4347 0.9652,-0.97471 l 0,-0.96044 0.9795,0 c 0.5348,0 0.9652,-0.4347 0.9652,-0.97467 0,-0.54001 -0.4304,-0.97466 -0.9652,-0.97466 l -0.9795,0 0,-0.9605 c 0,-0.53997 -0.4304,-0.97466 -0.9652,-0.97466 z m 12.6051,1.3e-4 a 0.97105794,0.97105794 0 0 0 -0.7009,0.28431 0.97105794,0.97105794 0 0 0 0,1.37331 0.97105794,0.97105794 0 0 0 1.3733,0 0.97105794,0.97105794 0 0 0 0,-1.37331 0.97105794,0.97105794 0 0 0 -0.6724,-0.28431 z m -1.9388,1.93873 a 0.97105794,0.97105794 0 0 0 -0.7008,0.28435 0.97105794,0.97105794 0 0 0 0,1.37326 0.97105794,0.97105794 0 0 0 1.3733,0 0.97105794,0.97105794 0 0 0 0,-1.37326 0.97105794,0.97105794 0 0 0 -0.6725,-0.28435 z m 3.8775,0 a 0.97105794,0.97105794 0 0 0 -0.7008,0.28435 0.97105794,0.97105794 0 0 0 0,1.37326 0.97105794,0.97105794 0 0 0 1.3733,0 0.97105794,0.97105794 0 0 0 0,-1.37326 0.97105794,0.97105794 0 0 0 -0.6725,-0.28435 z m -1.9387,1.93877 a 0.97105794,0.97105794 0 0 0 -0.7009,0.2843 0.97105794,0.97105794 0 0 0 0,1.37331 0.97105794,0.97105794 0 0 0 1.3733,0 0.97105794,0.97105794 0 0 0 0,-1.37331 0.97105794,0.97105794 0 0 0 -0.6724,-0.2843 z"
       style="opacity:1;fill:#000000;fill-opacity:1;stroke:none;stroke-width:48.51699829;stroke-linecap:butt;stroke-linejoin:miter;stroke-miterlimit:4;stroke-dasharray:none;stroke-opacity:1" />
  </g>
</svg>
