<svg
  width="131"
  height="85"
  viewBox="0 0 131 85"
  xmlns="http://www.w3.org/2000/svg"
>
  <g fill="none">
    <path
      d="M50 84.97s19.162 1.34 26-13.855c0 0-19.553-2.316-26 13.855z"
      fill="#1ED7B4"
    />
    <path d="M43 85h37s-13.609-11.25-37 0z" fill="#29EDC7" />
    <path
      d="M48.085 84.94c8.346-.017 14.838-7.462 13.807-15.904-2.024-16.573-8.872-40.81-31.412-45.499-28.709-5.97-21.54 39.436-18.084 55.77.707 3.328 3.598 5.7 6.939 5.693l28.75-.06z"
      fill="#1494FC"
    />
    <path
      d="M16.157 27C13.266 66.145 29.267 84.175 30 84.978L18.96 85c-2.864.003-5.364-1.984-6.064-4.82v-.01c-1.464-5.9-9.63-41.018 3.261-53.17z"
      fill="#1088ED"
    />
    <path
      d="M61 67s-1.864-14.882-17-18c-.003.003 9.706 4.112 17 18z"
      fill="#F29CA0"
    />
    <path
      d="M4.2 45S.993 65.675 9 85c0 0-16.517-15.128-4.8-40z"
      fill="#F2F2F2"
    />
    <path
      d="M49.906 72s16.793-4.047 28.315-8.485c8.488-3.272 18.042-11.23 12.13-13.087-2.334-.74-14.083 7.694-27.265 6.704 0 0 27.264-6.704 31.805-19.405C98.6 27.359 78.433 46.22 63.086 47.7c0 0 19.782-6.525 30.82-17.607 3.332-3.349 3.148-8.685-3.938-4.923-5.55 2.943-19.094 10.452-32.523 14.129 0 0 33.732-16.586 33.973-21.411.426-8.521-38.596 13.933-64.588 24.694 0 0-7.58 28.824 23.076 29.417z"
      fill="#F7C6C9"
    />
    <path
      d="M15.074 79S58.234 76.66 63 62.09C47.198 65.226-.47 35.337 15.074 79z"
      fill="#F7C6C9"
    />
    <path
      d="M51 28s21.203-17.92 38.147-13.934l-1.87 6.008L103 13.386 93.451 0l-1.596 5.47S70.73-3.616 51 28z"
      fill="#FEE200"
    />
    <path
      d="M96 42.502C78.84 41.378 66.733 57.486 50.08 59A9734.053 9734.053 0 0 1 42 36.866C59.6 38.32 71.827 20.334 87.454 15A1217.72 1217.72 0 0 1 96 42.502z"
      fill="#1ED7B4"
    />
    <path
      d="M44.344 42.983c3.644.315 5.498-3.73 4.287-6.983-2.178.5-4.42.607-6.631.316.78 2.221 1.561 4.443 2.344 6.667z"
      fill="#00BF84"
    />
    <path
      d="M57 57.634c-1.378-3.912-5.462-5.628-9-5.634.787 2.333 1.576 4.666 2.367 7A24.437 24.437 0 0 0 57 57.634z"
      fill="#00BF84"
    />
    <path
      d="M90 22.847c-3.658.757-7.688-1.36-9-5.005 2.082-1.135 4.252-2.16 6.517-2.842.834 2.613 1.662 5.229 2.483 7.847z"
      fill="#00BF84"
    />
    <path
      d="M89.356 43c-.963-3.253-.097-9.115 4.133-8.998A1164.17 1164.17 0 0 1 96 42.668c-2.2-.284-4.462-.1-6.644.332z"
      fill="#00BF84"
    />
    <path
      d="M51 55.873c-.77.08-1.145.106-1.913.127A8140.456 8140.456 0 0 1 43 40c.642.071 1.288.105 1.934.103 2.019 5.259 4.04 10.515 6.066 15.77z"
      fill="#00BF84"
    />
    <path
      d="M54 56.295C67.6 52.788 78.178 41.853 92.305 40L93 42.186C78.848 43.626 68.146 54.416 54.646 58L54 56.295z"
      fill="#00BF84"
    />
    <path
      d="M47 36.308C61.328 34.161 71.594 21.946 84.335 16c.267.778.4 1.167.665 1.95C72.11 23.616 61.912 35.69 47.641 38L47 36.308z"
      fill="#00BF84"
    />
    <path
      d="M93.148 38.986A17.494 17.494 0 0 1 95 39a1309.944 1309.944 0 0 0-6.194-20c-.725.181-1.085.286-1.806.52a1265.602 1265.602 0 0 1 6.148 19.466z"
      fill="#00BF84"
    />
    <path
      d="M74.66 35.75c1.096 3.136-.581 6.75-3.26 8.405-2.43 1.493-5.957 1.093-7.065-1.89-1.139-3.067.792-6.552 3.273-8.248 2.43-1.66 5.938-1.426 7.052 1.733"
      fill="#00BF84"
    />
    <path
      d="M57.882 45.181c.372 1.016-.164 2.242-1.201 2.67-1.037.43-2.18-.11-2.56-1.135-.38-1.026.172-2.134 1.211-2.554 1.039-.42 2.18 0 2.55 1.02"
      fill="#00BF84"
    />
    <path
      d="M83.868 30.24c.392 1.014-.116 2.137-1.174 2.596a2.025 2.025 0 0 1-1.528.028c-.49-.19-.87-.563-1.044-1.026-.37-1.032.126-2.16 1.173-2.663a1.893 1.893 0 0 1 2.576 1.065"
      fill="#00BF84"
    />
    <path
      d="M11.714 48.367c2.837-4.617 18.696-15.43 23.969-17.882 5.272-2.451 14.624-12.399 16.04-8.65 1.415 3.749-2.66 10.359-10.477 17.69-2.179 2.044-3.9 5.95-5.088 9.399-1.747 5.071-5.161 9.376-9.667 12.189C22.79 63.426 17.55 66.418 10.335 70 8.423 55.588 9.126 50.494 9.126 50.494"
      fill="#FCD2D3"
    />
    <ellipse fill="#B1DDFC" cx="114.5" cy="30" rx="16.5" ry="17" />
    <path
      d="M121.983 28h-15.967c-.482 0-.897-.369-.995-.884-.097-.514.15-1.033.591-1.242l7.984-3.783a.938.938 0 0 1 .808 0l7.984 3.783c.442.209.689.728.59 1.243-.097.515-.513.884-.995.883z"
      fill="#FFF"
    />
    <path
      d="M121.985 29h-15.97c-.363 0-.698-.19-.879-.5a.987.987 0 0 1 0-1c.181-.31.516-.5.879-.5h15.97c.363 0 .698.19.879.5.181.31.181.69 0 1-.181.31-.516.5-.879.5z"
      fill="#FFF"
    />
    <rect fill="#FFF" x="107" y="28" width="2" height="9" />
    <rect fill="#FFF" x="113" y="28" width="2" height="9" />
    <rect fill="#FFF" x="119" y="28" width="2" height="9" />
    <path
      d="M122.985 37h-16.97c-.56 0-1.015-.448-1.015-1s.455-1 1.015-1h16.97c.56 0 1.015.448 1.015 1s-.455 1-1.015 1z"
      fill="#FFF"
    />
    <path
      d="M108.887 36h-2.774c-.615 0-1.113-.448-1.113-1s.498-1 1.113-1h2.774c.615 0 1.113.448 1.113 1s-.498 1-1.113 1z"
      fill="#FFF"
    />
    <path
      d="M114.887 36h-2.774c-.615 0-1.113-.448-1.113-1s.498-1 1.113-1h2.774c.615 0 1.113.448 1.113 1s-.498 1-1.113 1z"
      fill="#FFF"
    />
    <path
      d="M121.887 36h-2.774c-.615 0-1.113-.448-1.113-1s.498-1 1.113-1h2.774c.615 0 1.113.448 1.113 1s-.498 1-1.113 1z"
      fill="#FFF"
    />
    <path
      d="M121.887 30h-2.774c-.615 0-1.113-.448-1.113-1s.498-1 1.113-1h2.774c.398 0 .765.19.964.5.199.31.199.69 0 1-.199.31-.566.5-.964.5z"
      fill="#FFF"
    />
    <path
      d="M114.887 30h-2.774c-.615 0-1.113-.448-1.113-1s.498-1 1.113-1h2.774c.615 0 1.113.448 1.113 1s-.498 1-1.113 1z"
      fill="#FFF"
    />
    <path
      d="M108.887 30h-2.774c-.398 0-.765-.19-.964-.5a.913.913 0 0 1 0-1c.199-.31.566-.5.964-.5h2.774c.398 0 .765.19.964.5.199.31.199.69 0 1-.199.31-.566.5-.964.5z"
      fill="#FFF"
    />
    <path
      d="M11.807 49l-2.783 2.433S8.476 66.077 12.601 80H15s-3.87-18.255-3.193-31z"
      fill="#F7C6C9"
    />
  </g>
</svg>
