<svg
  width="56"
  height="56"
  viewBox="0 0 56 56"
  fill="none"
  xmlns="http://www.w3.org/2000/svg"
>
  <rect opacity=".15" width="56" height="56" rx="16" fill="#DE350B" />
  <path
    d="M34.328 40H21.672a2.816 2.816 0 0 1-2.813-2.813v-1.453c0-2.415 2.734-4.712 4.73-6.39.27-.227.525-.442.749-.636a.945.945 0 0 0 .334-.708.944.944 0 0 0-.334-.708c-.224-.194-.48-.409-.75-.636-1.995-1.678-4.729-3.975-4.729-6.39v-1.453A2.816 2.816 0 0 1 21.672 16h12.656a2.816 2.816 0 0 1 2.813 2.813v1.453c0 2.415-2.734 4.712-4.73 6.39-.27.227-.525.442-.749.636a.945.945 0 0 0-.334.708c0 .265.122.523.334.708.232.201.499.425.781.661.915.766 2.053 1.718 2.962 2.743A.938.938 0 0 1 34 33.356c-.815-.92-1.85-1.786-2.761-2.55a44.06 44.06 0 0 1-.808-.684A2.818 2.818 0 0 1 29.453 28c0-.808.357-1.581.979-2.122.235-.205.497-.425.773-.657 1.519-1.277 4.06-3.414 4.06-4.955v-1.453a.939.939 0 0 0-.937-.938H21.672a.939.939 0 0 0-.938.938v1.453c0 1.541 2.542 3.678 4.06 4.955.277.232.539.452.774.657.622.54.979 1.314.979 2.122 0 .808-.357 1.581-.979 2.122-.235.205-.497.425-.773.657-1.519 1.277-4.06 3.414-4.06 4.955v1.453c0 .517.42.938.937.938h12.656c.517 0 .938-.42.938-.938a.937.937 0 1 1 1.875 0A2.816 2.816 0 0 1 34.328 40z"
    fill="#DE350B"
  />
  <path
    d="M31.84 36.11c.697 0 1.06-.83.586-1.34a76.243 76.243 0 0 0-.023-.026c-.713-.762-3.397-3.027-3.432-3.056a1.491 1.491 0 0 0-1.942 0c-.035.03-2.718 2.294-3.431 3.056l-.024.026c-.474.51-.11 1.34.586 1.34h7.68z"
    fill="#F2AD9C"
  />
</svg>
