<svg
  data-name="Layer 1"
  xmlns="http://www.w3.org/2000/svg"
  xmlns:xlink="http://www.w3.org/1999/xlink"
  width="729.47"
  height="695.09"
  viewBox="0 0 729.47 695.09"
>
  <defs>
    <linearGradient
      id="a"
      x1="611.98"
      y1="687.2"
      x2="611.98"
      y2="258.73"
      gradientUnits="userSpaceOnUse"
    >
      <stop offset="0" stop-color="gray" stop-opacity=".25" />
      <stop offset=".54" stop-color="gray" stop-opacity=".12" />
      <stop offset="1" stop-color="gray" stop-opacity=".1" />
    </linearGradient>
    <linearGradient
      id="c"
      x1="410.91"
      y1="358.56"
      x2="452.61"
      y2="86.08"
      gradientTransform="matrix(1.01 .13 -.13 1.02 62.29 -41.05)"
      xlink:href="#a"
    />
    <linearGradient
      id="d"
      x1="597.01"
      y1="453.03"
      x2="597.01"
      y2="138.64"
      gradientTransform="rotate(20.42 597.09 295.9)"
      xlink:href="#a"
    />
    <linearGradient
      id="e"
      x1="756.62"
      y1="488.3"
      x2="772.25"
      y2="249.01"
      gradientTransform="matrix(.26 .99 -1.02 .25 910.43 -476.82)"
      xlink:href="#a"
    />
    <linearGradient
      id="f"
      x1="310"
      y1="695.09"
      x2="310"
      y2="203.86"
      xlink:href="#a"
    />
    <linearGradient
      id="b"
      x1="545.79"
      y1="695.81"
      x2="545.79"
      y2="464.64"
      gradientUnits="userSpaceOnUse"
    >
      <stop offset="0" stop-color="#b3b3b3" stop-opacity=".25" />
      <stop offset=".54" stop-color="#b3b3b3" stop-opacity=".1" />
      <stop offset="1" stop-color="#b3b3b3" stop-opacity=".05" />
    </linearGradient>
    <linearGradient
      id="g"
      x1="310.8"
      y1="580.62"
      x2="310.8"
      y2="375.85"
      xlink:href="#b"
    />
    <clipPath id="h" transform="translate(-235.26 -102.45)">
      <rect
        x="400.07"
        y="483.3"
        width="291.69"
        height="194.01"
        rx="8.85"
        ry="8.85"
        fill="#fff"
      />
    </clipPath>
  </defs>
  <polygon
    points="618.97 687.2 513.53 687.2 513.53 258.73 710.42 258.73 618.97 687.2"
    fill="url(#a)"
  />
  <polygon
    points="613.72 687.2 510.37 687.2 510.37 258.73 703.35 258.73 613.72 687.2"
    fill="#f5f5f5"
  />
  <rect
    x="249.88"
    y="158.45"
    width="439.19"
    height="168.85"
    transform="rotate(-15.62 -21.728 1049.253)"
    fill="url(#c)"
  />
  <rect
    x="254.32"
    y="160.66"
    width="431.85"
    height="163.44"
    transform="rotate(-15.62 -20.95 1048.728)"
    fill="#f4f4f4"
  />
  <rect
    x="367.9"
    y="230.63"
    width="108.65"
    height="8.29"
    transform="rotate(-15.62 -68.97 1041.139)"
    fill="#f5f5f5"
  />
  <rect
    x="376.82"
    y="262.55"
    width="108.65"
    height="8.29"
    transform="rotate(-15.62 -60.05 1073.04)"
    fill="#fff"
  />
  <rect
    x="371.14"
    y="237.71"
    width="174.6"
    height="8.29"
    transform="rotate(-15.62 -32.765 1048.221)"
    fill="#fff"
  />
  <circle
    cx="329.58"
    cy="277.88"
    r="19.34"
    transform="rotate(-15.62 -161.6 1084.217)"
    fill="#fff"
  />
  <rect
    x="376.38"
    y="210.25"
    width="441.26"
    height="171.17"
    transform="rotate(-20.42 195.057 897.759)"
    fill="url(#d)"
  />
  <rect
    x="381.03"
    y="214.81"
    width="431.85"
    height="163.44"
    transform="rotate(-20.42 195.02 898.44)"
    fill="#f7f7f7"
  />
  <rect
    x="494.14"
    y="288.83"
    width="108.65"
    height="8.29"
    transform="rotate(-20.42 146.505 894.89)"
    fill="#f5f5f5"
  />
  <rect
    x="505.71"
    y="319.89"
    width="108.65"
    height="8.29"
    transform="rotate(-20.42 158.079 925.951)"
    fill="#fff"
  />
  <rect
    x="497.85"
    y="292.85"
    width="174.6"
    height="8.29"
    transform="matrix(.94 -.35 .35 .94 -302.12 120.41)"
    fill="#fff"
  />
  <circle
    cx="459.76"
    cy="343.69"
    r="19.34"
    transform="rotate(-20.42 57.805 945.61)"
    fill="#fff"
  />
  <rect
    x="646.89"
    y="150.88"
    width="172.17"
    height="440.14"
    transform="rotate(-79.9 554.185 460.16)"
    fill="url(#e)"
  />
  <rect
    x="515.81"
    y="288.22"
    width="431.85"
    height="163.44"
    transform="rotate(10.1 1193.786 -1012.45)"
    fill="#fafafa"
  />
  <rect
    x="687.63"
    y="287.92"
    width="8.29"
    height="108.65"
    transform="rotate(-79.9 512.984 431.46)"
    fill="#f5f5f5"
  />
  <rect
    x="681.81"
    y="320.56"
    width="8.29"
    height="108.65"
    transform="rotate(-79.9 507.173 464.093)"
    fill="#fff"
  />
  <rect
    x="717.18"
    y="277.05"
    width="8.29"
    height="174.6"
    transform="rotate(-79.9 542.536 453.562)"
    fill="#fff"
  />
  <circle
    cx="589.6"
    cy="340.88"
    r="19.34"
    transform="rotate(-79.9 410.809 430.091)"
    fill="#fff"
  />
  <polygon
    points="171.78 253.69 100.61 203.86 2.07 203.86 2.07 253.69 2.07 278.1 2.07 695.09 617.93 695.09 617.93 253.69 171.78 253.69"
    fill="url(#f)"
  />
  <polygon
    points="174.44 258.73 104.36 210.36 7.34 210.36 7.34 258.73 7.34 282.43 7.34 687.2 613.72 687.2 613.72 258.73 174.44 258.73"
    fill="#fff"
  />
  <path
    d="M711.54 688.53a7.25 7.25 0 0 1-7.21 7.28H387.26a7.25 7.25 0 0 1-7.21-7.28v-216.6a7.25 7.25 0 0 1 7.21-7.28h317.07a7.25 7.25 0 0 1 7.21 7.28"
    transform="translate(-235.26 -102.45)"
    fill="url(#b)"
  />
  <path
    d="M472.55 582.55a7 7 0 0 1-7 7H155.79a7 7 0 0 1-7-7V373.17a7 7 0 0 1 7-7h309.72a7 7 0 0 1 7 7"
    fill="#fff"
  />
  <rect
    x="161.12"
    y="375.85"
    width="299.37"
    height="204.76"
    rx="8.85"
    ry="8.85"
    fill="url(#g)"
    data-name="&ltRectangle&gt"
  />
  <rect
    x="164.8"
    y="380.84"
    width="291.69"
    height="194.01"
    rx="8.85"
    ry="8.85"
    fill="#fff"
  />
  <g clip-path="url(#h)">
    <path
      d="M148.58 573.08l81.44-93.31a16.21 16.21 0 0 1 22.94-1.5l22.78 20.12a16.21 16.21 0 0 0 21.16.25l69.7-58.58a16.21 16.21 0 0 1 22.44 1.49l85.53 94.14a16.21 16.21 0 0 1 4.15 9.47l3.3 37.13a16.21 16.21 0 0 1-16.15 17.65H160.8a16.21 16.21 0 0 1-16.2-15.72 16.21 16.21 0 0 1 3.98-11.14z"
      fill="#1494fc"
    />
  </g>
  <circle cx="199.93" cy="411.95" r="18.06" fill="#ff5252" />
</svg>
