<svg
  width="56"
  height="57"
  viewBox="0 0 56 57"
  fill="none"
  xmlns="http://www.w3.org/2000/svg"
>
  <rect opacity=".15" y=".667" width="56" height="56" rx="16" fill="#36B37E" />
  <rect
    x="20"
    y="26"
    width="4"
    height="4"
    rx="1"
    fill="#79DBB1"
    fill-opacity=".8"
  />
  <rect x="18" y="20" width="20" height="3" fill="#36B37E" />
  <rect
    x="26"
    y="26"
    width="4"
    height="4"
    rx="1"
    fill="#79DBB1"
    fill-opacity=".8"
  />
  <rect
    x="32"
    y="26"
    width="4"
    height="4"
    rx="1"
    fill="#79DBB1"
    fill-opacity=".8"
  />
  <rect
    x="20"
    y="32"
    width="4"
    height="4"
    rx="1"
    fill="#79DBB1"
    fill-opacity=".8"
  />
  <rect
    x="26"
    y="32"
    width="4"
    height="4"
    rx="1"
    fill="#79DBB1"
    fill-opacity=".8"
  />
  <path
    fill-rule="evenodd"
    clip-rule="evenodd"
    d="M19 18h18a3 3 0 0 1 3 3v18a3 3 0 0 1-3 3H19a3 3 0 0 1-3-3V21a3 3 0 0 1 3-3zm18 2H19a1 1 0 0 0-1 1v18a1 1 0 0 0 1 1h18a1 1 0 0 0 1-1V21a1 1 0 0 0-1-1z"
    fill="#36B37E"
  />
  <rect x="20" y="15" width="2" height="5" rx="1" fill="#36B37E" />
  <rect x="34" y="15" width="2" height="5" rx="1" fill="#36B37E" />
</svg>
