<svg
  width="56"
  height="56"
  viewBox="0 0 56 56"
  fill="none"
  xmlns="http://www.w3.org/2000/svg"
>
  <rect opacity=".15" width="56" height="56" rx="16" fill="#1594FD" />
  <path
    fill-rule="evenodd"
    clip-rule="evenodd"
    d="M20.416 28.504a2 2 0 0 0-.05 1.682l3.375 7.875a1 1 0 0 0 .92.606h6.68a1 1 0 0 0 .92-.606l3.374-7.875a2 2 0 0 0-.049-1.682L29.334 16v10.667c0 .115-.014.226-.042.333a2.666 2.666 0 0 1-1.291 5 2.667 2.667 0 0 1-1.292-5 1.334 1.334 0 0 1-.041-.333V16l-6.252 12.504z"
    fill="#1594FD"
  />
  <path d="M24 42a2 2 0 0 1 2-2h4a2 2 0 0 1 2 2v.667h-8V42z" fill="#7EB0D9" />
</svg>
