<svg
  width="56"
  height="56"
  viewBox="0 0 56 56"
  fill="none"
  xmlns="http://www.w3.org/2000/svg"
>
  <rect opacity=".15" width="56" height="56" rx="16" fill="#8777D9" />
  <path
    fill-rule="evenodd"
    clip-rule="evenodd"
    d="M15.8 17c0-.067 0-.2.067-.267.134-.333.534-.466.867-.333l24.4 11c.133.067.267.2.333.333.134.334 0 .734-.333.867l-24.4 11c-.067.067-.2.067-.267.067-.4 0-.666-.267-.666-.667v-9l21.333-2-21.333-2v-9z"
    fill="#ABA6E2"
  />
  <path
    fill-rule="evenodd"
    clip-rule="evenodd"
    d="M41.534 28c0-.067 0-.2-.067-.267a.803.803 0 0 0-.333-.333l-24.4-11c-.333-.133-.733 0-.867.333 0 .134-.066.2-.066.267v9l21.333 2h4.4z"
    fill="#8777D9"
  />
</svg>
