<svg
  width="56"
  height="56"
  viewBox="0 0 56 56"
  fill="none"
  xmlns="http://www.w3.org/2000/svg"
>
  <rect opacity=".15" width="56" height="56" rx="16" fill="#DE350B" />
  <path
    d="M18.667 37.333h20a1.333 1.333 0 0 1 0 2.667H17.333A1.333 1.333 0 0 1 16 38.667V17.333a1.333 1.333 0 0 1 2.667 0v20z"
    fill="#DE350B"
  />
  <path
    d="M23.64 31.579a1.333 1.333 0 1 1-1.945-1.824l5-5.334a1.333 1.333 0 0 1 1.838-.102l3.946 3.368 5.142-6.513a1.333 1.333 0 1 1 2.093 1.652l-6 7.6a1.333 1.333 0 0 1-1.912.188l-4.032-3.44-4.13 4.405z"
    fill="#ED7759"
  />
</svg>
