<svg
  width="56"
  height="56"
  viewBox="0 0 56 56"
  fill="none"
  xmlns="http://www.w3.org/2000/svg"
>
  <rect opacity=".15" width="56" height="56" rx="16" fill="#EBBA18" />
  <path
    fill-rule="evenodd"
    clip-rule="evenodd"
    d="M18.923 35.093l1.32-1.445a11.214 11.214 0 0 0 6.507 3.033V38H25a2 2 0 0 0-2 2v.5h10V40a2 2 0 0 0-2-2h-1.75v-1.319c5.625-.621 10-5.39 10-11.181 0-3.639-1.741-6.989-4.624-9.093a1.25 1.25 0 0 0-1.474 2.02 8.75 8.75 0 1 1-11.947 12.587 1.25 1.25 0 0 0-1.893-.055l-2.235 2.448a1.25 1.25 0 1 0 1.846 1.686z"
    fill="#EBBA18"
  />
  <circle opacity=".3" cx="28" cy="25.5" r="7.5" fill="#EBBA18" />
</svg>
