<svg
  width="56"
  height="56"
  viewBox="0 0 56 56"
  fill="none"
  xmlns="http://www.w3.org/2000/svg"
>
  <rect opacity=".15" width="56" height="56" rx="16" fill="#EC6796" />
  <rect x="18" y="18" width="8.75" height="8.75" rx="1.5" fill="#ED6997" />
  <path
    opacity=".3"
    fill-rule="evenodd"
    clip-rule="evenodd"
    d="M29.25 19.5a1.5 1.5 0 0 1 1.5-1.5h5.75a1.5 1.5 0 0 1 1.5 1.5v5.75a1.5 1.5 0 0 1-1.5 1.5h-5.75a1.5 1.5 0 0 1-1.5-1.5V19.5zM18 30.75a1.5 1.5 0 0 1 1.5-1.5h5.75a1.5 1.5 0 0 1 1.5 1.5v5.75a1.5 1.5 0 0 1-1.5 1.5H19.5a1.5 1.5 0 0 1-1.5-1.5v-5.75zm12.75-1.5a1.5 1.5 0 0 0-1.5 1.5v5.75a1.5 1.5 0 0 0 1.5 1.5h5.75a1.5 1.5 0 0 0 1.5-1.5v-5.75a1.5 1.5 0 0 0-1.5-1.5h-5.75z"
    fill="#ED6997"
  />
</svg>
