<svg
  fill="#1494fc"
  width="176"
  height="35.5"
  viewBox="0 0 176 35.5"
  xmlns="http://www.w3.org/2000/svg"
>
  <path d="M168.838 25.807c-4.075 0-7.086-3.103-7.086-6.887v-.05c0-3.809 3.037-6.962 7.137-6.962S176 15.01 176 18.82v.05c0 3.784-3.037 6.937-7.162 6.937zm4.1-6.937c0-2.346-1.696-4.289-4.1-4.289-2.455 0-4.024 1.917-4.024 4.239v.05c0 2.32 1.696 4.263 4.075 4.263 2.48 0 4.049-1.917 4.049-4.213v-.05zm-16.702-.933c0-2.07-1.038-3.255-2.86-3.255-1.772 0-3.012 1.236-3.012 3.305v7.517h-3.062V12.185h3.062v2.043c.861-1.236 2.101-2.32 4.176-2.32 3.012 0 4.758 2.017 4.758 5.095v8.501h-3.062v-7.567zM140.621 7.241h3.291v2.9h-3.291v-2.9zm-6.25 14.101c0 1.185.607 1.664 1.645 1.664.683 0 1.291-.151 1.898-.453v2.497c-.759.429-1.594.681-2.759.681-2.252 0-3.846-.984-3.846-3.91v-7.012h-1.696v-2.624h1.696V8.527h3.062v3.658h3.594v2.624h-3.594v6.533zm-9.945-3.405c0-2.07-1.038-3.255-2.86-3.255-1.771 0-3.011 1.236-3.011 3.305v7.517h-3.063V12.185h3.063v2.043c.86-1.236 2.1-2.32 4.175-2.32 3.012 0 4.758 2.017 4.758 5.095v8.501h-3.062v-7.567zm-21.384 1.992c.329 2.17 1.873 3.38 3.847 3.38 1.493 0 2.556-.555 3.619-1.589l1.797 1.589c-1.266 1.514-3.012 2.498-5.467 2.498-3.872 0-6.858-2.801-6.858-6.912v-.05c0-3.809 2.708-6.937 6.529-6.937 4.252 0 6.403 3.33 6.403 7.164 0 .277-.025.555-.051.857h-9.819zm3.442-5.524c-1.873 0-3.189 1.438-3.467 3.506h6.858c-.202-1.967-1.366-3.506-3.391-3.506zm-11.59 6.937c0 1.185.607 1.664 1.645 1.664.683 0 1.291-.151 1.898-.453v2.497c-.76.429-1.595.681-2.759.681-2.252 0-3.846-.984-3.846-3.91v-7.012h-1.696v-2.624h1.696V8.527h3.062v3.658h3.593v2.624h-3.593v6.533zm-9.945-3.405c0-2.07-1.038-3.255-2.86-3.255-1.771 0-3.011 1.236-3.011 3.305v7.517h-3.063V12.185h3.063v2.043c.86-1.236 2.1-2.32 4.175-2.32 3.012 0 4.758 2.017 4.758 5.095v8.501h-3.062v-7.567zm-18.702 7.87c-4.074 0-7.086-3.103-7.086-6.887v-.05c0-3.809 3.037-6.962 7.137-6.962s7.111 3.102 7.111 6.912v.05c0 3.784-3.037 6.937-7.162 6.937zm4.1-6.937c0-2.346-1.695-4.289-4.1-4.289-2.455 0-4.024 1.917-4.024 4.239v.05c0 2.32 1.696 4.263 4.075 4.263 2.48 0 4.049-1.917 4.049-4.213v-.05zm-15.285 6.634l-6.048-7.946-2.759 2.825v5.121h-3.112V7.846h3.112v8.88l8.428-8.88h3.847l-7.39 7.593 7.719 10.065h-3.797zM17.809 35.513c-4.918 0-9.37-1.987-12.593-5.199A17.665 17.665 0 0 1 0 17.762C0 7.959 7.973.011 17.809.011c4.917 0 9.37 1.987 12.593 5.199a17.667 17.667 0 0 1 5.216 12.552c0 9.804-7.974 17.751-17.809 17.751zm8.721-24.739l-.409-.719-.409-.719a.605.605 0 0 0-.914-.186l-4.225 3.219-4.789 3.649-2.241-1.707-1.678-1.279a.604.604 0 0 0-.914.186l-.403.71-.404.709a.826.826 0 0 0 .219 1.04l2.426 1.814 2.427 1.814h.001c.313.233.823.232 1.135-.002l4.98-3.744 4.981-3.743a.832.832 0 0 0 .217-1.042zm.819 11.781a1.34 1.34 0 0 0-1.342-1.338H9.61a1.34 1.34 0 0 0-1.342 1.338 1.34 1.34 0 0 0 1.342 1.338h16.397a1.34 1.34 0 0 0 1.342-1.338zm116.461 2.949h-3.062V12.185h3.062v13.319z" />
</svg>
