<svg
  xmlns="http://www.w3.org/2000/svg"
  width="1008.92"
  height="607.45"
  viewBox="0 0 1008.92047 607.45001"
>
  <path
    d="M1008.92 474.03a15.34 15.34 0 0 1-15.26 15.42h-671.4A15.34 15.34 0 0 1 307 474.03V15.42A15.34 15.34 0 0 1 322.26 0h671.4a15.34 15.34 0 0 1 15.26 15.42z"
    fill="#e6e6e6"
  />
  <path
    d="M1001 466.52a14.91 14.91 0 0 1-14.91 14.91h-655.8a14.91 14.91 0 0 1-14.91-14.91V23.14a14.91 14.91 0 0 1 14.91-14.91h655.83A14.91 14.91 0 0 1 1001 23.14z"
    fill="#fff"
  />
  <path
    d="M350.43 27.48h616.22a8.85 8.85 0 0 1 8.85 8.85v415.28a8.85 8.85 0 0 1-8.85 8.85H350.43a8.85 8.85 0 0 1-8.85-8.85V36.33a8.85 8.85 0 0 1 8.85-8.85z"
    fill="#e6e6e6"
  />
  <path
    d="M358.23 37.44h599.95a8.85 8.85 0 0 1 8.85 8.85v393.12a8.85 8.85 0 0 1-8.85 8.85H358.23a8.85 8.85 0 0 1-8.85-8.85V46.29a8.85 8.85 0 0 1 8.85-8.85z"
    fill="#fff"
  />
  <path
    d="M781.836 310.533a16.87 16.87 0 0 1-6.853-1.46 8.314 8.314 0 0 1-1.429-.812l-43.602-30.692a16.87 16.87 0 0 1-7.159-13.79v-41.857a16.87 16.87 0 0 1 7.16-13.791l43.601-30.692a8.314 8.314 0 0 1 1.429-.812 16.87 16.87 0 0 1 23.722 15.415v101.616a16.87 16.87 0 0 1-16.87 16.87z"
    fill="#3f3d56"
  />
  <path
    d="M684.255 318.762H562.647c-24.81-.02-44.916-16.058-44.942-35.847v-80.13c.026-19.789 20.132-35.826 44.942-35.847h121.925c24.634.023 44.596 15.946 44.625 35.594v80.383c-.025 19.79-20.132 35.827-44.942 35.847z"
    fill="#3f3d56"
  />
  <circle cx="900.879" cy="386.814" r="36.167" fill="#e6e6e6" />
  <path
    d="M919.665 386.165l-28.83-16.644a.749.749 0 0 0-1.122.648v33.29a.749.749 0 0 0 1.122.648l28.83-16.645a.749.749 0 0 0 0-1.297l-28.83-16.644a.749.749 0 0 0-1.122.648v33.29a.749.749 0 0 0 1.122.648l28.83-16.645a.749.749 0 0 0 0-1.297z"
    fill="#fff"
  />
  <path
    d="M853.92 529.03a15.34 15.34 0 0 1-15.26 15.42h-671.4A15.34 15.34 0 0 1 152 529.03V70.42A15.34 15.34 0 0 1 167.26 55h671.4a15.34 15.34 0 0 1 15.26 15.42z"
    fill="#e6e6e6"
  />
  <path
    d="M846 521.52a14.91 14.91 0 0 1-14.91 14.91h-655.8a14.91 14.91 0 0 1-14.91-14.91V78.14a14.91 14.91 0 0 1 14.91-14.91h655.83A14.91 14.91 0 0 1 846 78.14z"
    fill="#fff"
  />
  <path
    data-name="c6fe725a-3b03-4a96-90af-cfbd2676500a"
    d="M195.43 82.48h616.22a8.85 8.85 0 0 1 8.85 8.85v415.28a8.85 8.85 0 0 1-8.85 8.85H195.43a8.85 8.85 0 0 1-8.85-8.85V91.33a8.85 8.85 0 0 1 8.85-8.85z"
    fill="#e6e6e6"
  />
  <path
    d="M203.23 92.44h599.95a8.85 8.85 0 0 1 8.85 8.85v393.12a8.85 8.85 0 0 1-8.85 8.85H203.23a8.85 8.85 0 0 1-8.85-8.85V101.29a8.85 8.85 0 0 1 8.85-8.85z"
    fill="#fff"
  />
  <path
    d="M626.836 365.533a16.87 16.87 0 0 1-6.853-1.46 8.314 8.314 0 0 1-1.429-.812l-43.602-30.692a16.87 16.87 0 0 1-7.159-13.79v-41.857a16.87 16.87 0 0 1 7.16-13.791l43.601-30.692a8.314 8.314 0 0 1 1.429-.812 16.87 16.87 0 0 1 23.722 15.415v101.616a16.87 16.87 0 0 1-16.87 16.87z"
    fill="#3f3d56"
  />
  <path
    d="M529.255 373.762H407.647c-24.81-.02-44.916-16.058-44.942-35.847v-80.13c.026-19.789 20.132-35.826 44.942-35.847h121.925c24.634.023 44.596 15.946 44.625 35.594v80.383c-.025 19.79-20.132 35.827-44.942 35.847z"
    fill="#3f3d56"
  />
  <circle cx="745.879" cy="441.814" r="36.167" fill="#e6e6e6" />
  <path
    d="M764.665 441.165l-28.83-16.644a.749.749 0 0 0-1.122.648v33.29a.749.749 0 0 0 1.122.648l28.83-16.645a.749.749 0 0 0 0-1.297l-28.83-16.644a.749.749 0 0 0-1.122.648v33.29a.749.749 0 0 0 1.122.648l28.83-16.645a.749.749 0 0 0 0-1.297z"
    fill="#fff"
  />
  <path
    d="M701.92 592.03a15.34 15.34 0 0 1-15.26 15.42H15.26A15.34 15.34 0 0 1 0 592.03V133.42A15.34 15.34 0 0 1 15.26 118h671.4a15.34 15.34 0 0 1 15.26 15.42z"
    fill="#e6e6e6"
  />
  <path
    d="M694 584.52a14.91 14.91 0 0 1-14.91 14.91H23.29a14.91 14.91 0 0 1-14.91-14.91V141.14a14.91 14.91 0 0 1 14.91-14.91h655.83A14.91 14.91 0 0 1 694 141.14z"
    fill="#fff"
  />
  <path
    d="M43.43 145.48h616.22a8.85 8.85 0 0 1 8.85 8.85v415.28a8.85 8.85 0 0 1-8.85 8.85H43.43a8.85 8.85 0 0 1-8.85-8.85V154.33a8.85 8.85 0 0 1 8.85-8.85z"
    fill="#e6e6e6"
  />
  <path
    d="M51.23 155.44h599.95a8.85 8.85 0 0 1 8.85 8.85v393.12a8.85 8.85 0 0 1-8.85 8.85H51.23a8.85 8.85 0 0 1-8.85-8.85V164.29a8.85 8.85 0 0 1 8.85-8.85z"
    fill="#fff"
  />
  <path
    d="M474.836 428.533a16.87 16.87 0 0 1-6.853-1.46 8.314 8.314 0 0 1-1.429-.812l-43.602-30.692a16.87 16.87 0 0 1-7.159-13.79v-41.857a16.87 16.87 0 0 1 7.16-13.791l43.601-30.692a8.314 8.314 0 0 1 1.429-.812 16.87 16.87 0 0 1 23.722 15.415v101.616a16.87 16.87 0 0 1-16.87 16.87z"
    fill="#1494fc"
  />
  <path
    d="M377.255 436.762H255.647c-24.81-.02-44.916-16.058-44.942-35.847v-80.13c.026-19.789 20.132-35.826 44.942-35.847h121.925c24.634.023 44.596 15.946 44.625 35.594v80.383c-.025 19.79-20.132 35.827-44.942 35.847z"
    fill="#1494fc"
  />
  <circle cx="593.879" cy="504.814" r="36.167" fill="#3f3d56" />
  <path
    d="M612.665 504.165l-28.83-16.644a.749.749 0 0 0-1.122.648v33.29a.749.749 0 0 0 1.122.648l28.83-16.645a.749.749 0 0 0 0-1.297l-28.83-16.644a.749.749 0 0 0-1.122.648v33.29a.749.749 0 0 0 1.122.648l28.83-16.645a.749.749 0 0 0 0-1.297z"
    fill="#fff"
  />
</svg>
