<?xml version="1.0" encoding="UTF-8" standalone="no"?>
<svg
   xmlns:dc="http://purl.org/dc/elements/1.1/"
   xmlns:cc="http://creativecommons.org/ns#"
   xmlns:rdf="http://www.w3.org/1999/02/22-rdf-syntax-ns#"
   xmlns:svg="http://www.w3.org/2000/svg"
   xmlns="http://www.w3.org/2000/svg"
   xmlns:sodipodi="http://sodipodi.sourceforge.net/DTD/sodipodi-0.dtd"
   xmlns:inkscape="http://www.inkscape.org/namespaces/inkscape"
   width="24"
   height="24"
   viewBox="0 0 24 24"
   fill="none"
   stroke="#000"
   stroke-width="2"
   stroke-linecap="round"
   stroke-linejoin="round"
   version="1.1"
   id="svg6"
   sodipodi:docname="eye-off.svg"
   inkscape:version="0.92.1 r">
  <metadata
     id="metadata12">
    <rdf:RDF>
      <cc:Work
         rdf:about="">
        <dc:format>image/svg+xml</dc:format>
        <dc:type
           rdf:resource="http://purl.org/dc/dcmitype/StillImage" />
      </cc:Work>
    </rdf:RDF>
  </metadata>
  <defs
     id="defs10" />
  <sodipodi:namedview
     pagecolor="#ffffff"
     bordercolor="#666666"
     borderopacity="1"
     objecttolerance="10"
     gridtolerance="10"
     guidetolerance="10"
     inkscape:pageopacity="0"
     inkscape:pageshadow="2"
     inkscape:window-width="640"
     inkscape:window-height="480"
     id="namedview8"
     showgrid="false"
     inkscape:zoom="9.8333333"
     inkscape:cx="12"
     inkscape:cy="12"
     inkscape:window-x="0"
     inkscape:window-y="22"
     inkscape:window-maximized="0"
     inkscape:current-layer="svg6" />
  <path
     style="color:#000000;font-style:normal;font-variant:normal;font-weight:normal;font-stretch:normal;font-size:medium;line-height:normal;font-family:sans-serif;font-variant-ligatures:normal;font-variant-position:normal;font-variant-caps:normal;font-variant-numeric:normal;font-variant-alternates:normal;font-feature-settings:normal;text-indent:0;text-align:start;text-decoration:none;text-decoration-line:none;text-decoration-style:solid;text-decoration-color:#000000;letter-spacing:normal;word-spacing:normal;text-transform:none;writing-mode:lr-tb;direction:ltr;text-orientation:mixed;dominant-baseline:auto;baseline-shift:baseline;text-anchor:start;white-space:normal;shape-padding:0;clip-rule:nonzero;display:inline;overflow:visible;visibility:visible;opacity:1;isolation:auto;mix-blend-mode:normal;color-interpolation:sRGB;color-interpolation-filters:linearRGB;solid-color:#000000;solid-opacity:1;vector-effect:none;fill:#000000;fill-opacity:1;fill-rule:nonzero;stroke:none;stroke-width:2;stroke-linecap:butt;stroke-linejoin:miter;stroke-miterlimit:4;stroke-dasharray:none;stroke-dashoffset:0;stroke-opacity:1;color-rendering:auto;image-rendering:auto;shape-rendering:auto;text-rendering:auto;enable-background:accumulate"
     d="m 12,3 c -0.783797,-0.00169 -1.564951,0.086986 -2.328125,0.265625 a 1.0001,1.0001 0 1 0 0.455078,1.9472656 C 10.739811,5.0694367 11.368625,4.9985209 11.998047,5 A 1.0001,1.0001 0 0 0 12,5 c 5.874762,0 9.369568,6.244269 9.789062,7.013672 -0.511587,0.884453 -1.056509,1.750827 -1.714843,2.533203 a 1.000172,1.000172 0 1 0 1.53125,1.287109 c 0.873869,-1.038521 1.637511,-2.16629 2.277343,-3.363281 a 1.0001,1.0001 0 0 0 0.01172,-0.917969 c 0,0 -4.131988,-8.5512371 -11.892578,-8.552734 z M 6.0742188,5.0507812 A 1.0001,1.0001 0 0 0 5.453125,5.265625 C 3.2489489,6.9487583 1.4304414,9.083613 0.11914062,11.527344 a 1.0001,1.0001 0 0 0 -0.0136719,0.919922 C 0.10546875,12.447266 4.2380952,21 12,21 a 1.0001,1.0001 0 0 0 0.01563,0 c 2.362391,-0.03862 4.652193,-0.833309 6.53125,-2.265625 a 1.0001,1.0001 0 1 0 -1.212891,-1.589844 c -1.537605,1.172044 -3.408858,1.82018 -5.341796,1.853516 C 6.1232621,18.991804 2.6313764,12.759301 2.2109375,11.988281 3.3600953,10.010025 4.8446674,8.2462705 6.6660156,6.8554688 A 1.0001,1.0001 0 0 0 6.0742188,5.0507812 Z M 9.8964844,8.8710938 A 1.0001,1.0001 0 0 0 9.1992188,9.1484375 C 8.2563892,10.026975 7.8196517,11.154835 7.8671875,12.205078 c 0.047536,1.050243 0.528643,1.99544 1.2304687,2.697266 0.7018258,0.701825 1.6470228,1.182933 2.6972658,1.230468 1.050243,0.04754 2.178103,-0.389201 3.05664,-1.332031 A 1.0001,1.0001 0 1 0 13.388672,13.4375 c -0.533883,0.572953 -1.020638,0.719139 -1.503906,0.697266 -0.483269,-0.02187 -0.989033,-0.26247 -1.373047,-0.646485 C 10.127704,13.104267 9.8871079,12.598503 9.8652344,12.115234 9.8433608,11.631966 9.9895472,11.145211 10.5625,10.611328 A 1.0001,1.0001 0 0 0 9.8964844,8.8710938 Z"
     id="path2"
     inkscape:connector-curvature="0" />
  <path
     style="color:#000000;font-style:normal;font-variant:normal;font-weight:normal;font-stretch:normal;font-size:medium;line-height:normal;font-family:sans-serif;font-variant-ligatures:normal;font-variant-position:normal;font-variant-caps:normal;font-variant-numeric:normal;font-variant-alternates:normal;font-feature-settings:normal;text-indent:0;text-align:start;text-decoration:none;text-decoration-line:none;text-decoration-style:solid;text-decoration-color:#000000;letter-spacing:normal;word-spacing:normal;text-transform:none;writing-mode:lr-tb;direction:ltr;text-orientation:mixed;dominant-baseline:auto;baseline-shift:baseline;text-anchor:start;white-space:normal;shape-padding:0;clip-rule:nonzero;display:inline;overflow:visible;visibility:visible;opacity:1;isolation:auto;mix-blend-mode:normal;color-interpolation:sRGB;color-interpolation-filters:linearRGB;solid-color:#000000;solid-opacity:1;vector-effect:none;fill:#000000;fill-opacity:1;fill-rule:nonzero;stroke:none;stroke-width:2;stroke-linecap:butt;stroke-linejoin:miter;stroke-miterlimit:4;stroke-dasharray:none;stroke-dashoffset:0;stroke-opacity:1;color-rendering:auto;image-rendering:auto;shape-rendering:auto;text-rendering:auto;enable-background:accumulate"
     d="M 0.99023438,-0.00976563 A 1.0001,1.0001 0 0 0 0.29296875,1.7070312 L 22.292969,23.707031 a 1.0001,1.0001 0 1 0 1.414062,-1.414062 L 1.7070312,0.29296875 A 1.0001,1.0001 0 0 0 0.99023438,-0.00976563 Z"
     id="line4"
     inkscape:connector-curvature="0" />
</svg>
