<?xml version="1.0" encoding="UTF-8" standalone="no"?>
<svg
   xmlns:dc="http://purl.org/dc/elements/1.1/"
   xmlns:cc="http://creativecommons.org/ns#"
   xmlns:rdf="http://www.w3.org/1999/02/22-rdf-syntax-ns#"
   xmlns:svg="http://www.w3.org/2000/svg"
   xmlns="http://www.w3.org/2000/svg"
   xmlns:sodipodi="http://sodipodi.sourceforge.net/DTD/sodipodi-0.dtd"
   xmlns:inkscape="http://www.inkscape.org/namespaces/inkscape"
   width="24"
   height="24"
   viewBox="0 0 24 24"
   fill="none"
   stroke="#000"
   stroke-width="2"
   stroke-linecap="round"
   stroke-linejoin="round"
   version="1.1"
   id="svg4"
   sodipodi:docname="heart.svg"
   inkscape:version="0.92.1 r">
  <metadata
     id="metadata10">
    <rdf:RDF>
      <cc:Work
         rdf:about="">
        <dc:format>image/svg+xml</dc:format>
        <dc:type
           rdf:resource="http://purl.org/dc/dcmitype/StillImage" />
      </cc:Work>
    </rdf:RDF>
  </metadata>
  <defs
     id="defs8" />
  <sodipodi:namedview
     pagecolor="#ffffff"
     bordercolor="#666666"
     borderopacity="1"
     objecttolerance="10"
     gridtolerance="10"
     guidetolerance="10"
     inkscape:pageopacity="0"
     inkscape:pageshadow="2"
     inkscape:window-width="640"
     inkscape:window-height="480"
     id="namedview6"
     showgrid="false"
     inkscape:zoom="9.8333333"
     inkscape:cx="12"
     inkscape:cy="12"
     inkscape:window-x="0"
     inkscape:window-y="22"
     inkscape:window-maximized="0"
     inkscape:current-layer="svg4" />
  <path
     style="color:#000000;font-style:normal;font-variant:normal;font-weight:normal;font-stretch:normal;font-size:medium;line-height:normal;font-family:sans-serif;font-variant-ligatures:normal;font-variant-position:normal;font-variant-caps:normal;font-variant-numeric:normal;font-variant-alternates:normal;font-feature-settings:normal;text-indent:0;text-align:start;text-decoration:none;text-decoration-line:none;text-decoration-style:solid;text-decoration-color:#000000;letter-spacing:normal;word-spacing:normal;text-transform:none;writing-mode:lr-tb;direction:ltr;text-orientation:mixed;dominant-baseline:auto;baseline-shift:baseline;text-anchor:start;white-space:normal;shape-padding:0;clip-rule:nonzero;display:inline;overflow:visible;visibility:visible;opacity:1;isolation:auto;mix-blend-mode:normal;color-interpolation:sRGB;color-interpolation-filters:linearRGB;solid-color:#000000;solid-opacity:1;vector-effect:none;fill:#000000;fill-opacity:1;fill-rule:nonzero;stroke:none;stroke-width:2;stroke-linecap:butt;stroke-linejoin:miter;stroke-miterlimit:4;stroke-dasharray:none;stroke-dashoffset:0;stroke-opacity:1;color-rendering:auto;image-rendering:auto;shape-rendering:auto;text-rendering:auto;enable-background:accumulate"
     d="M 6.7480469,1.9101562 C 5.0949528,2.0073975 3.5827598,2.772709 2.453125,3.9023438 1.3234902,5.0319785 0.55622556,6.5441716 0.45898438,8.1972656 0.36174319,9.8503597 0.97968212,11.624213 2.453125,13.097656 l 1.0605469,1.058594 7.7792971,7.78125 a 1.0001,1.0001 0 0 0 1.414062,0 l 7.779297,-7.78125 1.060547,-1.058594 c 2.531457,-2.530268 2.531457,-6.6650435 0,-9.1953122 -2.530269,-2.5314568 -6.663091,-2.5314568 -9.193359,0 L 12,4.2558594 11.646484,3.9023438 C 10.173041,2.4289009 8.4011409,1.812915 6.7480469,1.9101562 Z M 6.8652344,3.90625 c 1.102322,-0.064843 2.2472981,0.290267 3.3671876,1.4101562 l 1.060547,1.0605469 a 1.0001,1.0001 0 0 0 1.414062,0 l 1.060547,-1.0605469 c 1.765916,-1.7667448 4.599319,-1.7667448 6.365234,0 1.766745,1.7659158 1.766745,4.6012718 0,6.3671878 L 19.072266,12.742188 12,19.816406 4.9277344,12.742188 3.8671875,11.683594 C 2.7472982,10.563704 2.3921885,9.4187283 2.4570312,8.3164062 c 0.064843,-1.102322 0.5947911,-2.1846347 1.4101563,-3 C 4.6825527,4.501041 5.7629123,3.9710927 6.8652344,3.90625 Z"
     id="path2"
     inkscape:connector-curvature="0" />
</svg>
