<?xml version="1.0" encoding="UTF-8" standalone="no"?>
<svg
   xmlns:dc="http://purl.org/dc/elements/1.1/"
   xmlns:cc="http://creativecommons.org/ns#"
   xmlns:rdf="http://www.w3.org/1999/02/22-rdf-syntax-ns#"
   xmlns:svg="http://www.w3.org/2000/svg"
   xmlns="http://www.w3.org/2000/svg"
   xmlns:sodipodi="http://sodipodi.sourceforge.net/DTD/sodipodi-0.dtd"
   xmlns:inkscape="http://www.inkscape.org/namespaces/inkscape"
   width="24"
   height="24"
   viewBox="0 0 24 24"
   fill="none"
   stroke="#000"
   stroke-width="2"
   stroke-linecap="round"
   stroke-linejoin="round"
   version="1.1"
   id="svg4"
   sodipodi:docname="message-circle.svg"
   inkscape:version="0.92.1 r">
  <metadata
     id="metadata10">
    <rdf:RDF>
      <cc:Work
         rdf:about="">
        <dc:format>image/svg+xml</dc:format>
        <dc:type
           rdf:resource="http://purl.org/dc/dcmitype/StillImage" />
      </cc:Work>
    </rdf:RDF>
  </metadata>
  <defs
     id="defs8" />
  <sodipodi:namedview
     pagecolor="#ffffff"
     bordercolor="#666666"
     borderopacity="1"
     objecttolerance="10"
     gridtolerance="10"
     guidetolerance="10"
     inkscape:pageopacity="0"
     inkscape:pageshadow="2"
     inkscape:window-width="640"
     inkscape:window-height="480"
     id="namedview6"
     showgrid="false"
     inkscape:zoom="9.8333333"
     inkscape:cx="12"
     inkscape:cy="12"
     inkscape:window-x="0"
     inkscape:window-y="22"
     inkscape:window-maximized="0"
     inkscape:current-layer="svg4" />
  <path
     style="color:#000000;font-style:normal;font-variant:normal;font-weight:normal;font-stretch:normal;font-size:medium;line-height:normal;font-family:sans-serif;font-variant-ligatures:normal;font-variant-position:normal;font-variant-caps:normal;font-variant-numeric:normal;font-variant-alternates:normal;font-feature-settings:normal;text-indent:0;text-align:start;text-decoration:none;text-decoration-line:none;text-decoration-style:solid;text-decoration-color:#000000;letter-spacing:normal;word-spacing:normal;text-transform:none;writing-mode:lr-tb;direction:ltr;text-orientation:mixed;dominant-baseline:auto;baseline-shift:baseline;text-anchor:start;white-space:normal;shape-padding:0;clip-rule:nonzero;display:inline;overflow:visible;visibility:visible;opacity:1;isolation:auto;mix-blend-mode:normal;color-interpolation:sRGB;color-interpolation-filters:linearRGB;solid-color:#000000;solid-opacity:1;vector-effect:none;fill:#000000;fill-opacity:1;fill-rule:nonzero;stroke:none;stroke-width:2;stroke-linecap:butt;stroke-linejoin:miter;stroke-miterlimit:4;stroke-dasharray:none;stroke-dashoffset:0;stroke-opacity:1;color-rendering:auto;image-rendering:auto;shape-rendering:auto;text-rendering:auto;enable-background:accumulate"
     d="M 12.5,2 C 11.024786,1.9964611 9.5709729,2.3413759 8.2539062,3.0058594 5.0383094,4.612962 3.0021345,7.903323 3,11.498047 c -0.00344,1.31802 0.3115515,2.604705 0.84375,3.806641 l -1.7929688,5.378906 a 1.0001,1.0001 0 0 0 1.265625,1.265625 L 8.6953125,20.15625 C 9.8972484,20.688448 11.183933,21.003436 12.501953,21 c 3.593254,-0.0021 6.882413,-2.036683 8.490235,-5.25 v -0.002 C 21.657708,14.429806 22.00385,12.974771 22,11.498047 V 11 a 1.0001,1.0001 0 0 0 -0.002,-0.05469 C 21.732326,6.1288378 17.871162,2.2676741 13.054688,2.0019531 A 1.0001,1.0001 0 0 0 13,2 h -0.498047 z m -0.002,2 A 1.0001,1.0001 0 0 0 12.5,4 h 0.453125 C 16.761562,4.2142779 19.785722,7.2384381 20,11.046875 V 11.5 a 1.0001,1.0001 0 0 0 0,0.002 c 0.003,1.162396 -0.268897,2.310101 -0.792969,3.347656 a 1.0001,1.0001 0 0 0 -0.002,0.0039 C 17.934393,17.395986 15.342323,18.9989 12.5,19 a 1.0001,1.0001 0 0 0 -0.002,0 c -1.162396,0.003 -2.310101,-0.268897 -3.3476564,-0.792969 A 1.0001,1.0001 0 0 0 8.3828125,18.150391 L 4.5820312,19.417969 5.8496094,15.617188 A 1.0001,1.0001 0 0 0 5.7929688,14.849609 C 5.268897,13.812054 4.9969693,12.664349 5,11.501953 A 1.0001,1.0001 0 0 0 5,11.5 c 0.0011,-2.8423226 1.6040135,-5.4343928 4.1464844,-6.7050781 a 1.0001,1.0001 0 0 0 0.00391,-0.00195 C 10.187946,4.268897 11.335651,3.9969693 12.498047,4 Z"
     id="path2"
     inkscape:connector-curvature="0" />
</svg>
