<?xml version="1.0" encoding="UTF-8" standalone="no"?>
<svg
   xmlns:dc="http://purl.org/dc/elements/1.1/"
   xmlns:cc="http://creativecommons.org/ns#"
   xmlns:rdf="http://www.w3.org/1999/02/22-rdf-syntax-ns#"
   xmlns:svg="http://www.w3.org/2000/svg"
   xmlns="http://www.w3.org/2000/svg"
   xmlns:sodipodi="http://sodipodi.sourceforge.net/DTD/sodipodi-0.dtd"
   xmlns:inkscape="http://www.inkscape.org/namespaces/inkscape"
   width="24"
   height="24"
   viewBox="0 0 24 24"
   fill="none"
   stroke="#000"
   stroke-width="2"
   stroke-linecap="round"
   stroke-linejoin="round"
   version="1.1"
   id="svg4"
   sodipodi:docname="star.svg"
   inkscape:version="0.92.1 r">
  <metadata
     id="metadata10">
    <rdf:RDF>
      <cc:Work
         rdf:about="">
        <dc:format>image/svg+xml</dc:format>
        <dc:type
           rdf:resource="http://purl.org/dc/dcmitype/StillImage" />
      </cc:Work>
    </rdf:RDF>
  </metadata>
  <defs
     id="defs8" />
  <sodipodi:namedview
     pagecolor="#ffffff"
     bordercolor="#666666"
     borderopacity="1"
     objecttolerance="10"
     gridtolerance="10"
     guidetolerance="10"
     inkscape:pageopacity="0"
     inkscape:pageshadow="2"
     inkscape:window-width="640"
     inkscape:window-height="480"
     id="namedview6"
     showgrid="false"
     inkscape:zoom="9.8333333"
     inkscape:cx="12"
     inkscape:cy="12"
     inkscape:window-x="0"
     inkscape:window-y="22"
     inkscape:window-maximized="0"
     inkscape:current-layer="svg4" />
  <path
     style="color:#000000;font-style:normal;font-variant:normal;font-weight:normal;font-stretch:normal;font-size:medium;line-height:normal;font-family:sans-serif;font-variant-ligatures:normal;font-variant-position:normal;font-variant-caps:normal;font-variant-numeric:normal;font-variant-alternates:normal;font-feature-settings:normal;text-indent:0;text-align:start;text-decoration:none;text-decoration-line:none;text-decoration-style:solid;text-decoration-color:#000000;letter-spacing:normal;word-spacing:normal;text-transform:none;writing-mode:lr-tb;direction:ltr;text-orientation:mixed;dominant-baseline:auto;baseline-shift:baseline;text-anchor:start;white-space:normal;shape-padding:0;clip-rule:nonzero;display:inline;overflow:visible;visibility:visible;opacity:1;isolation:auto;mix-blend-mode:normal;color-interpolation:sRGB;color-interpolation-filters:linearRGB;solid-color:#000000;solid-opacity:1;vector-effect:none;fill:#000000;fill-opacity:1;fill-rule:nonzero;stroke:none;stroke-width:2;stroke-linecap:butt;stroke-linejoin:miter;stroke-miterlimit:4;stroke-dasharray:none;stroke-dashoffset:0;stroke-opacity:1;color-rendering:auto;image-rendering:auto;shape-rendering:auto;text-rendering:auto;enable-background:accumulate"
     d="M 12.011719,1 A 1.0001,1.0001 0 0 0 11.103516,1.5566406 L 8.2460938,7.3457031 1.8554688,8.28125 A 1.0001,1.0001 0 0 0 1.3027344,9.9863281 l 4.6230468,4.5039059 -1.0917968,6.361328 a 1.0001,1.0001 0 0 0 1.4511718,1.052735 L 12,18.900391 l 5.714844,3.003906 a 1.0001,1.0001 0 0 0 1.451172,-1.052735 L 18.074219,14.490234 22.697266,9.9863281 A 1.0001,1.0001 0 0 0 22.144531,8.28125 L 15.753906,7.3457031 12.896484,1.5566406 A 1.0001,1.0001 0 0 0 12.011719,1 Z M 12,4.2597656 14.193359,8.703125 A 1.0001,1.0001 0 0 0 14.945312,9.25 l 4.90625,0.7167969 -3.548828,3.4570311 a 1.0001,1.0001 0 0 0 -0.289062,0.884766 l 0.83789,4.882812 -4.386718,-2.30664 a 1.0001,1.0001 0 0 0 -0.929688,0 l -4.3867185,2.30664 0.8378906,-4.882812 A 1.0001,1.0001 0 0 0 7.6972656,13.423828 L 4.1484375,9.9667969 9.0546875,9.25 A 1.0001,1.0001 0 0 0 9.8066406,8.703125 Z"
     id="polygon2"
     inkscape:connector-curvature="0" />
</svg>
