<?xml version="1.0" encoding="UTF-8" standalone="no"?>
<svg
   xmlns:dc="http://purl.org/dc/elements/1.1/"
   xmlns:cc="http://creativecommons.org/ns#"
   xmlns:rdf="http://www.w3.org/1999/02/22-rdf-syntax-ns#"
   xmlns:svg="http://www.w3.org/2000/svg"
   xmlns="http://www.w3.org/2000/svg"
   xmlns:sodipodi="http://sodipodi.sourceforge.net/DTD/sodipodi-0.dtd"
   xmlns:inkscape="http://www.inkscape.org/namespaces/inkscape"
   width="24"
   height="24"
   viewBox="0 0 24 24"
   fill="none"
   stroke="#000"
   stroke-width="2"
   stroke-linecap="round"
   stroke-linejoin="round"
   version="1.1"
   id="svg4"
   sodipodi:docname="thermometer.svg"
   inkscape:version="0.92.1 r">
  <metadata
     id="metadata10">
    <rdf:RDF>
      <cc:Work
         rdf:about="">
        <dc:format>image/svg+xml</dc:format>
        <dc:type
           rdf:resource="http://purl.org/dc/dcmitype/StillImage" />
      </cc:Work>
    </rdf:RDF>
  </metadata>
  <defs
     id="defs8" />
  <sodipodi:namedview
     pagecolor="#ffffff"
     bordercolor="#666666"
     borderopacity="1"
     objecttolerance="10"
     gridtolerance="10"
     guidetolerance="10"
     inkscape:pageopacity="0"
     inkscape:pageshadow="2"
     inkscape:window-width="640"
     inkscape:window-height="480"
     id="namedview6"
     showgrid="false"
     inkscape:zoom="9.8333333"
     inkscape:cx="12"
     inkscape:cy="12"
     inkscape:window-x="0"
     inkscape:window-y="22"
     inkscape:window-maximized="0"
     inkscape:current-layer="svg4" />
  <path
     style="color:#000000;font-style:normal;font-variant:normal;font-weight:normal;font-stretch:normal;font-size:medium;line-height:normal;font-family:sans-serif;font-variant-ligatures:normal;font-variant-position:normal;font-variant-caps:normal;font-variant-numeric:normal;font-variant-alternates:normal;font-feature-settings:normal;text-indent:0;text-align:start;text-decoration:none;text-decoration-line:none;text-decoration-style:solid;text-decoration-color:#000000;letter-spacing:normal;word-spacing:normal;text-transform:none;writing-mode:lr-tb;direction:ltr;text-orientation:mixed;dominant-baseline:auto;baseline-shift:baseline;text-anchor:start;white-space:normal;shape-padding:0;clip-rule:nonzero;display:inline;overflow:visible;visibility:visible;opacity:1;isolation:auto;mix-blend-mode:normal;color-interpolation:sRGB;color-interpolation-filters:linearRGB;solid-color:#000000;solid-opacity:1;vector-effect:none;fill:#000000;fill-opacity:1;fill-rule:nonzero;stroke:none;stroke-width:2;stroke-linecap:butt;stroke-linejoin:miter;stroke-miterlimit:4;stroke-dasharray:none;stroke-dashoffset:0;stroke-opacity:1;color-rendering:auto;image-rendering:auto;shape-rendering:auto;text-rendering:auto;enable-background:accumulate"
     d="M 11.5,0 C 10.652778,0 9.7921194,0.27701391 9.1171875,0.87695312 8.4422556,1.4768923 8,2.4166669 8,3.5 v 10.847656 c -1.7972013,1.510513 -2.3553384,3.800404 -1.7636719,5.75 0.6440764,2.122292 2.6069173,3.904297 5.2636719,3.904297 2.656755,0 4.619596,-1.782005 5.263672,-3.904297 0.591666,-1.949596 0.03353,-4.239487 -1.763672,-5.75 V 3.5 C 15,2.4166669 14.557744,1.4768923 13.882812,0.87695312 13.207881,0.27701391 12.347222,0 11.5,0 Z m 0,2 c 0.402778,0 0.792119,0.1396531 1.054688,0.3730469 C 12.817256,2.6064406 13,2.9166671 13,3.5 v 11.259766 a 1.0001,1.0001 0 0 0 0.445312,0.832031 c 1.491124,0.996298 1.823125,2.545706 1.404297,3.925781 -0.418827,1.380075 -1.557194,2.484375 -3.349609,2.484375 -1.7924152,0 -2.9307821,-1.1043 -3.3496094,-2.484375 -0.4188272,-1.380075 -0.086826,-2.929483 1.4042969,-3.925781 A 1.0001,1.0001 0 0 0 10,14.759766 V 3.5 C 10,2.9166671 10.182744,2.6064406 10.445312,2.3730469 10.707881,2.1396531 11.097222,2 11.5,2 Z"
     id="path2"
     inkscape:connector-curvature="0" />
</svg>
